<?xml version="1.0" encoding="UTF-8" standalone="no"?>
<!DOCTYPE svg PUBLIC "-//W3C//DTD SVG 1.1//EN" "http://www.w3.org/Graphics/SVG/1.1/DTD/svg11.dtd">
<svg width="100%" height="100%" viewBox="0 0 1000 1000" version="1.1" xmlns="http://www.w3.org/2000/svg" xmlns:xlink="http://www.w3.org/1999/xlink" xml:space="preserve" xmlns:serif="http://www.serif.com/" style="fill-rule:evenodd;clip-rule:evenodd;stroke-linejoin:round;stroke-miterlimit:2;">
    <g transform="matrix(1,0,0,1,1.70082,0)">
        <g transform="matrix(16.9924,0,0,12.8097,-12918.2,-2774.5)">
            <rect x="767.557" y="257.611" width="1.789" height="3.582"/>
        </g>
        <g transform="matrix(16.9924,0,0,19.1638,-12918.2,-4347.39)">
            <rect x="767.557" y="257.611" width="1.789" height="3.582"/>
        </g>
        <g transform="matrix(16.9924,0,0,31.822,-12918.2,-7519.64)">
            <rect x="767.557" y="257.611" width="1.789" height="3.582"/>
        </g>
        <g transform="matrix(17.4791,0,0,8.85355,-13291.7,-1470.87)">
            <rect x="767.557" y="257.611" width="1.789" height="3.582"/>
        </g>
        <g transform="matrix(16.9924,0,0,21.4847,-12857,-5003.79)">
            <rect x="767.557" y="257.611" width="1.789" height="3.582"/>
        </g>
        <g transform="matrix(16.9924,0,0,19.1638,-12857,-4299.05)">
            <rect x="767.557" y="257.611" width="1.789" height="3.582"/>
        </g>
        <g transform="matrix(16.9924,0,0,8.80346,-12857,-1541.47)">
            <rect x="767.557" y="257.611" width="1.789" height="3.582"/>
        </g>
        <g transform="matrix(17.4791,0,0,29.8711,-13230.6,-6907.1)">
            <rect x="767.557" y="257.611" width="1.789" height="3.582"/>
        </g>
        <g transform="matrix(16.9924,0,0,21.4847,-12735.3,-5003.79)">
            <rect x="767.557" y="257.611" width="1.789" height="3.582"/>
        </g>
        <g transform="matrix(16.9924,0,0,19.1638,-12735.3,-4299.05)">
            <rect x="767.557" y="257.611" width="1.789" height="3.582"/>
        </g>
        <g transform="matrix(16.9924,0,0,8.80346,-12735.3,-1389.79)">
            <rect x="767.557" y="257.611" width="1.789" height="3.582"/>
        </g>
        <g transform="matrix(17.4791,0,0,29.8711,-13108.9,-6956.44)">
            <rect x="767.557" y="257.611" width="1.789" height="3.582"/>
        </g>
        <g transform="matrix(16.9924,0,0,19.086,-12668.7,-4363.28)">
            <rect x="767.557" y="257.611" width="1.789" height="3.582"/>
        </g>
        <g transform="matrix(16.9924,0,0,30.6183,-12668.7,-7236.98)">
            <rect x="767.557" y="257.611" width="1.789" height="3.582"/>
        </g>
        <g transform="matrix(16.9924,0,0,8.80346,-12668.7,-1455.42)">
            <rect x="767.557" y="257.611" width="1.789" height="3.582"/>
        </g>
        <g transform="matrix(16.9924,0,0,26.1549,-12604.8,-6209.63)">
            <rect x="767.557" y="257.611" width="1.789" height="3.582"/>
        </g>
        <g transform="matrix(16.9924,0,0,8.86549,-12604.8,-1633.25)">
            <rect x="767.557" y="257.611" width="1.789" height="3.582"/>
        </g>
        <g transform="matrix(16.9924,0,0,8.80346,-12604.8,-1552.24)">
            <rect x="767.557" y="257.611" width="1.789" height="3.582"/>
        </g>
        <g transform="matrix(16.9924,0,0,30.0348,-12604.8,-6960.81)">
            <rect x="767.557" y="257.611" width="1.789" height="3.582"/>
        </g>
        <g transform="matrix(16.9924,0,0,9.97287,-12451.8,-2040.96)">
            <rect x="767.557" y="257.611" width="1.789" height="3.582"/>
        </g>
        <g transform="matrix(16.9924,0,0,28.998,-12451.8,-6878.3)">
            <rect x="767.557" y="257.611" width="1.789" height="3.582"/>
        </g>
        <g transform="matrix(16.9924,0,0,8.80346,-12451.8,-1552.24)">
            <rect x="767.557" y="257.611" width="1.789" height="3.582"/>
        </g>
        <g transform="matrix(16.9924,0,0,30.3447,-12451.8,-7040.64)">
            <rect x="767.557" y="257.611" width="1.789" height="3.582"/>
        </g>
        <g transform="matrix(16.9924,0,0,31.7898,-12388.7,-7661.23)">
            <rect x="767.557" y="257.611" width="1.789" height="3.582"/>
        </g>
        <g transform="matrix(16.9924,0,0,8.75226,-12388.7,-1590.26)">
            <rect x="767.557" y="257.611" width="1.789" height="3.582"/>
        </g>
        <g transform="matrix(16.9924,0,0,8.80346,-12388.7,-1427.81)">
            <rect x="767.557" y="257.611" width="1.789" height="3.582"/>
        </g>
        <g transform="matrix(16.9924,0,0,18.964,-12388.7,-4155.57)">
            <rect x="767.557" y="257.611" width="1.789" height="3.582"/>
        </g>
        <g transform="matrix(16.9924,0,0,28.998,-12514.7,-6902.54)">
            <rect x="767.557" y="257.611" width="1.789" height="3.582"/>
        </g>
        <g transform="matrix(16.9924,0,0,8.84538,-12514.7,-1580.92)">
            <rect x="767.557" y="257.611" width="1.789" height="3.582"/>
        </g>
        <g transform="matrix(16.9924,0,0,20.8815,-12514.7,-4625.38)">
            <rect x="767.557" y="257.611" width="1.789" height="3.582"/>
        </g>
        <g transform="matrix(16.9924,0,0,8.83326,-12514.7,-1423.12)">
            <rect x="767.557" y="257.611" width="1.789" height="3.582"/>
        </g>
        <g transform="matrix(16.9924,0,0,25.4501,-12204.6,-6028.08)">
            <rect x="767.557" y="257.611" width="1.789" height="3.582"/>
        </g>
        <g transform="matrix(16.9924,0,0,20.1449,-12204.6,-4538.7)">
            <rect x="767.557" y="257.611" width="1.789" height="3.582"/>
        </g>
        <g transform="matrix(16.9924,0,0,8.85635,-12204.6,-1517.67)">
            <rect x="767.557" y="257.611" width="1.789" height="3.582"/>
        </g>
        <g transform="matrix(16.9924,0,0,8.92563,-12204.6,-1472.43)">
            <rect x="767.557" y="257.611" width="1.789" height="3.582"/>
        </g>
        <g transform="matrix(16.9924,0,0,31.1573,-12320.7,-7461.92)">
            <rect x="767.557" y="257.611" width="1.789" height="3.582"/>
        </g>
        <g transform="matrix(16.9924,0,0,27.3179,-12320.7,-6265.76)">
            <rect x="767.557" y="257.611" width="1.789" height="3.582"/>
        </g>
        <g transform="matrix(16.9924,0,0,31.1573,-12264,-7461.92)">
            <rect x="767.557" y="257.611" width="1.789" height="3.582"/>
        </g>
        <g transform="matrix(16.9924,0,0,26.5342,-12264,-6130.33)">
            <rect x="767.557" y="257.611" width="1.789" height="3.582"/>
        </g>
        <g transform="matrix(16.9924,0,0,16.3685,-12264,-3363.19)">
            <rect x="767.557" y="257.611" width="1.789" height="3.582"/>
        </g>
        <g transform="matrix(16.9924,0,0,8.81818,-12798,-1713.13)">
            <rect x="767.557" y="257.611" width="1.789" height="3.582"/>
        </g>
        <g transform="matrix(16.9924,0,0,27.9007,-12798,-6563.4)">
            <rect x="767.557" y="257.611" width="1.789" height="3.582"/>
        </g>
        <g transform="matrix(17.4791,0,0,29.8711,-13171.6,-6924.85)">
            <rect x="767.557" y="257.611" width="1.789" height="3.582"/>
        </g>
        <g transform="matrix(15.6394,0,0,15.6394,-11877.2,-3580.84)">
            <path d="M794.463,243.241L794.463,241.196C793.441,240.993 792.385,240.886 791.304,240.886C782.394,240.886 775.16,248.12 775.16,257.03L775.16,260.938L777.16,260.938L777.16,257.03C777.16,249.224 783.498,242.886 791.304,242.886C792.39,242.886 793.447,243.009 794.463,243.241ZM805.444,256.712L807.444,256.712C807.359,252.314 805.511,248.343 802.577,245.479L802.577,248.492C804.319,250.787 805.376,253.629 805.444,256.712Z"/>
        </g>
        <g transform="matrix(15.6394,0,0,15.6394,-11877.2,-3580.84)">
            <path d="M785.559,255.032L783.482,255.032C783.337,255.636 783.261,256.265 783.261,256.912L783.261,260.938L785.261,260.938L785.261,256.912C785.261,256.256 785.365,255.624 785.559,255.032ZM791.077,248.872L791.077,250.873C791.152,250.87 791.228,250.869 791.304,250.869C794.639,250.869 797.347,253.577 797.347,256.912L797.347,260.938L799.347,260.938L799.347,256.912C799.347,252.473 795.743,248.869 791.304,248.869C791.228,248.869 791.152,248.87 791.077,248.872Z"/>
        </g>
        <g transform="matrix(15.8366,0,0,17.914,-13058.6,-4179.11)">
            <rect x="824.159" y="261.204" width="63.598" height="1.824"/>
        </g>
        <g transform="matrix(15.6394,0,0,15.6394,-11877.2,-3580.84)">
            <path d="M793.361,258.074L795.361,258.074L795.361,257.358C795.361,255.119 793.543,253.301 791.304,253.301C789.065,253.301 787.247,255.119 787.247,257.358L787.247,260.938L789.247,260.938L789.247,257.358C789.247,256.223 790.168,255.301 791.304,255.301C792.439,255.301 793.361,256.223 793.361,257.358L793.361,258.074Z"/>
        </g>
        <g transform="matrix(15.6394,0,0,15.6394,-11877.2,-3580.84)">
            <path d="M779.488,255.34L781.521,255.34C782.437,250.776 786.472,247.334 791.304,247.334C796.136,247.334 800.17,250.776 801.086,255.34L803.12,255.34C802.178,249.665 797.243,245.334 791.304,245.334C785.365,245.334 780.43,249.665 779.488,255.34Z"/>
        </g>
        <g transform="matrix(15.6394,0,0,15.6394,-11877.2,-3580.84)">
            <g transform="matrix(1,0,0,1,-64.8661,0)">
                <g transform="matrix(1.0882,0,0,1.0882,-73.1837,-20.8111)">
                    <rect x="828.138" y="233.16" width="1.911" height="1.911"/>
                </g>
                <path d="M834.028,231.088L834.028,229.088L824.1,229.088L824.1,239.016L826.1,239.016L826.1,231.088L834.028,231.088Z"/>
            </g>
            <g transform="matrix(1,0,0,1,-64.5794,0)">
                <g transform="matrix(6.66329e-17,1.0882,-1.0882,6.66329e-17,1137.85,-668.196)">
                    <rect x="828.138" y="233.16" width="1.911" height="1.911"/>
                </g>
                <g transform="matrix(6.12323e-17,1,-1,6.12323e-17,1117.04,-595.013)">
                    <path d="M834.028,231.088L834.028,229.088L824.1,229.088L824.1,239.016L826.1,239.016L826.1,231.088L834.028,231.088Z"/>
                </g>
            </g>
            <g transform="matrix(1,0,0,1,-64.5794,0)">
                <g transform="matrix(-1.0882,1.33266e-16,-1.33266e-16,-1.0882,1785.24,542.798)">
                    <rect x="828.138" y="233.16" width="1.911" height="1.911"/>
                </g>
                <g transform="matrix(-1,1.22465e-16,-1.22465e-16,-1,1712.05,521.987)">
                    <path d="M834.028,231.088L834.028,229.088L824.1,229.088L824.1,239.016L826.1,239.016L826.1,231.088L834.028,231.088Z"/>
                </g>
            </g>
            <g transform="matrix(1,0,0,1,-64.5794,0)">
                <g transform="matrix(-1.99899e-16,-1.0882,1.0882,-1.99899e-16,573.915,1190.18)">
                    <rect x="828.138" y="233.16" width="1.911" height="1.911"/>
                </g>
                <g transform="matrix(-1.83697e-16,-1,1,-1.83697e-16,594.726,1117)">
                    <path d="M834.028,231.088L834.028,229.088L824.1,229.088L824.1,239.016L826.1,239.016L826.1,231.088L834.028,231.088Z"/>
                </g>
            </g>
        </g>
        <g transform="matrix(15.6394,0,0,15.6394,-11880.3,-3580.84)">
            <path d="M769.724,254.364L767.712,254.364C767.628,255.179 767.585,256.007 767.585,256.845L767.585,260.938L769.585,260.938L769.585,256.845C769.585,256.007 769.632,255.18 769.724,254.364ZM814.024,248.787L812.084,249.307C812.947,251.659 813.417,254.197 813.417,256.845L813.417,260.938L815.417,260.938L815.417,256.845C815.417,254.018 814.926,251.304 814.024,248.787ZM809.738,244.693L811.768,244.149C807.535,237.411 800.037,232.929 791.501,232.929C781.453,232.929 772.844,239.138 769.306,247.925L771.479,247.925C774.899,240.269 782.581,234.929 791.501,234.929C799.103,234.929 805.807,238.808 809.738,244.693Z"/>
        </g>
        <g transform="matrix(15.6394,0,0,15.6394,-11881.8,-3580.84)">
            <path d="M782.735,239.503L782.735,241.765C785.352,240.284 788.375,239.439 791.594,239.439C801.544,239.439 809.622,247.517 809.622,257.467L809.622,260.938L811.622,260.938L811.622,257.467C811.622,246.413 802.647,237.439 791.594,237.439C788.413,237.439 785.405,238.182 782.735,239.503ZM776.754,247.233L774.378,247.233C772.592,250.228 771.566,253.729 771.566,257.467L771.566,259.06L773.566,259.06L773.566,257.467C773.566,253.668 774.743,250.142 776.754,247.233Z"/>
        </g>
    </g>
</svg>
