<?xml version="1.0" encoding="UTF-8" standalone="no"?>
<!DOCTYPE svg PUBLIC "-//W3C//DTD SVG 1.1//EN" "http://www.w3.org/Graphics/SVG/1.1/DTD/svg11.dtd">
<svg width="100%" height="100%" viewBox="0 0 1000 884" version="1.1" xmlns="http://www.w3.org/2000/svg" xmlns:xlink="http://www.w3.org/1999/xlink" xml:space="preserve" xmlns:serif="http://www.serif.com/" style="fill-rule:evenodd;clip-rule:evenodd;stroke-linejoin:round;stroke-miterlimit:2;">
    <g id="Artboard1" transform="matrix(1,0,0,1,0.661672,1.38109)">
        <rect x="-0.662" y="-1.381" width="999.621" height="883.324" style="fill:none;"/>
        <g id="Analytics" transform="matrix(14.6533,0,0,14.6533,-4585.37,-93602.3)">
            <path d="M373.899,6410.24L373.899,6445.63L320.236,6445.63L320.236,6437.37C319.852,6437.43 318.505,6437.45 318.236,6437.42L318.236,6447.63L375.899,6447.63L375.899,6410.28C375.614,6410.32 374.267,6410.3 373.899,6410.24ZM322.054,6436.2L322.054,6444.09L324.021,6444.09L324.021,6436.2L322.054,6436.2ZM354.088,6432.24L354.088,6444.09L356.056,6444.09L356.056,6432.24L354.088,6432.24ZM358.092,6430.16L358.092,6444.09L360.06,6444.09L360.06,6430.16L358.092,6430.16ZM350.083,6429.34L350.083,6444.09L352.051,6444.09L352.051,6429.34L350.083,6429.34ZM326.058,6428.16L326.058,6444.09L328.026,6444.09L328.026,6428.16L326.058,6428.16ZM330.062,6424.02L330.062,6444.09L332.03,6444.09L332.03,6424.02L330.062,6424.02ZM346.079,6422.05L346.079,6444.09L348.047,6444.09L348.047,6422.05L346.079,6422.05ZM362.096,6421.01L362.096,6444.09L364.064,6444.09L364.064,6421.01L362.096,6421.01ZM334.066,6420.11L334.066,6444.09L336.034,6444.09L336.034,6420.11L334.066,6420.11ZM342.075,6418.03L342.075,6444.09L344.043,6444.09L344.043,6418.03L342.075,6418.03ZM366.101,6416.94L366.101,6444.09L368.069,6444.09L368.069,6416.94L366.101,6416.94ZM338.071,6416.37L338.071,6444.09L340.039,6444.09L340.039,6416.37L338.071,6416.37ZM370.105,6412.92L370.105,6444.09L372.073,6444.09L372.073,6412.92L370.105,6412.92ZM370.441,6407.19L358.389,6418.95C357.426,6418.29 356.26,6417.9 355.006,6417.9C353.611,6417.9 352.327,6418.38 351.309,6419.18L345.192,6413.09C345.762,6412.17 346.091,6411.09 346.091,6409.94C346.091,6406.63 343.409,6403.95 340.106,6403.95C336.803,6403.95 334.121,6406.63 334.121,6409.94C334.121,6411.11 334.461,6412.21 335.047,6413.14L322.555,6425.63C321.571,6424.92 320.362,6424.5 319.057,6424.5C315.753,6424.5 313.072,6427.18 313.072,6430.48C313.072,6433.79 315.753,6436.47 319.057,6436.47C322.36,6436.47 325.042,6433.79 325.042,6430.48C325.042,6429.21 324.642,6428.02 323.96,6427.05L336.386,6414.62C337.408,6415.44 338.701,6415.92 340.106,6415.92C341.53,6415.92 342.838,6415.42 343.866,6414.59L349.963,6420.66C349.367,6421.59 349.02,6422.7 349.02,6423.89C349.02,6427.19 351.702,6429.87 355.006,6429.87C358.309,6429.87 360.991,6427.19 360.991,6423.89C360.991,6422.56 360.558,6421.33 359.827,6420.34L371.971,6408.49C372.866,6409.03 373.912,6409.34 375.029,6409.34C378.332,6409.34 381.014,6406.65 381.014,6403.35C381.014,6400.05 378.332,6397.36 375.029,6397.36C371.726,6397.36 369.044,6400.05 369.044,6403.35C369.044,6404.81 369.569,6406.15 370.441,6407.19ZM319.057,6426.5C321.256,6426.5 323.042,6428.28 323.042,6430.48C323.042,6432.68 321.256,6434.47 319.057,6434.47C316.857,6434.47 315.072,6432.68 315.072,6430.48C315.072,6428.28 316.857,6426.5 319.057,6426.5ZM355.006,6419.9C357.205,6419.9 358.991,6421.69 358.991,6423.89C358.991,6426.09 357.205,6427.87 355.006,6427.87C352.806,6427.87 351.02,6426.09 351.02,6423.89C351.02,6421.69 352.806,6419.9 355.006,6419.9ZM375.899,6396.42L375.899,6388.08L318.236,6388.08L318.236,6423.55C318.505,6423.51 319.852,6423.53 320.236,6423.6L320.236,6390.08L373.899,6390.08L373.899,6396.46C374.267,6396.4 375.614,6396.38 375.899,6396.42ZM340.106,6405.95C342.305,6405.95 344.091,6407.74 344.091,6409.94C344.091,6412.14 342.305,6413.92 340.106,6413.92C337.906,6413.92 336.121,6412.14 336.121,6409.94C336.121,6407.74 337.906,6405.95 340.106,6405.95ZM375.029,6399.36C377.229,6399.36 379.014,6401.15 379.014,6403.35C379.014,6405.55 377.229,6407.34 375.029,6407.34C372.83,6407.34 371.044,6405.55 371.044,6403.35C371.044,6401.15 372.83,6399.36 375.029,6399.36ZM326.051,6398.03L323.908,6398.03L323.908,6400L326.051,6400L326.051,6398.03ZM357.975,6398.03L328.029,6398.03L328.029,6400L357.975,6400L357.975,6398.03ZM326.051,6393.99L323.908,6393.99L323.908,6395.96L326.051,6395.96L326.051,6393.99ZM340.044,6393.99L328.029,6393.99L328.029,6395.96L340.044,6395.96L340.044,6393.99ZM367.995,6393.99L342.062,6393.99L342.062,6395.96L367.995,6395.96L367.995,6393.99Z"/>
        </g>
    </g>
</svg>
