<?xml version="1.0" encoding="UTF-8"?>
<svg id="Layer_1" data-name="Layer 1" xmlns="http://www.w3.org/2000/svg" viewBox="0 0 430.31 431.07">
  <defs>
    <style>
      .cls-1 {
        fill: #2a3039;
      }
    </style>
  </defs>
  <g>
    <circle class="cls-1" cx="2.96" cy="2.96" r="2.96"/>
    <circle class="cls-1" cx="27.92" cy="3.38" r="2.96"/>
    <circle class="cls-1" cx="52.89" cy="2.96" r="2.96"/>
    <circle class="cls-1" cx="77.85" cy="3.38" r="2.96"/>
    <circle class="cls-1" cx="102.82" cy="2.96" r="2.96"/>
    <circle class="cls-1" cx="127.78" cy="3.38" r="2.96"/>
    <circle class="cls-1" cx="152.74" cy="2.96" r="2.96"/>
    <circle class="cls-1" cx="177.71" cy="3.38" r="2.96"/>
    <circle class="cls-1" cx="202.67" cy="2.96" r="2.96"/>
    <circle class="cls-1" cx="227.64" cy="3.38" r="2.96"/>
    <circle class="cls-1" cx="252.6" cy="2.96" r="2.96"/>
    <circle class="cls-1" cx="277.57" cy="3.38" r="2.96"/>
    <circle class="cls-1" cx="302.53" cy="2.96" r="2.96"/>
    <circle class="cls-1" cx="327.49" cy="3.38" r="2.96"/>
    <circle class="cls-1" cx="352.46" cy="2.96" r="2.96"/>
    <circle class="cls-1" cx="377.42" cy="3.38" r="2.96"/>
    <circle class="cls-1" cx="402.39" cy="2.96" r="2.96"/>
    <circle class="cls-1" cx="427.35" cy="3.38" r="2.96"/>
  </g>
  <g>
    <circle class="cls-1" cx="2.96" cy="27.94" r="2.96"/>
    <circle class="cls-1" cx="27.92" cy="28.36" r="2.96"/>
    <circle class="cls-1" cx="52.89" cy="27.94" r="2.96"/>
    <circle class="cls-1" cx="77.85" cy="28.36" r="2.96"/>
    <circle class="cls-1" cx="102.82" cy="27.94" r="2.96"/>
    <circle class="cls-1" cx="127.78" cy="28.36" r="2.96"/>
    <circle class="cls-1" cx="152.74" cy="27.94" r="2.96"/>
    <circle class="cls-1" cx="177.71" cy="28.36" r="2.96"/>
    <circle class="cls-1" cx="202.67" cy="27.94" r="2.96"/>
    <circle class="cls-1" cx="227.64" cy="28.36" r="2.96"/>
    <circle class="cls-1" cx="252.6" cy="27.94" r="2.96"/>
    <circle class="cls-1" cx="277.57" cy="28.36" r="2.96"/>
    <circle class="cls-1" cx="302.53" cy="27.94" r="2.96"/>
    <circle class="cls-1" cx="327.49" cy="28.36" r="2.96"/>
    <circle class="cls-1" cx="352.46" cy="27.94" r="2.96"/>
    <circle class="cls-1" cx="377.42" cy="28.36" r="2.96"/>
    <circle class="cls-1" cx="402.39" cy="27.94" r="2.96"/>
    <circle class="cls-1" cx="427.35" cy="28.36" r="2.96"/>
  </g>
  <g>
    <circle class="cls-1" cx="2.96" cy="52.93" r="2.96"/>
    <circle class="cls-1" cx="27.92" cy="53.35" r="2.96"/>
    <circle class="cls-1" cx="52.89" cy="52.93" r="2.96"/>
    <circle class="cls-1" cx="77.85" cy="53.35" r="2.96"/>
    <circle class="cls-1" cx="102.82" cy="52.93" r="2.96"/>
    <circle class="cls-1" cx="127.78" cy="53.35" r="2.96"/>
    <circle class="cls-1" cx="152.74" cy="52.93" r="2.96"/>
    <circle class="cls-1" cx="177.71" cy="53.35" r="2.96"/>
    <circle class="cls-1" cx="202.67" cy="52.93" r="2.96"/>
    <circle class="cls-1" cx="227.64" cy="53.35" r="2.96"/>
    <circle class="cls-1" cx="252.6" cy="52.93" r="2.96"/>
    <circle class="cls-1" cx="277.57" cy="53.35" r="2.96"/>
    <circle class="cls-1" cx="302.53" cy="52.93" r="2.96"/>
    <circle class="cls-1" cx="327.49" cy="53.35" r="2.96"/>
    <circle class="cls-1" cx="352.46" cy="52.93" r="2.96"/>
    <circle class="cls-1" cx="377.42" cy="53.35" r="2.96"/>
    <circle class="cls-1" cx="402.39" cy="52.93" r="2.96"/>
    <circle class="cls-1" cx="427.35" cy="53.35" r="2.96"/>
  </g>
  <g>
    <circle class="cls-1" cx="2.96" cy="77.91" r="2.96"/>
    <circle class="cls-1" cx="27.92" cy="78.33" r="2.96"/>
    <circle class="cls-1" cx="52.89" cy="77.91" r="2.96"/>
    <circle class="cls-1" cx="77.85" cy="78.33" r="2.96"/>
    <circle class="cls-1" cx="102.82" cy="77.91" r="2.96"/>
    <circle class="cls-1" cx="127.78" cy="78.33" r="2.96"/>
    <circle class="cls-1" cx="152.74" cy="77.91" r="2.96"/>
    <circle class="cls-1" cx="177.71" cy="78.33" r="2.96"/>
    <circle class="cls-1" cx="202.67" cy="77.91" r="2.96"/>
    <circle class="cls-1" cx="227.64" cy="78.33" r="2.96"/>
    <circle class="cls-1" cx="252.6" cy="77.91" r="2.96"/>
    <circle class="cls-1" cx="277.57" cy="78.33" r="2.96"/>
    <circle class="cls-1" cx="302.53" cy="77.91" r="2.96"/>
    <circle class="cls-1" cx="327.49" cy="78.33" r="2.96"/>
    <circle class="cls-1" cx="352.46" cy="77.91" r="2.96"/>
    <circle class="cls-1" cx="377.42" cy="78.33" r="2.96"/>
    <circle class="cls-1" cx="402.39" cy="77.91" r="2.96"/>
    <circle class="cls-1" cx="427.35" cy="78.33" r="2.96"/>
  </g>
  <g>
    <circle class="cls-1" cx="2.96" cy="102.89" r="2.96"/>
    <circle class="cls-1" cx="27.92" cy="103.32" r="2.96"/>
    <circle class="cls-1" cx="52.89" cy="102.89" r="2.96"/>
    <circle class="cls-1" cx="77.85" cy="103.32" r="2.96"/>
    <circle class="cls-1" cx="102.82" cy="102.89" r="2.96"/>
    <circle class="cls-1" cx="127.78" cy="103.32" r="2.96"/>
    <circle class="cls-1" cx="152.74" cy="102.89" r="2.96"/>
    <circle class="cls-1" cx="177.71" cy="103.32" r="2.96"/>
    <circle class="cls-1" cx="202.67" cy="102.89" r="2.96"/>
    <circle class="cls-1" cx="227.64" cy="103.32" r="2.96"/>
    <circle class="cls-1" cx="252.6" cy="102.89" r="2.96"/>
    <circle class="cls-1" cx="277.57" cy="103.32" r="2.96"/>
    <circle class="cls-1" cx="302.53" cy="102.89" r="2.96"/>
    <circle class="cls-1" cx="327.49" cy="103.32" r="2.96"/>
    <circle class="cls-1" cx="352.46" cy="102.89" r="2.96"/>
    <circle class="cls-1" cx="377.42" cy="103.32" r="2.96"/>
    <circle class="cls-1" cx="402.39" cy="102.89" r="2.96"/>
    <circle class="cls-1" cx="427.35" cy="103.32" r="2.96"/>
  </g>
  <g>
    <circle class="cls-1" cx="2.96" cy="127.88" r="2.96"/>
    <circle class="cls-1" cx="27.92" cy="128.3" r="2.96"/>
    <circle class="cls-1" cx="52.89" cy="127.88" r="2.96"/>
    <circle class="cls-1" cx="77.85" cy="128.3" r="2.96"/>
    <circle class="cls-1" cx="102.82" cy="127.88" r="2.96"/>
    <circle class="cls-1" cx="127.78" cy="128.3" r="2.96"/>
    <circle class="cls-1" cx="152.74" cy="127.88" r="2.96"/>
    <circle class="cls-1" cx="177.71" cy="128.3" r="2.96"/>
    <circle class="cls-1" cx="202.67" cy="127.88" r="2.96"/>
    <circle class="cls-1" cx="227.64" cy="128.3" r="2.96"/>
    <circle class="cls-1" cx="252.6" cy="127.88" r="2.96"/>
    <circle class="cls-1" cx="277.57" cy="128.3" r="2.96"/>
    <circle class="cls-1" cx="302.53" cy="127.88" r="2.96"/>
    <circle class="cls-1" cx="327.49" cy="128.3" r="2.96"/>
    <circle class="cls-1" cx="352.46" cy="127.88" r="2.96"/>
    <circle class="cls-1" cx="377.42" cy="128.3" r="2.96"/>
    <circle class="cls-1" cx="402.39" cy="127.88" r="2.96"/>
    <circle class="cls-1" cx="427.35" cy="128.3" r="2.96"/>
  </g>
  <g>
    <circle class="cls-1" cx="2.96" cy="152.86" r="2.96"/>
    <circle class="cls-1" cx="27.92" cy="153.29" r="2.96"/>
    <circle class="cls-1" cx="52.89" cy="152.86" r="2.96"/>
    <circle class="cls-1" cx="77.85" cy="153.29" r="2.96"/>
    <circle class="cls-1" cx="102.82" cy="152.86" r="2.96"/>
    <circle class="cls-1" cx="127.78" cy="153.29" r="2.96"/>
    <circle class="cls-1" cx="152.74" cy="152.86" r="2.96"/>
    <circle class="cls-1" cx="177.71" cy="153.29" r="2.96"/>
    <circle class="cls-1" cx="202.67" cy="152.86" r="2.96"/>
    <circle class="cls-1" cx="227.64" cy="153.29" r="2.96"/>
    <circle class="cls-1" cx="252.6" cy="152.86" r="2.96"/>
    <circle class="cls-1" cx="277.57" cy="153.29" r="2.96"/>
    <circle class="cls-1" cx="302.53" cy="152.86" r="2.96"/>
    <circle class="cls-1" cx="327.49" cy="153.29" r="2.96"/>
    <circle class="cls-1" cx="352.46" cy="152.86" r="2.96"/>
    <circle class="cls-1" cx="377.42" cy="153.29" r="2.96"/>
    <circle class="cls-1" cx="402.39" cy="152.86" r="2.96"/>
    <circle class="cls-1" cx="427.35" cy="153.29" r="2.96"/>
  </g>
  <g>
    <circle class="cls-1" cx="2.96" cy="177.85" r="2.96"/>
    <circle class="cls-1" cx="27.92" cy="178.27" r="2.96"/>
    <circle class="cls-1" cx="52.89" cy="177.85" r="2.96"/>
    <circle class="cls-1" cx="77.85" cy="178.27" r="2.96"/>
    <circle class="cls-1" cx="102.82" cy="177.85" r="2.96"/>
    <circle class="cls-1" cx="127.78" cy="178.27" r="2.96"/>
    <circle class="cls-1" cx="152.74" cy="177.85" r="2.96"/>
    <circle class="cls-1" cx="177.71" cy="178.27" r="2.96"/>
    <circle class="cls-1" cx="202.67" cy="177.85" r="2.96"/>
    <circle class="cls-1" cx="227.64" cy="178.27" r="2.96"/>
    <circle class="cls-1" cx="252.6" cy="177.85" r="2.96"/>
    <circle class="cls-1" cx="277.57" cy="178.27" r="2.96"/>
    <circle class="cls-1" cx="302.53" cy="177.85" r="2.96"/>
    <circle class="cls-1" cx="327.49" cy="178.27" r="2.96"/>
    <circle class="cls-1" cx="352.46" cy="177.85" r="2.96"/>
    <circle class="cls-1" cx="377.42" cy="178.27" r="2.96"/>
    <circle class="cls-1" cx="402.39" cy="177.85" r="2.96"/>
    <circle class="cls-1" cx="427.35" cy="178.27" r="2.96"/>
  </g>
  <g>
    <circle class="cls-1" cx="2.96" cy="202.83" r="2.96"/>
    <circle class="cls-1" cx="27.92" cy="203.25" r="2.96"/>
    <circle class="cls-1" cx="52.89" cy="202.83" r="2.96"/>
    <circle class="cls-1" cx="77.85" cy="203.25" r="2.96"/>
    <circle class="cls-1" cx="102.82" cy="202.83" r="2.96"/>
    <circle class="cls-1" cx="127.78" cy="203.25" r="2.96"/>
    <circle class="cls-1" cx="152.74" cy="202.83" r="2.96"/>
    <circle class="cls-1" cx="177.71" cy="203.25" r="2.96"/>
    <circle class="cls-1" cx="202.67" cy="202.83" r="2.96"/>
    <circle class="cls-1" cx="227.64" cy="203.25" r="2.96"/>
    <circle class="cls-1" cx="252.6" cy="202.83" r="2.96"/>
    <circle class="cls-1" cx="277.57" cy="203.25" r="2.96"/>
    <circle class="cls-1" cx="302.53" cy="202.83" r="2.96"/>
    <circle class="cls-1" cx="327.49" cy="203.25" r="2.96"/>
    <circle class="cls-1" cx="352.46" cy="202.83" r="2.96"/>
    <circle class="cls-1" cx="377.42" cy="203.25" r="2.96"/>
    <circle class="cls-1" cx="402.39" cy="202.83" r="2.96"/>
    <circle class="cls-1" cx="427.35" cy="203.25" r="2.96"/>
  </g>
  <g>
    <circle class="cls-1" cx="2.96" cy="227.82" r="2.96"/>
    <circle class="cls-1" cx="27.92" cy="228.24" r="2.96"/>
    <circle class="cls-1" cx="52.89" cy="227.82" r="2.96"/>
    <circle class="cls-1" cx="77.85" cy="228.24" r="2.96"/>
    <circle class="cls-1" cx="102.82" cy="227.82" r="2.96"/>
    <circle class="cls-1" cx="127.78" cy="228.24" r="2.96"/>
    <circle class="cls-1" cx="152.74" cy="227.82" r="2.96"/>
    <circle class="cls-1" cx="177.71" cy="228.24" r="2.96"/>
    <circle class="cls-1" cx="202.67" cy="227.82" r="2.96"/>
    <circle class="cls-1" cx="227.64" cy="228.24" r="2.96"/>
    <circle class="cls-1" cx="252.6" cy="227.82" r="2.96"/>
    <circle class="cls-1" cx="277.57" cy="228.24" r="2.96"/>
    <circle class="cls-1" cx="302.53" cy="227.82" r="2.96"/>
    <circle class="cls-1" cx="327.49" cy="228.24" r="2.96"/>
    <circle class="cls-1" cx="352.46" cy="227.82" r="2.96"/>
    <circle class="cls-1" cx="377.42" cy="228.24" r="2.96"/>
    <circle class="cls-1" cx="402.39" cy="227.82" r="2.96"/>
    <circle class="cls-1" cx="427.35" cy="228.24" r="2.96"/>
  </g>
  <g>
    <circle class="cls-1" cx="2.96" cy="252.8" r="2.96"/>
    <circle class="cls-1" cx="27.92" cy="253.22" r="2.96"/>
    <circle class="cls-1" cx="52.89" cy="252.8" r="2.96"/>
    <circle class="cls-1" cx="77.85" cy="253.22" r="2.96"/>
    <circle class="cls-1" cx="102.82" cy="252.8" r="2.96"/>
    <circle class="cls-1" cx="127.78" cy="253.22" r="2.96"/>
    <circle class="cls-1" cx="152.74" cy="252.8" r="2.96"/>
    <circle class="cls-1" cx="177.71" cy="253.22" r="2.96"/>
    <circle class="cls-1" cx="202.67" cy="252.8" r="2.96"/>
    <circle class="cls-1" cx="227.64" cy="253.22" r="2.96"/>
    <circle class="cls-1" cx="252.6" cy="252.8" r="2.96"/>
    <circle class="cls-1" cx="277.57" cy="253.22" r="2.96"/>
    <circle class="cls-1" cx="302.53" cy="252.8" r="2.96"/>
    <circle class="cls-1" cx="327.49" cy="253.22" r="2.96"/>
    <circle class="cls-1" cx="352.46" cy="252.8" r="2.96"/>
    <circle class="cls-1" cx="377.42" cy="253.22" r="2.96"/>
    <circle class="cls-1" cx="402.39" cy="252.8" r="2.96"/>
    <circle class="cls-1" cx="427.35" cy="253.22" r="2.96"/>
  </g>
  <g>
    <circle class="cls-1" cx="2.96" cy="277.78" r="2.96"/>
    <circle class="cls-1" cx="27.92" cy="278.21" r="2.96"/>
    <circle class="cls-1" cx="52.89" cy="277.78" r="2.96"/>
    <circle class="cls-1" cx="77.85" cy="278.21" r="2.96"/>
    <circle class="cls-1" cx="102.82" cy="277.78" r="2.96"/>
    <circle class="cls-1" cx="127.78" cy="278.21" r="2.96"/>
    <circle class="cls-1" cx="152.74" cy="277.78" r="2.96"/>
    <circle class="cls-1" cx="177.71" cy="278.21" r="2.96"/>
    <circle class="cls-1" cx="202.67" cy="277.78" r="2.96"/>
    <circle class="cls-1" cx="227.64" cy="278.21" r="2.96"/>
    <circle class="cls-1" cx="252.6" cy="277.78" r="2.96"/>
    <circle class="cls-1" cx="277.57" cy="278.21" r="2.96"/>
    <circle class="cls-1" cx="302.53" cy="277.78" r="2.96"/>
    <circle class="cls-1" cx="327.49" cy="278.21" r="2.96"/>
    <circle class="cls-1" cx="352.46" cy="277.78" r="2.96"/>
    <circle class="cls-1" cx="377.42" cy="278.21" r="2.96"/>
    <circle class="cls-1" cx="402.39" cy="277.78" r="2.96"/>
    <circle class="cls-1" cx="427.35" cy="278.21" r="2.96"/>
  </g>
  <g>
    <circle class="cls-1" cx="2.96" cy="302.77" r="2.96"/>
    <circle class="cls-1" cx="27.92" cy="303.19" r="2.96"/>
    <circle class="cls-1" cx="52.89" cy="302.77" r="2.96"/>
    <circle class="cls-1" cx="77.85" cy="303.19" r="2.96"/>
    <circle class="cls-1" cx="102.82" cy="302.77" r="2.96"/>
    <circle class="cls-1" cx="127.78" cy="303.19" r="2.96"/>
    <circle class="cls-1" cx="152.74" cy="302.77" r="2.96"/>
    <circle class="cls-1" cx="177.71" cy="303.19" r="2.96"/>
    <circle class="cls-1" cx="202.67" cy="302.77" r="2.96"/>
    <circle class="cls-1" cx="227.64" cy="303.19" r="2.96"/>
    <circle class="cls-1" cx="252.6" cy="302.77" r="2.96"/>
    <circle class="cls-1" cx="277.57" cy="303.19" r="2.96"/>
    <circle class="cls-1" cx="302.53" cy="302.77" r="2.96"/>
    <circle class="cls-1" cx="327.49" cy="303.19" r="2.96"/>
    <circle class="cls-1" cx="352.46" cy="302.77" r="2.96"/>
    <circle class="cls-1" cx="377.42" cy="303.19" r="2.96"/>
    <circle class="cls-1" cx="402.39" cy="302.77" r="2.96"/>
    <circle class="cls-1" cx="427.35" cy="303.19" r="2.96"/>
  </g>
  <g>
    <circle class="cls-1" cx="2.96" cy="327.75" r="2.96"/>
    <circle class="cls-1" cx="27.92" cy="328.17" r="2.96"/>
    <circle class="cls-1" cx="52.89" cy="327.75" r="2.96"/>
    <circle class="cls-1" cx="77.85" cy="328.17" r="2.96"/>
    <circle class="cls-1" cx="102.82" cy="327.75" r="2.96"/>
    <circle class="cls-1" cx="127.78" cy="328.17" r="2.96"/>
    <circle class="cls-1" cx="152.74" cy="327.75" r="2.96"/>
    <circle class="cls-1" cx="177.71" cy="328.17" r="2.96"/>
    <circle class="cls-1" cx="202.67" cy="327.75" r="2.96"/>
    <circle class="cls-1" cx="227.64" cy="328.17" r="2.96"/>
    <circle class="cls-1" cx="252.6" cy="327.75" r="2.96"/>
    <circle class="cls-1" cx="277.57" cy="328.17" r="2.96"/>
    <circle class="cls-1" cx="302.53" cy="327.75" r="2.96"/>
    <circle class="cls-1" cx="327.49" cy="328.17" r="2.96"/>
    <circle class="cls-1" cx="352.46" cy="327.75" r="2.96"/>
    <circle class="cls-1" cx="377.42" cy="328.17" r="2.96"/>
    <circle class="cls-1" cx="402.39" cy="327.75" r="2.96"/>
    <circle class="cls-1" cx="427.35" cy="328.17" r="2.96"/>
  </g>
  <g>
    <circle class="cls-1" cx="2.96" cy="352.74" r="2.96"/>
    <circle class="cls-1" cx="27.92" cy="353.16" r="2.96"/>
    <circle class="cls-1" cx="52.89" cy="352.74" r="2.96"/>
    <circle class="cls-1" cx="77.85" cy="353.16" r="2.96"/>
    <circle class="cls-1" cx="102.82" cy="352.74" r="2.96"/>
    <circle class="cls-1" cx="127.78" cy="353.16" r="2.96"/>
    <circle class="cls-1" cx="152.74" cy="352.74" r="2.96"/>
    <circle class="cls-1" cx="177.71" cy="353.16" r="2.96"/>
    <circle class="cls-1" cx="202.67" cy="352.74" r="2.96"/>
    <circle class="cls-1" cx="227.64" cy="353.16" r="2.96"/>
    <circle class="cls-1" cx="252.6" cy="352.74" r="2.96"/>
    <circle class="cls-1" cx="277.57" cy="353.16" r="2.96"/>
    <circle class="cls-1" cx="302.53" cy="352.74" r="2.96"/>
    <circle class="cls-1" cx="327.49" cy="353.16" r="2.96"/>
    <circle class="cls-1" cx="352.46" cy="352.74" r="2.96"/>
    <circle class="cls-1" cx="377.42" cy="353.16" r="2.96"/>
    <circle class="cls-1" cx="402.39" cy="352.74" r="2.96"/>
    <circle class="cls-1" cx="427.35" cy="353.16" r="2.96"/>
  </g>
  <g>
    <circle class="cls-1" cx="2.96" cy="377.72" r="2.96"/>
    <circle class="cls-1" cx="27.92" cy="378.14" r="2.96"/>
    <circle class="cls-1" cx="52.89" cy="377.72" r="2.96"/>
    <circle class="cls-1" cx="77.85" cy="378.14" r="2.96"/>
    <circle class="cls-1" cx="102.82" cy="377.72" r="2.96"/>
    <circle class="cls-1" cx="127.78" cy="378.14" r="2.96"/>
    <circle class="cls-1" cx="152.74" cy="377.72" r="2.96"/>
    <circle class="cls-1" cx="177.71" cy="378.14" r="2.96"/>
    <circle class="cls-1" cx="202.67" cy="377.72" r="2.96"/>
    <circle class="cls-1" cx="227.64" cy="378.14" r="2.96"/>
    <circle class="cls-1" cx="252.6" cy="377.72" r="2.96"/>
    <circle class="cls-1" cx="277.57" cy="378.14" r="2.96"/>
    <circle class="cls-1" cx="302.53" cy="377.72" r="2.96"/>
    <circle class="cls-1" cx="327.49" cy="378.14" r="2.96"/>
    <circle class="cls-1" cx="352.46" cy="377.72" r="2.96"/>
    <circle class="cls-1" cx="377.42" cy="378.14" r="2.96"/>
    <circle class="cls-1" cx="402.39" cy="377.72" r="2.96"/>
    <circle class="cls-1" cx="427.35" cy="378.14" r="2.96"/>
  </g>
  <g>
    <circle class="cls-1" cx="2.96" cy="402.71" r="2.96"/>
    <circle class="cls-1" cx="27.92" cy="403.13" r="2.96"/>
    <circle class="cls-1" cx="52.89" cy="402.71" r="2.96"/>
    <circle class="cls-1" cx="77.85" cy="403.13" r="2.96"/>
    <circle class="cls-1" cx="102.82" cy="402.71" r="2.96"/>
    <circle class="cls-1" cx="127.78" cy="403.13" r="2.96"/>
    <circle class="cls-1" cx="152.74" cy="402.71" r="2.96"/>
    <circle class="cls-1" cx="177.71" cy="403.13" r="2.96"/>
    <circle class="cls-1" cx="202.67" cy="402.71" r="2.96"/>
    <circle class="cls-1" cx="227.64" cy="403.13" r="2.96"/>
    <circle class="cls-1" cx="252.6" cy="402.71" r="2.96"/>
    <circle class="cls-1" cx="277.57" cy="403.13" r="2.96"/>
    <circle class="cls-1" cx="302.53" cy="402.71" r="2.96"/>
    <circle class="cls-1" cx="327.49" cy="403.13" r="2.96"/>
    <circle class="cls-1" cx="352.46" cy="402.71" r="2.96"/>
    <circle class="cls-1" cx="377.42" cy="403.13" r="2.96"/>
    <circle class="cls-1" cx="402.39" cy="402.71" r="2.96"/>
    <circle class="cls-1" cx="427.35" cy="403.13" r="2.96"/>
  </g>
  <g>
    <circle class="cls-1" cx="2.96" cy="427.69" r="2.96"/>
    <circle class="cls-1" cx="27.92" cy="428.11" r="2.96"/>
    <circle class="cls-1" cx="52.89" cy="427.69" r="2.96"/>
    <circle class="cls-1" cx="77.85" cy="428.11" r="2.96"/>
    <circle class="cls-1" cx="102.82" cy="427.69" r="2.96"/>
    <circle class="cls-1" cx="127.78" cy="428.11" r="2.96"/>
    <circle class="cls-1" cx="152.74" cy="427.69" r="2.96"/>
    <circle class="cls-1" cx="177.71" cy="428.11" r="2.96"/>
    <circle class="cls-1" cx="202.67" cy="427.69" r="2.96"/>
    <circle class="cls-1" cx="227.64" cy="428.11" r="2.96"/>
    <circle class="cls-1" cx="252.6" cy="427.69" r="2.96"/>
    <circle class="cls-1" cx="277.57" cy="428.11" r="2.96"/>
    <circle class="cls-1" cx="302.53" cy="427.69" r="2.96"/>
    <circle class="cls-1" cx="327.49" cy="428.11" r="2.96"/>
    <circle class="cls-1" cx="352.46" cy="427.69" r="2.96"/>
    <circle class="cls-1" cx="377.42" cy="428.11" r="2.96"/>
    <circle class="cls-1" cx="402.39" cy="427.69" r="2.96"/>
    <circle class="cls-1" cx="427.35" cy="428.11" r="2.96"/>
  </g>
</svg>