<?xml version="1.0" encoding="UTF-8" standalone="no"?>
<!DOCTYPE svg PUBLIC "-//W3C//DTD SVG 1.1//EN" "http://www.w3.org/Graphics/SVG/1.1/DTD/svg11.dtd">
<svg width="100%" height="100%" viewBox="0 0 1000 1000" version="1.1" xmlns="http://www.w3.org/2000/svg" xmlns:xlink="http://www.w3.org/1999/xlink" xml:space="preserve" xmlns:serif="http://www.serif.com/" style="fill-rule:evenodd;clip-rule:evenodd;stroke-linejoin:round;stroke-miterlimit:2;">
    <g transform="matrix(2.44,0,0,2.44,4.17728,65.6897)">
        <g transform="matrix(3.85321,3.85132,-3.17303,3.17459,14116.3,-19167.6)">
            <path d="M700.128,5250.6L698.664,5250.6C697.902,5250.6 697.283,5251.22 697.283,5251.98L697.283,5255.89L696.899,5255.89C695.683,5255.89 694.695,5256.88 694.695,5258.09C694.695,5258.09 694.695,5290.74 694.695,5290.74C694.695,5291.96 695.683,5292.95 696.899,5292.95L711.164,5292.95C712.38,5292.95 713.368,5291.96 713.368,5290.74L713.368,5258.09C713.368,5256.88 712.38,5255.89 711.164,5255.89L710.78,5255.89L710.78,5251.98C710.78,5251.22 710.161,5250.6 709.398,5250.6L708.445,5250.6L708.445,5203.18L709.841,5202.16C710.151,5201.94 710.305,5201.55 710.236,5201.18L707.73,5187.36C707.644,5186.88 707.229,5186.54 706.746,5186.54L702.218,5186.54C701.744,5186.54 701.336,5186.87 701.239,5187.33L698.342,5201.15C698.26,5201.54 698.417,5201.94 698.742,5202.17L700.128,5203.15L700.128,5250.6ZM711.164,5257.89L696.899,5257.89C696.786,5257.89 696.695,5257.98 696.695,5258.09L696.695,5290.74C696.695,5290.86 696.786,5290.95 696.899,5290.95C696.899,5290.95 711.164,5290.95 711.164,5290.95C711.276,5290.95 711.368,5290.86 711.368,5290.74L711.368,5258.09C711.368,5257.98 711.276,5257.89 711.164,5257.89ZM699.933,5261.13L699.933,5288.45L701.933,5288.45L701.933,5261.13L699.933,5261.13ZM706.129,5261.13L706.129,5288.45L708.129,5288.45L708.129,5261.13L706.129,5261.13ZM708.78,5255.89L708.78,5252.6L699.283,5252.6L699.283,5255.89L708.78,5255.89ZM706.445,5203.14L706.445,5250.39L702.128,5250.39L702.128,5203.15C702.214,5202.97 702.247,5202.77 702.22,5202.57C702.183,5202.3 702.034,5202.06 701.809,5201.9L700.434,5200.92C700.434,5200.92 703.03,5188.54 703.03,5188.54C703.03,5188.54 705.911,5188.54 705.911,5188.54C705.911,5188.54 708.156,5200.91 708.156,5200.91C708.156,5200.91 706.771,5201.92 706.771,5201.92C706.383,5202.2 706.258,5202.71 706.445,5203.14Z"/>
        </g>
        <g transform="matrix(5.65167,0,0,5.65167,-4047.65,-29545.4)">
            <path d="M761.312,5260.63L770.137,5269.45C773.387,5269.06 776.976,5270.24 779.681,5272.95C783.027,5276.29 784.036,5280.99 782.634,5284.73C782.514,5285.05 782.241,5285.29 781.909,5285.36C781.577,5285.43 781.23,5285.33 780.99,5285.09C780.99,5285.09 776.134,5280.23 776.134,5280.23C776.134,5280.23 772.827,5283.54 772.827,5283.54C772.827,5283.54 777.683,5288.4 777.683,5288.4C777.923,5288.64 778.025,5288.98 777.953,5289.32C777.881,5289.65 777.645,5289.92 777.326,5290.04C773.58,5291.44 768.885,5290.43 765.539,5287.09C762.834,5284.38 761.655,5280.8 762.044,5277.55L753.221,5268.72L754.635,5267.31L763.813,5276.49C764.043,5276.72 764.147,5277.04 764.091,5277.36C763.604,5280.16 764.597,5283.32 766.953,5285.67C769.245,5287.97 772.296,5288.97 775.032,5288.57L775.031,5288.57L770.706,5284.25C770.315,5283.86 770.315,5283.23 770.706,5282.84L775.427,5278.11C775.818,5277.72 776.451,5277.72 776.841,5278.11C776.841,5278.11 781.167,5282.44 781.167,5282.44C781.563,5279.7 780.559,5276.65 778.267,5274.36C775.91,5272 772.754,5271.01 769.957,5271.5C769.636,5271.56 769.308,5271.45 769.078,5271.22L759.899,5262.04L761.312,5260.63ZM742.616,5258.12L734.088,5249.59C730.838,5249.98 727.249,5248.8 724.544,5246.09C721.199,5242.75 720.19,5238.05 721.592,5234.31C721.711,5233.99 721.984,5233.75 722.316,5233.68C722.649,5233.61 722.995,5233.71 723.235,5233.95C723.235,5233.95 729.309,5240.02 729.309,5240.02C729.309,5240.02 732.616,5236.72 732.616,5236.72L726.543,5230.64C726.302,5230.4 726.2,5230.06 726.273,5229.72C726.345,5229.39 726.581,5229.12 726.899,5229C730.645,5227.6 735.341,5228.61 738.687,5231.95C741.391,5234.66 742.571,5238.24 742.181,5241.49L751.047,5250.36L749.633,5251.78L740.412,5242.56C740.182,5242.32 740.078,5242 740.134,5241.68C740.621,5238.88 739.629,5235.72 737.272,5233.37C734.98,5231.07 731.929,5230.07 729.194,5230.47L734.737,5236.01C735.128,5236.4 735.128,5237.03 734.737,5237.42C734.737,5237.42 730.016,5242.15 730.016,5242.15C729.626,5242.54 728.992,5242.54 728.602,5242.15C728.602,5242.15 723.059,5236.6 723.059,5236.6C722.662,5239.34 723.666,5242.39 725.959,5244.68C728.315,5247.04 731.471,5248.03 734.268,5247.54C734.589,5247.49 734.917,5247.59 735.147,5247.82L744.369,5257.04L743.122,5258.29C742.955,5258.22 742.786,5258.16 742.616,5258.12Z"/>
        </g>
    </g>
</svg>
