<svg width="157" height="64" viewBox="0 0 157 64" fill="none" xmlns="http://www.w3.org/2000/svg">
<path d="M67.4292 26.2048C66.7855 24.5216 65.4596 23.0208 63.8504 21.936C59.1968 18.9984 52.1102 18.7904 47.315 21.4464C44.7018 22.7712 42.9832 25.3952 42.449 28.096C41.4803 32.5344 41.7281 37.8112 45.1684 41.1392C49.1784 44.6336 55.0131 45.4048 60.2009 43.9712C60.4487 43.9232 61.2276 43.728 61.7682 43.4432L61.9195 43.3792C63.5318 42.7136 65.0669 41.6288 66.2159 40.16C68.8581 36.3072 69.0383 30.5408 67.4292 26.2048ZM58.9812 36.1696C58.7978 37.0112 58.2281 37.8816 57.3302 38.1984C55.9013 38.8224 53.9671 38.6496 52.6444 37.92C51.5341 37.1488 51.3925 35.856 51.2477 34.6336C51.1383 32.224 50.9645 29.6704 51.6436 27.4656C52.1746 26.0992 53.6453 25.7504 54.9712 25.6448C56.3648 25.6448 57.7229 25.856 58.5854 26.976C59.1228 27.7792 59.0874 28.8288 59.1936 29.7728C59.1582 31.7632 59.3384 34.1376 58.9812 36.1696ZM16.5644 38.3392C15.3833 38.2688 14.0574 38.3712 12.9149 38.2304L12.9503 25.952L13.0211 25.8496L16.5644 25.8144C16.5998 23.8208 16.6352 21.6832 16.529 19.8688L3.03805 19.8336L0.817448 19.872C0.782047 21.7248 0.782047 23.8912 0.817448 25.7792C2.03395 25.8176 3.17966 25.7792 4.36076 25.888V37.7792L4.32536 38.2688L0.782047 38.3392C0.708027 40.2624 0.708027 42.1856 0.782047 44.1088H16.5677L16.5644 38.3392ZM56.294 46.7328C54.791 48.8672 52.8955 50.9312 50.8229 52.5344C50.7489 52.6432 50.5333 52.6016 50.4657 52.5024C49.5678 51.9456 48.6023 51.488 47.743 50.9312C48.8887 49.568 49.999 48.2048 50.8583 46.6944H49.7448C48.8565 47.9936 47.9232 49.3568 46.7421 50.5056C45.1652 49.8784 43.7363 49.3184 42.1239 48.896L41.9437 48.7616C42.1947 48.0544 42.6582 47.392 42.7998 46.6912H41.8343L40.8688 48.5824C38.7608 48.128 36.4308 47.8816 34.2842 47.744C34.1748 47.4304 34.3164 46.976 34.1748 46.6944H33.2447C33.1707 47.1136 33.3509 47.4336 33.1385 47.7824C30.9179 47.8848 28.7713 48.1312 26.6988 48.5536L25.7301 46.6944C25.3761 46.6944 24.977 46.6272 24.7292 46.7328L25.6206 48.7968L25.5144 48.8992C23.9117 49.36 22.3316 49.9104 20.79 50.544L20.6484 50.4736C19.6443 49.3888 18.6788 48.2048 17.8904 47.0144C17.7134 46.416 16.9957 46.7648 16.6031 46.6944C17.4591 48.2368 18.608 49.5968 19.7505 50.9984C18.785 51.5584 17.8228 52.1856 16.8155 52.6432C14.627 50.9856 12.7186 48.9888 11.161 46.7328C10.7297 46.6656 10.4465 46.6944 10.0153 46.7328C12.5931 50.72 16.6031 54.2144 20.79 56.2784C20.79 56.2784 20.79 56.2464 20.8286 56.2464C20.8576 56.2464 20.9316 56.3104 20.8576 56.3488C23.6865 57.712 26.6955 58.6912 29.8784 59.1136C40.8688 60.5472 51.3571 55.8976 57.4364 46.7328C57.0567 46.6944 56.6737 46.6944 56.294 46.7328ZM41.3708 49.8784L41.4771 49.808C43.0218 50.1568 44.4861 50.6464 45.8442 51.312C44.6985 52.6016 43.231 53.7248 41.8729 54.6688C41.0522 55.1552 40.2251 55.6864 39.3659 56.1024L37.8307 55.4368L37.937 55.1936C39.2243 53.4816 40.37 51.7312 41.3708 49.8784ZM34.3164 48.8288C36.3568 48.8672 38.4004 49.0752 40.2927 49.5296L40.3313 49.6352C39.3305 51.5232 38.0753 53.344 36.7172 55.0528C36.1058 55.1232 35.5361 54.8832 34.9279 54.8448L34.3164 54.7744C34.2456 52.7104 34.2102 50.8928 34.3164 48.8288ZM27.4132 49.4592C29.2734 49.1104 31.2076 48.8288 33.2093 48.8288L33.2447 54.7456C32.4916 54.9152 31.6678 54.9152 30.9533 55.0944C29.4858 53.376 28.2693 51.5232 27.233 49.5968L27.4132 49.4592ZM21.6461 51.3472C23.046 50.6816 24.5103 50.1888 26.0133 49.8048L26.1581 49.84C27.1944 51.7632 28.4849 53.5808 29.7722 55.3984C29.2766 55.68 28.6619 55.8496 28.1631 56.1344C25.7429 54.944 23.5416 53.36 21.6461 51.4464V51.3472ZM26.2675 57.328C23.2617 56.5568 20.465 55.2288 17.8904 53.4112V53.3024C18.7496 52.784 19.6121 52.2208 20.539 51.8336C22.5794 53.8336 24.6906 55.3376 26.982 56.768C26.8017 56.976 26.5153 57.1872 26.2675 57.328ZM39.5429 57.7792C35.7485 58.5888 31.5229 58.6208 27.7318 57.712C27.661 57.5392 27.912 57.5008 28.0182 57.3984C31.3459 55.264 36.5338 55.264 39.7939 57.568C39.9033 57.7792 39.6169 57.712 39.5429 57.7792ZM42.98 56.8032L41.2968 57.3248C41.0104 57.184 40.7594 56.976 40.5084 56.7648L40.5792 56.6592C42.8706 55.3344 44.9463 53.7216 46.9159 51.7984C47.8814 52.1824 48.8147 52.7104 49.674 53.3024C47.6722 54.8832 45.3422 55.9296 42.98 56.8032ZM11.0902 17.1776C11.9752 15.9584 12.9439 14.8032 13.9898 13.7152C14.9167 12.8416 15.7792 12.0032 16.7833 11.3696C17.7134 11.9648 18.7496 12.4576 19.6443 13.0144C18.534 14.3712 17.3883 15.7408 16.5677 17.2064C16.8155 17.3152 17.2853 17.28 17.6426 17.2064C18.5372 15.9136 19.4995 14.6208 20.6484 13.4656C22.1835 14.0256 23.6897 14.6208 25.2666 15.04L25.405 15.1776L24.5136 17.2032C24.9094 17.2768 25.1604 17.2416 25.5498 17.2032C25.8717 16.6112 26.1195 15.9488 26.4767 15.3504C28.5557 15.808 30.7409 16.0512 32.9583 16.1184C33.2415 16.368 33.0291 16.8896 33.1353 17.2032H34.1008C34.207 16.8608 34.0654 16.4704 34.207 16.16C36.286 16.0512 38.468 15.84 40.4794 15.3504L40.6532 15.3856L41.6187 17.2C41.9405 17.2 42.3717 17.2736 42.6195 17.1296L41.7216 15.1072L41.7957 15.0368C43.4402 14.6176 44.9817 13.9872 46.5555 13.36C47.669 14.5152 48.7021 15.8784 49.6386 17.2032C50.0312 17.2032 50.4238 17.2416 50.7103 17.1328C50.2694 16.352 49.7512 15.616 49.1687 14.9312C48.6956 14.2624 48.1678 13.632 47.5918 13.0464V12.864L50.0988 11.4336L50.4592 11.2928C52.638 12.9344 54.5464 14.9024 56.1105 17.1296C56.5385 17.1296 56.899 17.2768 57.2594 17.1008C52.4578 9.97122 44.5505 5.38562 35.9996 4.72642L35.9609 4.79362L35.8869 4.72642C34.9214 4.62402 33.7371 4.58242 32.7008 4.68482C32.3082 4.65602 31.8448 4.68482 31.3781 4.72642C22.7886 5.38562 14.8813 9.76002 9.93802 17.2064C10.3017 17.1776 10.7297 17.3184 11.0902 17.1776ZM25.9457 14.1056L25.8041 14.1344C24.3333 13.7536 22.9012 13.296 21.5399 12.7008L21.6075 12.4896C23.577 10.6368 25.6528 9.09762 27.941 7.91042C28.4817 8.12162 29.0159 8.29442 29.5534 8.54082L29.4472 8.81282C28.0891 10.5024 27.0174 12.3168 25.9457 14.1056ZM33.0645 15.0464C32.0636 15.1872 31.1689 15.0144 30.1648 14.9376C29.2026 14.7968 27.9828 14.6944 27.0174 14.3776C28.0569 12.464 29.2734 10.6048 30.7409 8.89602L33.0323 9.20642C33.1385 11.0208 33.0645 13.12 33.0645 15.0464ZM34.1748 15.0848C34.104 13.2256 34.1426 11.1648 34.1748 9.24162C34.8925 9.13922 35.6777 9.03042 36.3954 8.92802C37.7921 10.6752 39.1535 12.464 40.0868 14.3776C38.1494 14.8416 36.1669 15.0784 34.1748 15.0848ZM45.5964 12.6304C44.1965 13.2224 42.7644 13.7824 41.2292 14.1024C40.1189 12.2496 38.9024 10.3968 37.5411 8.60482C38.0432 8.32962 38.6546 8.12162 39.1889 7.84322C41.5189 8.99522 43.7717 10.6368 45.6672 12.5216L45.5964 12.6304ZM41.0104 6.65282C44.0163 7.42402 46.8451 8.75202 49.423 10.5696L49.3521 10.7104L46.8837 12.0736H46.7003C44.8047 10.192 42.5873 8.54722 40.3313 7.25122C40.4054 7.00162 40.7626 6.82562 41.0104 6.65282ZM39.5815 6.30082V6.37442C36.4662 8.60802 31.42 8.81602 28.1277 6.75522C27.9442 6.61442 27.5902 6.54722 27.5516 6.30402C31.3492 5.43042 35.8193 5.36002 39.5815 6.30082ZM17.7455 10.64C20.0015 8.99842 22.5054 7.77282 25.1572 6.93442C25.2666 6.82562 25.3342 6.72322 25.4758 6.72322V6.79362C25.7622 6.86082 25.9779 6.54402 26.2289 6.75202C26.4445 6.93442 26.6988 7.07202 26.8758 7.24482C24.6584 8.60482 22.4732 10.2176 20.4682 12.1728C19.5027 11.8304 18.6113 11.3024 17.7488 10.7072L17.7455 10.64ZM33.1031 38.6144C29.74 39.5264 26.0873 38.832 23.6543 36.3072C23.3679 35.9584 23.1876 35.5392 22.9012 35.1936L18.0706 35.2256C17.9933 38.0576 17.9612 41.312 18.0706 44.1088L23.4387 44.0736L23.5095 42.3936C24.1209 42.672 24.7292 43.0208 25.3374 43.3344C29.061 44.8768 33.853 45.2256 37.5379 43.3344C40.2251 41.8688 41.6573 39.0368 41.2614 35.9904C40.8688 33.0208 38.0045 30.3264 35.1081 29.5936L26.4445 27.1072L25.8041 26.7904C25.5177 26.5472 25.3374 26.2336 25.4082 25.8464C26.0873 24.6944 27.6642 25.0464 28.8453 25.0752C31.3492 25.4272 33.927 26.2656 35.3945 28.5408C36.9683 28.5408 38.793 28.5696 40.5084 28.5056C40.5824 25.6384 40.4794 23.1232 40.4375 20.2176C38.8284 20.1824 36.8588 20.1824 35.2497 20.2528C35.1789 20.6688 35.3173 21.2608 35.1403 21.6832L33.4957 20.8096C29.5566 19.168 24.0437 18.9952 20.465 21.5488C18.1382 23.2288 17.4237 26.24 18.032 28.896C18.4954 31.4112 20.9284 33.264 23.2552 34.1376C26.4413 35.2544 29.769 36.064 32.9937 37.1488C33.3123 37.2896 33.7435 37.6064 33.6727 37.9904C33.676 38.3008 33.3509 38.48 33.1031 38.6144Z" fill="#2A3039"/>
<path d="M74.6992 4.61108H77.2481V16.8191H74.6992V4.61108Z" fill="#2A3039"/>
<path d="M84.0933 15.0529C84.6984 15.0529 85.1908 14.9857 85.5673 14.8545C86.285 14.6017 86.6422 14.1281 86.6422 13.4369C86.6422 13.0337 86.4652 12.7233 86.108 12.5025C85.754 12.2881 85.194 12.0961 84.4345 11.9297L83.1343 11.6385C81.8567 11.3505 80.9748 11.0401 80.4857 10.7041C79.6586 10.1409 79.2434 9.2609 79.2434 8.0641C79.2434 6.9697 79.6425 6.0641 80.4438 5.3409C81.242 4.6177 82.4166 4.2561 83.9678 4.2561C85.2616 4.2561 86.3654 4.5985 87.2794 5.2801C88.1934 5.9617 88.6729 6.9505 88.7148 8.2497H86.2496C86.2045 7.5169 85.8827 6.9953 85.2841 6.6849C84.885 6.4801 84.3862 6.3777 83.794 6.3777C83.1343 6.3777 82.6065 6.5089 82.2107 6.7745C81.8148 7.0401 81.6185 7.4081 81.6185 7.8849C81.6185 8.3201 81.8116 8.6465 82.201 8.8609C82.452 9.0049 82.983 9.1713 83.8005 9.3665L85.9149 9.8721C86.8417 10.0929 87.5401 10.3873 88.0132 10.7585C88.747 11.3313 89.1138 12.1633 89.1138 13.2513C89.1138 14.3681 88.6858 15.2929 87.8265 16.0289C86.9673 16.7649 85.7572 17.1361 84.1899 17.1361C82.5904 17.1361 81.3321 16.7745 80.4181 16.0481C79.5009 15.3217 79.0439 14.3233 79.0439 13.0529H81.493C81.5702 13.6097 81.7247 14.0289 81.95 14.3041C82.3684 14.8001 83.0828 15.0529 84.0933 15.0529Z" fill="#2A3039"/>
<path d="M96.4451 17.1552C94.6911 17.1552 93.3491 16.6816 92.4222 15.7312C91.18 14.5664 90.5556 12.8896 90.5556 10.6976C90.5556 8.46079 91.1768 6.78399 92.4222 5.66399C93.3491 4.71359 94.6911 4.23999 96.4451 4.23999C98.199 4.23999 99.541 4.71359 100.468 5.66399C101.707 6.78399 102.325 8.46399 102.325 10.6976C102.325 12.8896 101.707 14.5664 100.468 15.7312C99.5378 16.6816 98.199 17.1552 96.4451 17.1552ZM98.8684 13.8752C99.4638 13.1296 99.7599 12.0704 99.7599 10.6944C99.7599 9.32479 99.4606 8.26559 98.8652 7.51999C98.2698 6.77439 97.4588 6.39999 96.4451 6.39999C95.4313 6.39999 94.6171 6.77439 94.0121 7.51679C93.407 8.26239 93.1045 9.32159 93.1045 10.6976C93.1045 12.0736 93.407 13.1328 94.0121 13.8784C94.6171 14.624 95.4281 14.9952 96.4451 14.9952C97.462 14.9952 98.2666 14.6208 98.8684 13.8752Z" fill="#2A3039"/>
<path d="M112.15 17.1649C111.246 17.1649 110.432 16.8993 109.711 16.3649C108.99 15.8305 108.575 15.0561 108.469 14.0321H110.834C110.889 14.3841 111.04 14.6721 111.284 14.8929C111.529 15.1137 111.854 15.2257 112.26 15.2257C113.042 15.2257 113.592 14.7937 113.907 13.9329C114.078 13.4593 114.187 12.7649 114.232 11.8529C114.017 12.1249 113.785 12.3297 113.54 12.4737C113.096 12.7393 112.549 12.8705 111.899 12.8705C110.94 12.8705 110.087 12.5409 109.344 11.8817C108.6 11.2225 108.227 10.2721 108.227 9.0273C108.227 7.7409 108.6 6.6977 109.347 5.9009C110.094 5.1041 111.062 4.7041 112.256 4.7041C114.094 4.7041 115.356 5.5137 116.038 7.1297C116.427 8.0449 116.62 9.2513 116.62 10.7489C116.62 12.2017 116.434 13.4113 116.064 14.3841C115.356 16.2401 114.049 17.1649 112.15 17.1649ZM111.32 7.0209C110.863 7.3729 110.638 7.9745 110.638 8.8193C110.638 9.5329 110.782 10.0641 111.075 10.4225C111.368 10.7777 111.816 10.9569 112.421 10.9569C112.749 10.9569 113.058 10.8641 113.344 10.6753C113.882 10.3329 114.152 9.7409 114.152 8.8961C114.152 8.2177 113.991 7.6801 113.672 7.2801C113.354 6.8801 112.916 6.6849 112.359 6.6849C111.954 6.6817 111.606 6.7937 111.32 7.0209Z" fill="#2A3039"/>
<path d="M121.905 17.1135C120.366 17.1135 119.288 16.5791 118.67 15.5071C118.053 14.4351 117.74 12.9087 117.74 10.9279C117.74 8.94714 118.049 7.41754 118.67 6.33914C119.288 5.26074 120.366 4.72314 121.905 4.72314C123.443 4.72314 124.521 5.26074 125.146 6.33914C125.763 7.41434 126.069 8.94394 126.069 10.9279C126.069 12.9087 125.76 14.4351 125.139 15.5071C124.521 16.5791 123.443 17.1135 121.905 17.1135ZM123.295 14.0927C123.511 13.3631 123.62 12.3103 123.62 10.9279C123.62 9.48154 123.511 8.40954 123.292 7.71514C123.073 7.02074 122.61 6.67194 121.905 6.67194C121.2 6.67194 120.733 7.02074 120.505 7.71514C120.276 8.40954 120.164 9.48154 120.164 10.9279C120.164 12.3071 120.276 13.3631 120.505 14.0959C120.733 14.8287 121.2 15.1935 121.905 15.1935C122.61 15.1935 123.073 14.8255 123.295 14.0927Z" fill="#2A3039"/>
<path d="M131.389 17.1135C129.851 17.1135 128.773 16.5791 128.155 15.5071C127.537 14.4351 127.225 12.9087 127.225 10.9279C127.225 8.94714 127.534 7.41754 128.155 6.33914C128.773 5.26074 129.851 4.72314 131.389 4.72314C132.927 4.72314 134.005 5.26074 134.63 6.33914C135.248 7.41434 135.553 8.94394 135.553 10.9279C135.553 12.9087 135.245 14.4351 134.623 15.5071C134.005 16.5791 132.927 17.1135 131.389 17.1135ZM132.783 14.0927C132.998 13.3631 133.108 12.3103 133.108 10.9279C133.108 9.48154 132.998 8.40954 132.779 7.71514C132.56 7.02074 132.097 6.67194 131.392 6.67194C130.687 6.67194 130.221 7.02074 129.992 7.71514C129.764 8.40954 129.651 9.48154 129.651 10.9279C129.651 12.3071 129.764 13.3631 129.992 14.0959C130.221 14.8287 130.687 15.1935 131.392 15.1935C132.094 15.1935 132.56 14.8255 132.783 14.0927Z" fill="#2A3039"/>
<path d="M142.634 16.816H140.201V8.5344H137.362V6.928C138.112 6.896 138.637 6.8448 138.936 6.7776C139.412 6.672 139.802 6.464 140.101 6.1472C140.307 5.9328 140.461 5.6448 140.568 5.2864C140.629 5.072 140.658 4.912 140.658 4.8064H142.63V16.816H142.634Z" fill="#2A3039"/>
<path d="M74.6992 24.9631H77.2481V37.1711H74.6992V24.9631Z" fill="#2A3039"/>
<path d="M84.0933 35.4047C84.6984 35.4047 85.1908 35.3375 85.5673 35.2063C86.285 34.9535 86.6422 34.4799 86.6422 33.7887C86.6422 33.3855 86.4652 33.0751 86.108 32.8543C85.754 32.6399 85.194 32.4479 84.4345 32.2815L83.1343 31.9903C81.8567 31.7023 80.9748 31.3919 80.4857 31.0559C79.6586 30.4927 79.2434 29.6127 79.2434 28.4159C79.2434 27.3215 79.6425 26.4159 80.4438 25.6927C81.242 24.9695 82.4166 24.6079 83.9678 24.6079C85.2616 24.6079 86.3654 24.9503 87.2794 25.6319C88.1934 26.3135 88.6729 27.3023 88.7148 28.6015H86.2496C86.2045 27.8687 85.8827 27.3471 85.2841 27.0367C84.885 26.8319 84.3862 26.7295 83.794 26.7295C83.1343 26.7295 82.6065 26.8607 82.2107 27.1263C81.8148 27.3919 81.6185 27.7599 81.6185 28.2367C81.6185 28.6719 81.8116 28.9983 82.201 29.2127C82.452 29.3567 82.983 29.5231 83.8005 29.7183L85.9149 30.2239C86.8417 30.4447 87.5401 30.7391 88.0132 31.1103C88.747 31.6831 89.1138 32.5151 89.1138 33.6031C89.1138 34.7199 88.6858 35.6447 87.8265 36.3807C86.9673 37.1167 85.7572 37.4879 84.1899 37.4879C82.5904 37.4879 81.3321 37.1263 80.4181 36.3999C79.5009 35.6735 79.0439 34.6751 79.0439 33.4047H81.493C81.5702 33.9615 81.7247 34.3807 81.95 34.6559C82.3684 35.1519 83.0828 35.4047 84.0933 35.4047Z" fill="#2A3039"/>
<path d="M96.4451 37.5072C94.6911 37.5072 93.3491 37.0336 92.4222 36.0832C91.18 34.9184 90.5556 33.2416 90.5556 31.0496C90.5556 28.8128 91.1768 27.136 92.4222 26.016C93.3491 25.0656 94.6911 24.592 96.4451 24.592C98.199 24.592 99.541 25.0656 100.468 26.016C101.707 27.136 102.325 28.816 102.325 31.0496C102.325 33.2416 101.707 34.9184 100.468 36.0832C99.5378 37.0336 98.199 37.5072 96.4451 37.5072ZM98.8684 34.2272C99.4638 33.4816 99.7599 32.4224 99.7599 31.0464C99.7599 29.6768 99.4606 28.6176 98.8652 27.872C98.2698 27.1264 97.462 26.7488 96.4451 26.7488C95.4281 26.7488 94.6171 27.1232 94.0121 27.8656C93.407 28.6112 93.1045 29.6704 93.1045 31.0464C93.1045 32.4224 93.407 33.4816 94.0121 34.2272C94.6171 34.9728 95.4281 35.344 96.4451 35.344C97.462 35.344 98.2666 34.9728 98.8684 34.2272Z" fill="#2A3039"/>
<path d="M113.65 27.6032C113.367 27.2672 112.961 27.0976 112.433 27.0976C111.713 27.0976 111.22 27.3664 110.959 27.9008C110.808 28.2112 110.721 28.7008 110.692 29.376H108.385C108.423 28.3552 108.61 27.5296 108.942 26.8992C109.576 25.7024 110.699 25.1008 112.314 25.1008C113.592 25.1008 114.606 25.4528 115.362 26.1568C116.118 26.8608 116.495 27.792 116.495 28.9504C116.495 29.84 116.228 30.6304 115.697 31.3184C115.346 31.776 114.773 32.288 113.972 32.8512L113.022 33.5232C112.427 33.9424 112.021 34.2464 111.803 34.4352C111.584 34.624 111.4 34.8416 111.249 35.088H116.521V37.168H108.25C108.272 36.3072 108.459 35.52 108.806 34.8064C109.144 34.0064 109.946 33.1584 111.204 32.2624C112.298 31.4848 113.006 30.928 113.328 30.5888C113.824 30.064 114.068 29.4912 114.068 28.8672C114.075 28.3616 113.933 27.9392 113.65 27.6032Z" fill="#2A3039"/>
<path d="M121.905 37.4656C120.366 37.4656 119.288 36.9312 118.67 35.8592C118.053 34.7872 117.74 33.2608 117.74 31.28C117.74 29.2992 118.049 27.7696 118.67 26.6912C119.288 25.6128 120.366 25.0752 121.905 25.0752C123.443 25.0752 124.521 25.6128 125.146 26.6912C125.763 27.7664 126.069 29.296 126.069 31.28C126.069 33.2608 125.76 34.7872 125.139 35.8592C124.521 36.9312 123.443 37.4656 121.905 37.4656ZM123.295 34.4448C123.511 33.7152 123.62 32.6624 123.62 31.28C123.62 29.8336 123.511 28.7616 123.292 28.0672C123.073 27.3728 122.61 27.024 121.905 27.024C121.2 27.024 120.733 27.3728 120.505 28.0672C120.276 28.7616 120.164 29.8336 120.164 31.28C120.164 32.6592 120.276 33.7152 120.505 34.448C120.733 35.1808 121.2 35.5456 121.905 35.5456C122.61 35.5456 123.073 35.1776 123.295 34.4448Z" fill="#2A3039"/>
<path d="M131.389 37.4656C129.851 37.4656 128.773 36.9312 128.155 35.8592C127.537 34.7872 127.225 33.2608 127.225 31.28C127.225 29.2992 127.534 27.7696 128.155 26.6912C128.773 25.6128 129.851 25.0752 131.389 25.0752C132.927 25.0752 134.005 25.6128 134.63 26.6912C135.248 27.7664 135.553 29.296 135.553 31.28C135.553 33.2608 135.245 34.7872 134.623 35.8592C134.005 36.9312 132.927 37.4656 131.389 37.4656ZM132.783 34.4448C132.998 33.7152 133.108 32.6624 133.108 31.28C133.108 29.8336 132.998 28.7616 132.779 28.0672C132.56 27.3728 132.097 27.024 131.392 27.024C130.687 27.024 130.221 27.3728 129.992 28.0672C129.764 28.7616 129.651 29.8336 129.651 31.28C129.651 32.6592 129.764 33.7152 129.992 34.448C130.221 35.1808 130.687 35.5456 131.392 35.5456C132.094 35.5456 132.56 35.1776 132.783 34.4448Z" fill="#2A3039"/>
<path d="M140.876 37.4656C139.338 37.4656 138.26 36.9312 137.642 35.8592C137.024 34.7872 136.712 33.2608 136.712 31.28C136.712 29.2992 137.021 27.7696 137.642 26.6912C138.26 25.6128 139.338 25.0752 140.876 25.0752C142.415 25.0752 143.493 25.6128 144.117 26.6912C144.735 27.7664 145.041 29.296 145.041 31.28C145.041 33.2608 144.732 34.7872 144.111 35.8592C143.493 36.9312 142.415 37.4656 140.876 37.4656ZM142.267 34.4448C142.482 33.7152 142.592 32.6624 142.592 31.28C142.592 29.8336 142.482 28.7616 142.264 28.0672C142.045 27.3728 141.581 27.024 140.876 27.024C140.172 27.024 139.705 27.3728 139.477 28.0672C139.248 28.7616 139.135 29.8336 139.135 31.28C139.135 32.6592 139.248 33.7152 139.477 34.448C139.705 35.1808 140.172 35.5456 140.876 35.5456C141.581 35.5456 142.045 35.1776 142.267 34.4448Z" fill="#2A3039"/>
<path d="M150.364 37.4656C148.826 37.4656 147.747 36.9312 147.13 35.8592C146.512 34.7872 146.199 33.2608 146.199 31.28C146.199 29.2992 146.508 27.7696 147.13 26.6912C147.747 25.6128 148.826 25.0752 150.364 25.0752C151.902 25.0752 152.98 25.6128 153.605 26.6912C154.223 27.7664 154.528 29.296 154.528 31.28C154.528 33.2608 154.219 34.7872 153.598 35.8592C152.98 36.9312 151.899 37.4656 150.364 37.4656ZM151.754 34.4448C151.97 33.7152 152.079 32.6624 152.079 31.28C152.079 29.8336 151.97 28.7616 151.751 28.0672C151.532 27.3728 151.069 27.024 150.364 27.024C149.659 27.024 149.192 27.3728 148.964 28.0672C148.735 28.7616 148.623 29.8336 148.623 31.28C148.623 32.6592 148.735 33.7152 148.964 34.448C149.192 35.1808 149.659 35.5456 150.364 35.5456C151.069 35.5456 151.532 35.1776 151.754 34.4448Z" fill="#2A3039"/>
<path d="M74.6992 45.3152H77.2481V57.5232H74.6992V45.3152Z" fill="#2A3039"/>
<path d="M84.0933 55.7568C84.6984 55.7568 85.1908 55.6896 85.5673 55.5584C86.285 55.3056 86.6422 54.832 86.6422 54.1408C86.6422 53.7376 86.4652 53.4272 86.108 53.2064C85.754 52.992 85.194 52.8 84.4345 52.6336L83.1343 52.3424C81.8567 52.0544 80.9748 51.744 80.4857 51.408C79.6586 50.8448 79.2434 49.9648 79.2434 48.768C79.2434 47.6736 79.6425 46.768 80.4438 46.0448C81.242 45.3216 82.4166 44.96 83.9678 44.96C85.2616 44.96 86.3654 45.3024 87.2794 45.984C88.1934 46.6656 88.6729 47.6544 88.7148 48.9536H86.2496C86.2045 48.2208 85.8827 47.6992 85.2841 47.3888C84.885 47.184 84.3862 47.0816 83.794 47.0816C83.1343 47.0816 82.6065 47.2128 82.2107 47.4784C81.8148 47.744 81.6185 48.112 81.6185 48.5888C81.6185 49.024 81.8116 49.3504 82.201 49.5648C82.452 49.7088 82.983 49.8752 83.8005 50.0704L85.9149 50.576C86.8417 50.7968 87.5401 51.0912 88.0132 51.4624C88.747 52.0352 89.1138 52.8672 89.1138 53.9552C89.1138 55.072 88.6858 55.9968 87.8265 56.7328C86.9673 57.4688 85.7572 57.84 84.1899 57.84C82.5904 57.84 81.3321 57.4784 80.4181 56.752C79.5009 56.0256 79.0439 55.0272 79.0439 53.7568H81.493C81.5702 54.3136 81.7247 54.7328 81.95 55.008C82.3684 55.504 83.0828 55.7568 84.0933 55.7568Z" fill="#2A3039"/>
<path d="M96.4451 57.8593C94.6911 57.8593 93.3491 57.3857 92.4222 56.4353C91.18 55.2705 90.5556 53.5937 90.5556 51.4017C90.5556 49.1649 91.1768 47.4881 92.4222 46.3681C93.3491 45.4177 94.6911 44.9441 96.4451 44.9441C98.199 44.9441 99.541 45.4177 100.468 46.3681C101.707 47.4881 102.325 49.1681 102.325 51.4017C102.325 53.5937 101.707 55.2705 100.468 56.4353C99.5378 57.3857 98.199 57.8593 96.4451 57.8593ZM98.8684 54.5793C99.4638 53.8337 99.7599 52.7745 99.7599 51.3985C99.7599 50.0289 99.4606 48.9697 98.8652 48.2241C98.2698 47.4785 97.462 47.1009 96.4451 47.1009C95.4281 47.1009 94.6171 47.4753 94.0121 48.2177C93.407 48.9633 93.1045 50.0225 93.1045 51.3985C93.1045 52.7745 93.407 53.8337 94.0121 54.5793C94.6171 55.3249 95.4281 55.6961 96.4451 55.6961C97.462 55.6961 98.2666 55.3249 98.8684 54.5793Z" fill="#2A3039"/>
<path d="M113.65 47.9553C113.367 47.6193 112.961 47.4497 112.433 47.4497C111.713 47.4497 111.22 47.7185 110.959 48.2529C110.808 48.5633 110.721 49.0529 110.692 49.7281H108.385C108.423 48.7073 108.61 47.8817 108.942 47.2513C109.576 46.0545 110.699 45.4529 112.314 45.4529C113.592 45.4529 114.606 45.8049 115.362 46.5089C116.118 47.2129 116.495 48.1441 116.495 49.3025C116.495 50.1921 116.228 50.9825 115.697 51.6705C115.346 52.1281 114.773 52.6401 113.972 53.2033L113.022 53.8753C112.427 54.2945 112.021 54.5985 111.803 54.7873C111.584 54.9761 111.4 55.1937 111.249 55.4401H116.521V57.5201H108.25C108.272 56.6593 108.459 55.8721 108.806 55.1585C109.144 54.3585 109.946 53.5105 111.204 52.6145C112.298 51.8369 113.006 51.2801 113.328 50.9409C113.824 50.4161 114.068 49.8433 114.068 49.2193C114.075 48.7137 113.933 48.2913 113.65 47.9553Z" fill="#2A3039"/>
<path d="M124.718 49.3728C124.084 50.2656 123.556 51.1904 123.128 52.1376C122.79 52.8832 122.484 53.7952 122.211 54.8704C121.937 55.9456 121.802 56.8288 121.802 57.52H119.337C119.407 55.3664 120.119 53.1296 121.467 50.8032C122.339 49.3632 123.07 48.3584 123.659 47.7888H117.637L117.67 45.6704H126.198V47.5168C125.847 47.8656 125.352 48.4832 124.718 49.3728Z" fill="#2A3039"/>
<path d="M131.389 57.8176C129.851 57.8176 128.773 57.2832 128.155 56.2112C127.537 55.1392 127.225 53.6128 127.225 51.632C127.225 49.6512 127.534 48.1216 128.155 47.0432C128.773 45.9648 129.851 45.4272 131.389 45.4272C132.927 45.4272 134.005 45.9648 134.63 47.0432C135.248 48.1184 135.553 49.648 135.553 51.632C135.553 53.6128 135.245 55.1392 134.623 56.2112C134.005 57.2832 132.927 57.8176 131.389 57.8176ZM132.783 54.7968C132.998 54.0672 133.108 53.0144 133.108 51.632C133.108 50.1856 132.998 49.1136 132.779 48.4192C132.56 47.7248 132.097 47.376 131.392 47.376C130.687 47.376 130.221 47.7248 129.992 48.4192C129.764 49.1136 129.651 50.1856 129.651 51.632C129.651 53.0112 129.764 54.0672 129.992 54.8C130.221 55.5328 130.687 55.8976 131.392 55.8976C132.094 55.8976 132.56 55.5296 132.783 54.7968Z" fill="#2A3039"/>
<path d="M140.876 57.8176C139.338 57.8176 138.26 57.2832 137.642 56.2112C137.024 55.1392 136.712 53.6128 136.712 51.632C136.712 49.6512 137.021 48.1216 137.642 47.0432C138.26 45.9648 139.338 45.4272 140.876 45.4272C142.415 45.4272 143.493 45.9648 144.117 47.0432C144.735 48.1184 145.041 49.648 145.041 51.632C145.041 53.6128 144.732 55.1392 144.111 56.2112C143.493 57.2832 142.415 57.8176 140.876 57.8176ZM142.267 54.7968C142.482 54.0672 142.592 53.0144 142.592 51.632C142.592 50.1856 142.482 49.1136 142.264 48.4192C142.045 47.7248 141.581 47.376 140.876 47.376C140.172 47.376 139.705 47.7248 139.477 48.4192C139.248 49.1136 139.135 50.1856 139.135 51.632C139.135 53.0112 139.248 54.0672 139.477 54.8C139.705 55.5328 140.172 55.8976 140.876 55.8976C141.581 55.8976 142.045 55.5296 142.267 54.7968Z" fill="#2A3039"/>
<path d="M152.121 57.5201H149.688V49.2385H146.85V47.6321C147.599 47.6001 148.124 47.5489 148.423 47.4817C148.9 47.3761 149.289 47.1681 149.588 46.8513C149.794 46.6369 149.949 46.3489 150.055 45.9905C150.116 45.7761 150.145 45.6161 150.145 45.5105H152.118V57.5201H152.121Z" fill="#2A3039"/>
</svg>
