<?xml version="1.0" encoding="UTF-8"?>
<svg id="Layer_1" data-name="Layer 1" xmlns="http://www.w3.org/2000/svg" width="725" height="725" xmlns:xlink="http://www.w3.org/1999/xlink" viewBox="0 0 725 725">
  <defs>
    <clipPath id="clippath">
      <rect width="725" height="725" style="fill: none;"/>
    </clipPath>
    <pattern id="New_Pattern_Swatch_3" data-name="New Pattern Swatch 3" x="0" y="0" width="30" height="20" patternTransform="translate(-34 -11)" patternUnits="userSpaceOnUse" viewBox="0 0 30 20">
      <g>
        <rect width="30" height="20" style="fill: none;"/>
        <circle cx="30" cy="20" r="2.96" style="fill: #444b55;"/>
        <circle cx="0" cy="20" r="2.96" style="fill: #444b55;"/>
        <circle cx="30" cy="0" r="2.96" style="fill: #444b55;"/>
        <circle cx="15" cy="10" r="2.96" style="fill: #444b55;"/>
        <circle cx="0" cy="0" r="2.96" style="fill: #444b55;"/>
      </g>
    </pattern>
  </defs>
  <g style="clip-path: url(#clippath);">
    <g>
      <path d="m274.4,576.95h0c-7.16-11.74-22.63-15.48-34.36-8.31L-18.28,726.33c-11.74,7.16-15.48,22.63-8.31,34.36h0c7.16,11.74,22.63,15.48,34.36,8.31l258.31-157.69c11.74-7.16,15.48-22.63,8.31-34.36Z" style="fill: url(#New_Pattern_Swatch_3);"/>
      <path d="m287.29,569.09c7.16,11.74,22.63,15.48,34.36,8.31l106.4-64.95c11.74-7.16,15.48-22.63,8.31-34.36h0c-7.16-11.74-22.63-15.48-34.36-8.31l-106.4,64.95c-11.74,7.16-15.48,22.63-8.31,34.36h0Z" style="fill: url(#New_Pattern_Swatch_3);"/>
      <path d="m28.27,650.25c7.16,11.74,22.63,15.48,34.36,8.31l244.43-149.21c11.74-7.16,15.48-22.63,8.31-34.36-7.16-11.74-22.63-15.48-34.36-8.31l-244.43,149.21c-11.74,7.16-15.48,22.63-8.31,34.36Z" style="fill: url(#New_Pattern_Swatch_3);"/>
      <path d="m-9.3,627.13l106.4-64.95c11.74-7.16,15.48-22.63,8.31-34.36h0c-7.16-11.74-22.63-15.48-34.36-8.31l-106.4,64.95c-11.74,7.16-15.48,22.63-8.31,34.36h0c7.16,11.74,22.63,15.48,34.36,8.31Z" style="fill: url(#New_Pattern_Swatch_3);"/>
      <path d="m121.81,517.8c7.16,11.74,22.63,15.48,34.36,8.31l290.47-177.31c11.74-7.16,15.48-22.63,8.31-34.36-7.16-11.74-22.63-15.48-34.36-8.31l-290.47,177.31c-11.74,7.16-15.48,22.63-8.31,34.36h0Z" style="fill: url(#New_Pattern_Swatch_3);"/>
      <path d="m326.46,468.22h0c7.16,11.74,22.63,15.48,34.36,8.31l218-133.08c11.74-7.16,15.48-22.63,8.31-34.36-7.16-11.74-22.63-15.48-34.36-8.31l-218,133.08c-11.74,7.16-15.48,22.63-8.31,34.36Z" style="fill: url(#New_Pattern_Swatch_3);"/>
      <path d="m13.44,507.42h0c7.16,11.74,22.63,15.48,34.36,8.31l106.4-64.95c11.74-7.16,15.48-22.63,8.31-34.36-7.16-11.74-22.63-15.48-34.36-8.31l-106.4,64.95c-11.74,7.16-15.48,22.63-8.31,34.36Z" style="fill: url(#New_Pattern_Swatch_3);"/>
      <path d="m178.92,406.41h0c7.16,11.74,22.63,15.48,34.36,8.31l290.47-177.31c11.74-7.16,15.48-22.63,8.31-34.36h0c-7.16-11.74-22.63-15.48-34.36-8.31l-290.47,177.31c-11.74,7.16-15.48,22.63-8.31,34.36Z" style="fill: url(#New_Pattern_Swatch_3);"/>
      <path d="m601.78,652.46l-106.4,64.95c-11.74,7.16-15.48,22.63-8.31,34.36h0c7.16,11.74,22.63,15.48,34.36,8.31l106.4-64.95c11.74-7.16,15.48-22.63,8.31-34.36-7.16-11.74-22.63-15.48-34.36-8.31Z" style="fill: url(#New_Pattern_Swatch_3);"/>
      <path d="m480.78,649.37l-244.43,149.21c-11.74,7.16-15.48,22.63-8.31,34.36h0c7.16,11.74,22.63,15.48,34.36,8.31l244.43-149.21c11.74-7.16,15.48-22.63,8.31-34.36h0c-7.16-11.74-22.63-15.48-34.36-8.31Z" style="fill: url(#New_Pattern_Swatch_3);"/>
      <path d="m190.47,809.82l106.4-64.95c11.74-7.16,15.48-22.63,8.31-34.36h0c-7.16-11.74-22.63-15.48-34.36-8.31l-106.4,64.95c-11.74,7.16-15.48,22.63-8.31,34.36h0c7.16,11.74,22.63,15.48,34.36,8.31Z" style="fill: url(#New_Pattern_Swatch_3);"/>
      <path d="m654.73,497.13h0c-7.16-11.74-22.63-15.48-34.36-8.31l-290.47,177.31c-11.74,7.16-15.48,22.63-8.31,34.36h0c7.16,11.74,22.63,15.48,34.36,8.31l290.47-177.31c11.74-7.16,15.48-22.63,8.31-34.36Z" style="fill: url(#New_Pattern_Swatch_3);"/>
      <path d="m707.75,540.11c-7.16-11.74-22.63-15.48-34.36-8.31l-138.85,84.76c-11.74,7.16-15.48,22.63-8.31,34.36h0c7.16,11.74,22.63,15.48,34.36,8.31l138.85-84.76c11.74-7.16,15.48-22.63,8.31-34.36h0Z" style="fill: url(#New_Pattern_Swatch_3);"/>
      <path d="m213.21,690.12h0c7.16,11.74,22.63,15.48,34.36,8.31l106.4-64.95c11.74-7.16,15.48-22.63,8.31-34.36h0c-7.16-11.74-22.63-15.48-34.36-8.31l-106.4,64.95c-11.74,7.16-15.48,22.63-8.31,34.36Z" style="fill: url(#New_Pattern_Swatch_3);"/>
      <path d="m378.69,589.1h0c7.16,11.74,22.63,15.48,34.36,8.31l290.47-177.31c11.74-7.16,15.48-22.63,8.31-34.36h0c-7.16-11.74-22.63-15.48-34.36-8.31l-290.47,177.31c-11.74,7.16-15.48,22.63-8.31,34.36Z" style="fill: url(#New_Pattern_Swatch_3);"/>
      <path d="m70.1,394.93c7.16,11.74,22.63,15.48,34.36,8.31l258.31-157.68c11.74-7.16,15.48-22.63,8.31-34.36h0c-7.16-11.74-22.63-15.48-34.36-8.31L78.42,360.56c-11.74,7.16-15.48,22.63-8.31,34.36h0Z" style="fill: url(#New_Pattern_Swatch_3);"/>
      <path d="m57.21,402.8h0c-7.16-11.74-22.63-15.48-34.36-8.31l-106.4,64.95c-11.74,7.16-15.48,22.63-8.31,34.36,7.16,11.74,22.63,15.48,34.36,8.31l106.4-64.95c11.74-7.16,15.48-22.63,8.31-34.36Z" style="fill: url(#New_Pattern_Swatch_3);"/>
      <path d="m226.93,220.46c7.16,11.74,22.63,15.48,34.36,8.31l244.43-149.21c11.74-7.16,15.48-22.63,8.31-34.36-7.16-11.74-22.63-15.48-34.36-8.31l-244.43,149.21c-11.74,7.16-15.48,22.63-8.31,34.36Z" style="fill: url(#New_Pattern_Swatch_3);"/>
      <path d="m20.34,271.23h0c7.16,11.74,22.63,15.48,34.36,8.31L345.17,102.23c11.74-7.16,15.48-22.63,8.31-34.36h0c-7.16-11.74-22.63-15.48-34.36-8.31L28.65,236.87c-11.74,7.16-15.48,22.63-8.31,34.36Z" style="fill: url(#New_Pattern_Swatch_3);"/>
      <path d="m215.85,227.23h0c-7.16-11.74-22.63-15.48-34.36-8.31L-36.51,351.99c-11.74,7.16-15.48,22.63-8.31,34.36,7.16,11.74,22.63,15.48,34.36,8.31l218-133.08c11.74-7.16,15.48-22.63,8.31-34.36Z" style="fill: url(#New_Pattern_Swatch_3);"/>
      <path d="m-70.48,279.42L219.99,102.11c11.74-7.16,15.48-22.63,8.31-34.36-7.16-11.74-22.63-15.48-34.36-8.31L-96.53,236.74c-11.74,7.16-15.48,22.63-8.31,34.36h0c7.16,11.74,22.63,15.48,34.36,8.31Z" style="fill: url(#New_Pattern_Swatch_3);"/>
    </g>
  </g>
</svg>