<svg width="287" height="96" viewBox="0 0 287 96" fill="none" xmlns="http://www.w3.org/2000/svg">
<path d="M21.3007 29.0676H18.9892V15.6986C18.9892 14.6418 19.0522 13.35 19.1871 11.8235H19.1332C18.9892 12.4829 18.7914 13.1242 18.5395 13.7565L11.758 29.0766H10.6247L3.86117 13.874C3.60034 13.2145 3.40247 12.528 3.26756 11.8325H3.21359C3.28555 12.6274 3.32152 13.9282 3.32152 15.7348V29.0766H1.073V9.14062H4.14898L10.238 23.0425C10.5977 23.8194 10.9035 24.6143 11.1554 25.4363H11.2363C11.6321 24.3433 11.9469 23.5303 12.1897 22.9883L18.4046 9.14966H21.3097L21.3007 29.0676Z" fill="#2A3039"/>
<path d="M26.3554 11.2271C25.9687 11.2362 25.5909 11.0826 25.3211 10.8116C25.0333 10.5316 24.8804 10.1522 24.8894 9.75475C24.8714 8.95081 25.51 8.28236 26.3104 8.27333C26.3284 8.27333 26.3374 8.27333 26.3554 8.27333C26.7512 8.26429 27.1289 8.41786 27.4167 8.69788C27.9923 9.276 28.0013 10.2154 27.4257 10.8026C27.4257 10.8026 27.4257 10.8026 27.4167 10.8116C27.1379 11.0736 26.7512 11.2362 26.3554 11.2271ZM27.4617 29.0675H25.1952V14.8404H27.4617V29.0675Z" fill="#2A3039"/>
<path d="M40.755 28.4173C39.5768 29.0948 38.2366 29.438 36.8785 29.4019C35.0437 29.4742 33.2629 28.7515 31.9857 27.4237C30.7176 26.0235 30.043 24.1808 30.1239 22.2929C30.025 20.2153 30.7445 18.1919 32.1296 16.6472C33.5327 15.2019 35.4754 14.4251 37.4811 14.5154C38.6144 14.4883 39.7476 14.7322 40.773 15.2109V17.5415C39.7926 16.8279 38.6144 16.4394 37.4002 16.4304C36.0421 16.3943 34.7289 16.9634 33.8295 17.9931C32.8672 19.1313 32.3725 20.6037 32.4354 22.0941C32.3545 23.5304 32.8222 24.9396 33.7396 26.0416C34.639 27.0172 35.9251 27.5501 37.2473 27.4869C38.5154 27.4779 39.7386 27.0443 40.737 26.2494V28.4173H40.755Z" fill="#2A3039"/>
<path d="M50.9903 17.1438C50.4866 16.8096 49.884 16.647 49.2724 16.6831C48.283 16.6922 47.3656 17.2071 46.844 18.0562C46.1334 19.1763 45.8007 20.4861 45.8726 21.8049V29.0585H43.6061V14.8404H45.8726V17.7761H45.9266C46.1874 16.8728 46.7001 16.0599 47.4106 15.4366C48.0222 14.8946 48.8227 14.5965 49.6411 14.5965C50.0998 14.5784 50.5585 14.6417 50.9993 14.7952L50.9903 17.1438Z" fill="#2A3039"/>
<path d="M58.1496 29.4018C56.2698 29.4922 54.444 28.7605 53.1309 27.4055C51.8357 25.9602 51.1612 24.0633 51.2601 22.1212C51.2601 19.7274 51.9077 17.8666 53.2118 16.5206C54.6149 15.1386 56.5216 14.4069 58.4824 14.5063C60.3351 14.3979 62.143 15.1205 63.4291 16.4664C64.6163 17.7762 65.2099 19.5829 65.2099 21.9044C65.3089 23.9007 64.6163 25.8609 63.2942 27.3603C61.9541 28.7514 60.0743 29.4922 58.1496 29.4018ZM58.3205 16.4213C56.9983 16.358 55.7302 16.9091 54.8577 17.9117C53.9493 19.086 53.4996 20.5494 53.5806 22.0308C53.4996 23.4761 53.9583 24.8943 54.8667 26.0234C55.7392 26.999 57.0073 27.532 58.3115 27.4778C59.5976 27.55 60.8478 27.0261 61.6932 26.0505C62.5477 24.8762 62.9704 23.431 62.8805 21.9766C62.9704 20.5133 62.5567 19.0499 61.6932 17.8666C60.8568 16.882 59.6066 16.349 58.3205 16.4213Z" fill="#2A3039"/>
<path d="M66.5231 28.5526V26.1046C67.6923 26.9989 69.1314 27.4867 70.6064 27.4777C72.6031 27.4777 73.5924 26.8092 73.5924 25.4723C73.6014 25.1291 73.5115 24.7949 73.3406 24.5058C73.1607 24.2258 72.9179 23.9909 72.6481 23.8012C72.3243 23.5844 71.9825 23.3947 71.6227 23.2502C71.227 23.0876 70.8043 22.916 70.3546 22.7443C69.7879 22.5275 69.2393 22.2656 68.6997 21.9856C68.2589 21.7597 67.8632 21.4707 67.5124 21.1274C67.1976 20.8203 66.9548 20.4499 66.7929 20.0344C66.622 19.5737 66.5411 19.095 66.5501 18.6072C66.5411 17.9839 66.694 17.3697 67.0088 16.8367C67.3146 16.3218 67.7283 15.8792 68.223 15.545C68.7536 15.1837 69.3382 14.9217 69.9588 14.7591C70.6154 14.5784 71.29 14.4971 71.9735 14.4971C73.1068 14.4791 74.231 14.6959 75.2653 15.1385V17.4419C74.195 16.7464 72.9449 16.3941 71.6677 16.4121C71.281 16.4031 70.8942 16.4573 70.5165 16.5567C70.2017 16.638 69.9049 16.7825 69.635 16.9632C69.4012 17.1258 69.2033 17.3426 69.0684 17.5955C68.9335 17.8484 68.8615 18.1284 68.8705 18.4085C68.8615 18.7337 68.9245 19.0498 69.0684 19.3389C69.2123 19.6008 69.4102 19.8267 69.653 20.0073C69.9408 20.2241 70.2646 20.3957 70.5974 20.5403C70.9662 20.7029 71.3889 20.8745 71.8566 21.0552C72.4322 21.2719 72.9988 21.5249 73.5475 21.7959C74.0062 22.0217 74.4379 22.3108 74.8246 22.654C75.1664 22.9611 75.4452 23.3405 75.6341 23.756C75.832 24.2258 75.9309 24.7316 75.9219 25.2465C75.9399 25.8879 75.778 26.5202 75.4632 27.0802C75.1484 27.5951 74.7257 28.0377 74.222 28.372C73.6734 28.7242 73.0708 28.9862 72.4322 29.1398C71.7397 29.3114 71.0291 29.3927 70.3186 29.3927C68.9965 29.4379 67.6923 29.1488 66.5231 28.5526Z" fill="#2A3039"/>
<path d="M84.1245 29.4018C82.2448 29.4921 80.419 28.7604 79.1058 27.4055C77.8107 25.9602 77.1361 24.0632 77.2351 22.1211C77.2351 19.7273 77.8826 17.8665 79.1868 16.5206C80.5899 15.1385 82.4966 14.4069 84.4573 14.5062C86.3101 14.4069 88.1179 15.1205 89.4041 16.4664C90.5913 17.7762 91.1849 19.5828 91.1849 21.9043C91.2839 23.9006 90.5913 25.8608 89.2692 27.3603C87.9201 28.7514 86.0493 29.4921 84.1245 29.4018ZM84.2864 16.4212C82.9643 16.358 81.6961 16.909 80.8237 17.9117C79.9153 19.086 79.4656 20.5494 79.5555 22.0308C79.4746 23.4761 79.9333 24.8943 80.8417 26.0234C81.7141 26.999 82.9823 27.5319 84.2864 27.4777C85.5726 27.55 86.8228 27.0261 87.6682 26.0505C88.5227 24.8762 88.9454 23.4309 88.8554 21.9766C88.9454 20.5132 88.5317 19.0499 87.6682 17.8665C86.8318 16.8819 85.5816 16.349 84.2864 16.4212Z" fill="#2A3039"/>
<path d="M100.62 10.0078C100.161 9.75487 99.6394 9.61938 99.1087 9.63744C97.5258 9.63744 96.7253 10.6401 96.7253 12.6545V14.8495H100.044V16.7916H96.7253V29.0766H94.4677V16.7916H92.0483V14.8495H94.4677V12.5461C94.3958 11.2363 94.8635 9.96263 95.7539 9.00513C96.5994 8.14698 97.7596 7.67726 98.9648 7.70436C99.5224 7.68629 100.08 7.76759 100.611 7.95729L100.62 10.0078Z" fill="#2A3039"/>
<path d="M108.705 28.9321C108.049 29.2573 107.32 29.4109 106.592 29.3748C104.109 29.3748 102.868 27.9837 102.868 25.2015V16.7826H100.431V14.8405H102.868V11.3628L105.135 10.6221V14.8315H108.705V16.7736H105.135V24.804C105.072 25.5176 105.243 26.2403 105.62 26.8455C106.034 27.2881 106.628 27.5139 107.23 27.4597C107.761 27.4688 108.283 27.3062 108.714 26.99L108.705 28.9321Z" fill="#2A3039"/>
<path d="M26.5173 48.8682V56.4018H24.1968V36.4749H29.6473C31.7699 36.4749 33.4158 36.9897 34.585 38.0285C35.7902 39.1577 36.4288 40.7656 36.3389 42.4186C36.3928 44.1801 35.6823 45.8693 34.3961 47.0616C32.9481 48.3263 31.0593 48.9676 29.1436 48.8682H26.5173ZM26.5173 38.5886V46.7545H28.9547C30.2678 46.8448 31.581 46.4564 32.6333 45.6525C33.5057 44.8576 33.9644 43.7104 33.9015 42.5361C33.9015 39.9074 32.3545 38.5886 29.2515 38.5886H26.5173Z" fill="#2A3039"/>
<path d="M48.346 56.4018H46.0795V54.1797H46.0255C45.1801 55.7966 43.4892 56.7902 41.6634 56.736C40.4582 56.8083 39.262 56.4018 38.3446 55.6069C37.5351 54.8301 37.1034 53.7371 37.1483 52.617C37.1483 49.9612 38.7043 48.4075 41.8253 47.974L46.0705 47.3778C46.0705 44.9569 45.0991 43.7465 43.1474 43.7465C41.4475 43.7465 39.8016 44.3698 38.5244 45.4989V43.1593C39.9635 42.256 41.6364 41.7953 43.3363 41.8224C46.6641 41.8224 48.328 43.5929 48.328 47.1339L48.346 56.4018ZM46.0705 49.2024L42.6527 49.6722C41.8073 49.7444 40.9978 50.0154 40.2693 50.4581C39.6847 50.9458 39.3789 51.6956 39.4688 52.4544C39.4508 53.1047 39.7207 53.728 40.2063 54.1616C40.755 54.6223 41.4655 54.8572 42.176 54.821C43.2373 54.8481 44.2537 54.4145 44.9642 53.6287C45.7107 52.8067 46.1065 51.7317 46.0615 50.6206L46.0705 49.2024Z" fill="#2A3039"/>
<path d="M59.1119 44.4781C58.6083 44.1438 58.0057 43.9812 57.3941 44.0174C56.4047 44.0264 55.4873 44.5503 54.9657 45.3904C54.2551 46.5105 53.9223 47.8203 53.9853 49.1391V56.3927H51.7278V42.1746H53.9943V45.1104H54.0483C54.3091 44.2071 54.8218 43.3941 55.5323 42.7708C56.1529 42.2288 56.9444 41.9307 57.7628 41.9307C58.2215 41.9127 58.6802 41.9759 59.1209 42.1295L59.1119 44.4781Z" fill="#2A3039"/>
<path d="M69.6171 56.2661C68.9605 56.5913 68.232 56.7449 67.5034 56.7087C65.0211 56.7087 63.7799 55.3176 63.7799 52.5355V44.1166H61.3425V42.1745H63.7799V38.6968L66.0464 37.9651V42.1745H69.6171V44.1166H66.0464V52.138C65.9834 52.8516 66.1543 53.5743 66.5321 54.1795C66.9458 54.6221 67.5394 54.8479 68.142 54.7937C68.6727 54.8028 69.1943 54.6402 69.626 54.324V56.2661H69.6171Z" fill="#2A3039"/>
<path d="M84.2325 56.4017H81.966V48.29C81.966 45.273 80.8687 43.7554 78.6741 43.7554C77.5858 43.7283 76.5515 44.2071 75.859 45.0381C75.1034 45.9414 74.6987 47.0977 74.7437 48.281V56.3927H72.4772V42.1656H74.7437V44.5323H74.7977C75.715 42.825 77.5139 41.7772 79.4476 41.8314C80.8057 41.7501 82.1188 42.3011 83.0093 43.3399C83.8277 44.3426 84.2415 45.7969 84.2415 47.6938L84.2325 56.4017Z" fill="#2A3039"/>
<path d="M99.2256 49.8528H89.2242C89.1702 51.1897 89.6289 52.4995 90.4924 53.5203C91.3738 54.4145 92.588 54.8842 93.8382 54.812C95.4391 54.812 96.9951 54.2519 98.2363 53.2312V55.372C96.7792 56.3476 95.0434 56.8173 93.2895 56.736C91.5087 56.8264 89.7818 56.1218 88.5676 54.7939C87.4254 53.5022 86.8498 51.6775 86.8498 49.3379C86.7688 47.3597 87.4344 45.4266 88.7205 43.9271C89.8898 42.5722 91.5896 41.8043 93.3795 41.8314C95.0164 41.7411 96.5994 42.4005 97.6876 43.6381C98.704 44.8395 99.2077 46.5196 99.2077 48.6514L99.2256 49.8528ZM96.8962 47.9288C96.9591 46.8267 96.6173 45.7337 95.9518 44.8575C95.2952 44.1078 94.3418 43.7103 93.3615 43.7555C92.3362 43.7374 91.3468 44.1529 90.6363 44.9117C89.8628 45.7428 89.3771 46.7996 89.2512 47.9288H96.8962Z" fill="#2A3039"/>
<path d="M109.209 44.4781C108.705 44.1438 108.103 43.9812 107.491 44.0174C106.502 44.0264 105.584 44.5503 105.063 45.3904C104.352 46.5105 104.019 47.8203 104.091 49.1391V56.3927H101.825V42.1746H104.091V45.1104H104.145C104.406 44.2071 104.919 43.3941 105.629 42.7708C106.25 42.2288 107.042 41.9307 107.86 41.9307C108.319 41.9127 108.777 41.9759 109.218 42.1295L109.209 44.4781Z" fill="#2A3039"/>
<path d="M35.5204 72.1555H42.9046C42.9046 74.6306 42.9046 77.0966 42.9046 79.5717H35.5204V72.1555Z" fill="#2A3039"/>
<path d="M43.6511 72.1555H51.0352C51.0352 74.6306 51.0352 77.0966 51.0352 79.5717H43.6511C43.6511 77.0966 43.6511 74.6215 43.6511 72.1555Z" fill="#2A3039"/>
<path d="M102.068 74.9737C102.769 74.5582 103.615 74.4589 104.397 74.7027C104.406 75.1634 104.397 75.6151 104.397 76.0758C104.037 75.8861 103.615 75.8409 103.219 75.9674C102.922 76.1029 102.724 76.3919 102.688 76.7171C102.652 77.1146 102.643 77.5211 102.661 77.9185C103.444 77.9185 104.217 77.9185 105 77.9185C105.009 77.4127 104.991 76.9068 105.009 76.3919C105.54 76.2384 106.061 76.0667 106.592 75.9132C106.592 76.5816 106.583 77.2501 106.601 77.9185C107.131 77.9095 107.653 77.9185 108.184 77.9185V79.2193C107.653 79.2012 107.131 79.2103 106.601 79.2103C106.601 79.96 106.601 80.7097 106.601 81.4595C106.61 81.875 106.583 82.2905 106.628 82.7061C106.637 82.959 106.763 83.2029 106.97 83.3474C107.365 83.5371 107.833 83.4919 108.184 83.23V84.5488C107.725 84.7385 107.221 84.8198 106.727 84.7746C106.25 84.7566 105.791 84.5488 105.468 84.1965C105.144 83.7539 104.991 83.2119 105.018 82.6699C105.018 81.5227 105.018 80.3755 105.018 79.2283C104.235 79.2283 103.462 79.2283 102.679 79.2283C102.679 81.0349 102.679 82.8325 102.679 84.6391H101.078C101.078 82.8325 101.078 81.0349 101.078 79.2374C100.71 79.2283 100.341 79.2374 99.9722 79.2283C99.9722 78.8038 99.9722 78.3702 99.9722 77.9456C100.341 77.9366 100.71 77.9366 101.078 77.9456C101.042 77.3765 101.078 76.7984 101.186 76.2384C101.312 75.7054 101.636 75.2628 102.068 74.9737Z" fill="#2A3039"/>
<path d="M67.8992 75.0733C68.232 75.0191 68.5647 75.1365 68.7806 75.3894C69.0324 75.6785 69.0774 76.094 68.8885 76.4282C68.6637 76.7896 68.241 76.9702 67.8272 76.8799C67.3955 76.7986 67.0897 76.4282 67.0897 75.9856C67.0897 75.5159 67.4405 75.1275 67.8992 75.0733Z" fill="#2A3039"/>
<path d="M55.6672 75.272H57.9877C58.7072 77.1147 59.4357 78.9575 60.1643 80.8002C60.3531 81.2609 60.524 81.7306 60.7129 82.1823C61.6393 79.8788 62.5837 77.5844 63.5101 75.281C64.2566 75.272 65.0031 75.281 65.7406 75.272C65.7406 78.3884 65.7406 81.5048 65.7406 84.6212C65.201 84.6212 64.6703 84.6302 64.1307 84.6212C64.1397 82.3268 64.1307 80.0234 64.1307 77.7199C64.1307 77.6206 64.1307 77.5122 64.1217 77.4128C64.0947 77.458 64.0587 77.5122 64.0407 77.5664C63.1143 79.924 62.1789 82.2636 61.2615 84.6212C60.8838 84.6393 60.497 84.6212 60.1103 84.6303C59.1569 82.2726 58.2215 79.915 57.2682 77.5664C57.2412 77.5212 57.2142 77.467 57.1872 77.4219C57.1692 78.4336 57.1872 79.4362 57.1782 80.4479C57.1782 81.839 57.1782 83.2392 57.1782 84.6303C56.6745 84.6303 56.1619 84.6303 55.6582 84.6303C55.6672 81.5048 55.6672 78.3884 55.6672 75.272Z" fill="#2A3039"/>
<path d="M72.2883 77.9095C73.0618 77.6927 73.8893 77.6927 74.6628 77.9186C74.8246 77.9637 74.9775 78.027 75.1214 78.1083C75.1125 78.6141 75.1214 79.129 75.1125 79.6439C74.5998 79.2284 73.9432 79.0206 73.2867 79.0838C72.765 79.129 72.2793 79.4 71.9645 79.8245C71.5958 80.3665 71.4429 81.0259 71.5418 81.6763C71.5778 82.1912 71.8116 82.6609 72.1894 83.0132C72.6121 83.3565 73.1427 83.5191 73.6824 83.4558C74.204 83.3836 74.6987 83.1849 75.1125 82.8687C75.1125 83.3565 75.1125 83.8352 75.1125 84.323C74.4469 84.6843 73.6824 84.8469 72.9269 84.7747C72.1534 84.7476 71.4159 84.4314 70.8492 83.9075C70.2556 83.3113 69.9139 82.5074 69.8869 81.6673C69.8239 80.7911 70.0488 79.9149 70.5165 79.1832C70.9482 78.5509 71.5778 78.1083 72.2883 77.9095Z" fill="#2A3039"/>
<path d="M78.6831 78.018C79.1328 77.7651 79.6725 77.7199 80.1671 77.8915C80.1671 78.4245 80.1671 78.9574 80.1671 79.4994C79.8433 79.2917 79.4656 79.2104 79.0878 79.2465C78.6381 79.3278 78.2604 79.6259 78.0895 80.0504C77.9096 80.484 77.8287 80.9537 77.8646 81.4144C77.8646 82.4803 77.8646 83.5553 77.8646 84.6212H76.2907C76.2907 82.39 76.2907 80.1588 76.2907 77.9277C76.8213 77.9186 77.343 77.9277 77.8646 77.9277C77.8646 78.3071 77.8646 78.6955 77.8646 79.0749C78.0175 78.6413 78.3054 78.2709 78.6831 78.018Z" fill="#2A3039"/>
<path d="M67.2336 77.9186C67.7643 77.9186 68.2949 77.9095 68.8256 77.9186C68.8166 80.1497 68.8256 82.3809 68.8256 84.6121H67.2426C67.2426 82.3809 67.2426 80.1497 67.2336 77.9186Z" fill="#2A3039"/>
<path d="M85.3927 78.0632C84.6732 77.7652 83.8817 77.6658 83.1082 77.7923C82.2897 77.8826 81.5342 78.28 81.0126 78.9214C80.5629 79.5085 80.3021 80.2222 80.2751 80.9719C80.1761 81.8481 80.383 82.7333 80.8597 83.4741C81.3004 84.0973 81.957 84.5309 82.7035 84.6845C83.3241 84.811 83.9537 84.811 84.5742 84.6845C85.3028 84.54 85.9503 84.1335 86.409 83.5463C86.8318 82.9772 87.0746 82.2998 87.1106 81.5952C87.1825 80.8725 87.0746 80.1499 86.7958 79.4814C86.508 78.8582 86.0043 78.3523 85.3927 78.0632ZM85.2398 82.5527C85.0869 82.905 84.8081 83.185 84.4573 83.3295C84.0436 83.4831 83.5849 83.5012 83.1532 83.3837C82.7215 83.2663 82.3527 82.9592 82.1548 82.5527C81.921 82.0288 81.84 81.4506 81.912 80.8725C81.939 80.3486 82.1548 79.8518 82.5326 79.4724C82.8204 79.2195 83.1982 79.0659 83.5849 79.0569C84.0706 79.0117 84.5563 79.1743 84.916 79.5085C85.2578 79.897 85.4557 80.3847 85.4647 80.9087C85.5186 81.4777 85.4467 82.0378 85.2398 82.5527Z" fill="#2A3039"/>
<path d="M91.1849 80.9629C90.7172 80.6919 90.1776 80.5654 89.7189 80.2583C89.467 80.0686 89.3681 79.7344 89.485 79.4363C89.6469 79.1653 89.9347 79.0027 90.2495 79.0117C90.8431 78.9937 91.4367 79.1653 91.9224 79.5086C91.9224 79.0208 91.9224 78.524 91.9224 78.0362C91.2209 77.7652 90.4564 77.6839 89.7099 77.8013C89.0713 77.9007 88.4957 78.253 88.1179 78.7769C87.8301 79.2556 87.7492 79.8337 87.8931 80.3757C87.983 80.7371 88.1899 81.0532 88.4867 81.2881C88.9184 81.5771 89.3771 81.812 89.8628 81.9927C90.1236 82.092 90.3665 82.2456 90.5553 82.4533C90.7532 82.7424 90.6812 83.1399 90.3934 83.3476C90.3844 83.3566 90.3754 83.3657 90.3575 83.3657C90.0067 83.5102 89.6289 83.5463 89.2602 83.465C88.7385 83.3657 88.2438 83.1579 87.8121 82.8418C87.8031 83.3567 87.8121 83.8715 87.8121 84.3955C88.3248 84.6122 88.8734 84.7387 89.4311 84.7658C90.2315 84.8381 91.032 84.6032 91.6526 84.0883C92.2642 83.5012 92.4261 82.5979 92.0663 81.8301C91.8954 81.4597 91.5717 81.1526 91.1849 80.9629Z" fill="#2A3039"/>
<path d="M99.5674 79.6712C99.3246 78.9937 98.8299 78.4427 98.2003 78.1175C97.4628 77.7742 96.6353 77.6658 95.8259 77.7923C95.1783 77.8645 94.5667 78.1265 94.063 78.5511C93.4784 79.084 93.1007 79.8157 93.0107 80.6106C92.8848 81.3965 92.9747 82.2004 93.2626 82.9411C93.5773 83.6638 94.153 84.2329 94.8815 84.5219C95.601 84.7839 96.3745 84.8471 97.13 84.7116C97.9035 84.5852 98.605 84.1787 99.0907 83.5554C99.5764 82.896 99.8372 82.092 99.8192 81.27C99.8282 80.728 99.7473 80.186 99.5674 79.6712ZM98.1284 81.9475C98.0744 82.3088 97.9395 82.6431 97.7146 82.9321C97.4718 83.2121 97.148 83.3838 96.7792 83.438C96.3925 83.5012 95.9967 83.456 95.637 83.3115C95.2502 83.1399 94.9534 82.8237 94.7915 82.4263C94.6117 81.9656 94.5487 81.4597 94.6027 80.9629C94.6207 80.4751 94.7915 80.0144 95.0883 79.626C95.3852 79.2827 95.8079 79.084 96.2576 79.0659C96.7163 79.0208 97.175 79.1563 97.5348 79.4453C97.8405 79.7254 98.0474 80.1048 98.1104 80.5112C98.2003 80.99 98.2093 81.4687 98.1284 81.9475Z" fill="#2A3039"/>
<path d="M35.5204 80.3215C37.9848 80.3215 40.4402 80.3215 42.9046 80.3215V87.7377H35.5204V80.3215Z" fill="#2A3039"/>
<path d="M43.6511 80.3215H51.0352V87.7377H43.6511C43.6511 85.2626 43.6511 82.7966 43.6511 80.3215Z" fill="#2A3039"/>
<path d="M120.802 0.969238H120.146V94.4707H120.802V0.969238Z" fill="#2A3039"/>
<path d="M139.357 51.0802C138.584 51.5048 137.729 51.7125 136.785 51.7125C135.688 51.7125 134.806 51.3693 134.132 50.6828C133.457 49.9963 133.115 49.093 133.115 47.9729C133.115 46.8256 133.484 45.8772 134.231 45.1455C134.968 44.4048 135.913 44.0435 137.055 44.0435C137.873 44.0435 138.566 44.1609 139.132 44.4048V45.6694C138.566 45.29 137.891 45.1003 137.109 45.1003C136.317 45.1003 135.679 45.3623 135.175 45.8862C134.671 46.4101 134.42 47.0786 134.42 47.9096C134.42 48.7587 134.635 49.4362 135.067 49.924C135.499 50.4118 136.092 50.6557 136.83 50.6557C137.343 50.6557 137.783 50.5563 138.152 50.3576V48.5871H136.596V47.5483H139.375V51.0802H139.357Z" fill="#2A3039"/>
<path d="M143.153 51.7126C142.334 51.7126 141.687 51.4687 141.201 50.9719C140.715 50.475 140.473 49.8156 140.473 49.0026C140.473 48.1084 140.724 47.4128 141.237 46.916C141.741 46.4192 142.424 46.1663 143.288 46.1663C144.115 46.1663 144.754 46.4102 145.212 46.8979C145.671 47.3857 145.905 48.0632 145.905 48.9214C145.905 49.7705 145.653 50.4479 145.159 50.9538C144.664 51.4596 143.989 51.7126 143.153 51.7126ZM143.207 47.1147C142.739 47.1147 142.37 47.2773 142.101 47.6025C141.831 47.9277 141.696 48.3794 141.696 48.9575C141.696 49.5175 141.831 49.9511 142.11 50.2673C142.388 50.5834 142.748 50.746 143.216 50.746C143.683 50.746 144.052 50.5925 144.304 50.2763C144.556 49.9602 144.682 49.5175 144.682 48.9394C144.682 48.3523 144.556 47.9006 144.304 47.5845C144.043 47.2773 143.683 47.1147 143.207 47.1147Z" fill="#2A3039"/>
<path d="M148.279 51.5861H147.074V43.7363H148.279V51.5861Z" fill="#2A3039"/>
<path d="M154.593 51.5861H153.397V50.6828H153.379C152.992 51.3693 152.399 51.7125 151.598 51.7125C150.951 51.7125 150.429 51.4777 150.042 50.9989C149.656 50.5202 149.458 49.8788 149.458 49.0568C149.458 48.1806 149.674 47.476 150.105 46.9521C150.537 46.4282 151.113 46.1572 151.832 46.1572C152.543 46.1572 153.064 46.4463 153.388 47.0153H153.406V43.7273H154.602L154.593 51.5861ZM153.415 49.1652V48.4697C153.415 48.0903 153.289 47.7741 153.046 47.5122C152.803 47.2502 152.489 47.1147 152.111 47.1147C151.661 47.1147 151.31 47.2863 151.059 47.6206C150.807 47.9548 150.672 48.4245 150.672 49.0117C150.672 49.5536 150.798 49.9782 151.041 50.2853C151.283 50.6015 151.616 50.755 152.03 50.755C152.435 50.755 152.768 50.6015 153.028 50.3034C153.289 50.0053 153.415 49.6169 153.415 49.1652Z" fill="#2A3039"/>
<path d="M164.352 51.279C163.794 51.568 163.102 51.7125 162.274 51.7125C161.204 51.7125 160.341 51.3693 159.693 50.6918C159.045 50.0143 158.722 49.12 158.722 48.018C158.722 46.8256 159.081 45.8681 159.81 45.1365C160.538 44.4048 161.456 44.0344 162.571 44.0344C163.282 44.0344 163.875 44.1338 164.352 44.3415V45.561C163.857 45.2629 163.3 45.1184 162.706 45.1184C161.906 45.1184 161.258 45.3713 160.754 45.8862C160.26 46.4011 160.008 47.0876 160.008 47.9458C160.008 48.7678 160.242 49.4181 160.7 49.9059C161.168 50.3937 161.771 50.6376 162.535 50.6376C163.237 50.6376 163.839 50.475 164.352 50.1408V51.279Z" fill="#2A3039"/>
<path d="M167.842 51.7126C167.023 51.7126 166.376 51.4687 165.89 50.9719C165.404 50.475 165.161 49.8156 165.161 49.0026C165.161 48.1084 165.413 47.4128 165.926 46.916C166.43 46.4192 167.113 46.1663 167.977 46.1663C168.804 46.1663 169.443 46.4102 169.901 46.8979C170.36 47.3857 170.594 48.0632 170.594 48.9214C170.594 49.7705 170.342 50.4479 169.847 50.9538C169.353 51.4596 168.678 51.7126 167.842 51.7126ZM167.896 47.1147C167.428 47.1147 167.059 47.2773 166.789 47.6025C166.52 47.9277 166.385 48.3794 166.385 48.9575C166.385 49.5175 166.52 49.9511 166.798 50.2673C167.077 50.5834 167.437 50.746 167.905 50.746C168.372 50.746 168.741 50.5925 168.993 50.2763C169.245 49.9602 169.371 49.5175 169.371 48.9394C169.371 48.3523 169.245 47.9006 168.993 47.5845C168.732 47.2773 168.372 47.1147 167.896 47.1147Z" fill="#2A3039"/>
<path d="M172.968 51.5861H171.763V43.7363H172.968V51.5861Z" fill="#2A3039"/>
<path d="M175.622 51.5861H174.416V43.7363H175.622V51.5861Z" fill="#2A3039"/>
<path d="M181.189 51.5861H180.029V50.7551H180.011C179.642 51.3874 179.111 51.7035 178.41 51.7035C177.888 51.7035 177.483 51.559 177.187 51.279C176.89 50.999 176.746 50.6196 176.746 50.1589C176.746 49.1562 177.321 48.5781 178.473 48.4065L180.038 48.1806C180.038 47.4219 179.678 47.0425 178.967 47.0425C178.338 47.0425 177.771 47.2593 177.267 47.6928V46.645C177.825 46.3108 178.464 46.1482 179.192 46.1482C180.523 46.1482 181.198 46.8076 181.198 48.1264L181.189 51.5861ZM180.029 48.9755L178.922 49.1291C178.581 49.1743 178.32 49.2556 178.149 49.382C177.978 49.5085 177.888 49.7163 177.888 50.0234C177.888 50.2492 177.969 50.4299 178.131 50.5744C178.293 50.7189 178.509 50.7912 178.769 50.7912C179.138 50.7912 179.435 50.6647 179.678 50.4028C179.921 50.1498 180.038 49.8247 180.038 49.4272L180.029 48.9755Z" fill="#2A3039"/>
<path d="M183.797 50.8183H183.779V51.5861H182.583V43.7363H183.779V47.2141H183.797C184.202 46.5095 184.805 46.1572 185.596 46.1572C186.262 46.1572 186.783 46.3921 187.161 46.8708C187.539 47.3496 187.728 47.9819 187.728 48.7768C187.728 49.662 187.521 50.3756 187.089 50.9086C186.666 51.4416 186.091 51.7125 185.353 51.7125C184.67 51.7125 184.148 51.4145 183.797 50.8183ZM183.77 48.7136V49.373C183.77 49.7614 183.896 50.0866 184.139 50.3576C184.382 50.6286 184.697 50.7641 185.074 50.7641C185.515 50.7641 185.866 50.5924 186.118 50.2401C186.369 49.8969 186.495 49.4091 186.495 48.7858C186.495 48.2619 186.378 47.8554 186.145 47.5573C185.911 47.2592 185.587 47.1147 185.191 47.1147C184.769 47.1147 184.418 47.2683 184.166 47.5664C183.896 47.8735 183.77 48.2529 183.77 48.7136Z" fill="#2A3039"/>
<path d="M191.262 51.7126C190.444 51.7126 189.796 51.4687 189.311 50.9719C188.825 50.475 188.582 49.8156 188.582 49.0026C188.582 48.1084 188.834 47.4128 189.347 46.916C189.85 46.4192 190.534 46.1663 191.397 46.1663C192.225 46.1663 192.863 46.4102 193.322 46.8979C193.781 47.3857 194.014 48.0632 194.014 48.9214C194.014 49.7705 193.763 50.4479 193.268 50.9538C192.773 51.4596 192.108 51.7126 191.262 51.7126ZM191.325 47.1147C190.858 47.1147 190.489 47.2773 190.219 47.6025C189.949 47.9277 189.814 48.3794 189.814 48.9575C189.814 49.5175 189.949 49.9511 190.228 50.2673C190.507 50.5834 190.867 50.746 191.334 50.746C191.802 50.746 192.171 50.5925 192.423 50.2763C192.674 49.9602 192.8 49.5175 192.8 48.9394C192.8 48.3523 192.674 47.9006 192.423 47.5845C192.153 47.2773 191.793 47.1147 191.325 47.1147Z" fill="#2A3039"/>
<path d="M198.242 47.4219C198.098 47.3044 197.891 47.2502 197.621 47.2502C197.27 47.2502 196.974 47.4128 196.731 47.729C196.497 48.0542 196.371 48.4878 196.371 49.0388V51.5771H195.175V46.2747H196.371V47.3677H196.389C196.506 46.9973 196.686 46.6992 196.929 46.4915C197.171 46.2837 197.441 46.1753 197.738 46.1753C197.954 46.1753 198.116 46.2114 198.233 46.2747L198.242 47.4219Z" fill="#2A3039"/>
<path d="M203.072 51.5861H201.911V50.7551H201.893C201.525 51.3874 200.994 51.7035 200.292 51.7035C199.771 51.7035 199.366 51.559 199.069 51.279C198.772 50.999 198.628 50.6196 198.628 50.1589C198.628 49.1562 199.204 48.5781 200.355 48.4065L201.92 48.1806C201.92 47.4219 201.561 47.0425 200.85 47.0425C200.22 47.0425 199.654 47.2593 199.15 47.6928V46.645C199.708 46.3108 200.346 46.1482 201.075 46.1482C202.406 46.1482 203.081 46.8076 203.081 48.1264V51.5861H203.072ZM201.92 48.9755L200.814 49.1291C200.472 49.1743 200.211 49.2556 200.041 49.382C199.87 49.5085 199.78 49.7163 199.78 50.0234C199.78 50.2492 199.861 50.4299 200.023 50.5744C200.184 50.7189 200.4 50.7912 200.661 50.7912C201.03 50.7912 201.327 50.6647 201.57 50.4028C201.812 50.1498 201.929 49.8247 201.929 49.4272V48.9755H201.92Z" fill="#2A3039"/>
<path d="M207.236 51.5319C207.002 51.6493 206.696 51.7035 206.309 51.7035C205.284 51.7035 204.771 51.2067 204.771 50.2221V47.2231H203.89V46.2837H204.771V45.0552L205.968 44.7119V46.2837H207.227V47.2231H205.968V49.8788C205.968 50.195 206.022 50.4208 206.139 50.5563C206.255 50.6918 206.444 50.755 206.705 50.755C206.912 50.755 207.083 50.6918 207.236 50.5744V51.5319Z" fill="#2A3039"/>
<path d="M208.774 45.1636C208.576 45.1636 208.414 45.1003 208.27 44.9739C208.135 44.8474 208.063 44.6848 208.063 44.4861C208.063 44.2873 208.135 44.1247 208.27 43.9983C208.405 43.8628 208.576 43.7996 208.774 43.7996C208.981 43.7996 209.152 43.8628 209.286 43.9983C209.421 44.1338 209.502 44.2964 209.502 44.4861C209.502 44.6758 209.43 44.8293 209.286 44.9648C209.152 45.1003 208.981 45.1636 208.774 45.1636ZM209.367 51.5861H208.171V46.2837H209.367V51.5861Z" fill="#2A3039"/>
<path d="M213.19 51.7126C212.371 51.7126 211.724 51.4687 211.238 50.9719C210.752 50.475 210.51 49.8156 210.51 49.0026C210.51 48.1084 210.761 47.4128 211.274 46.916C211.778 46.4192 212.461 46.1663 213.325 46.1663C214.152 46.1663 214.791 46.4102 215.25 46.8979C215.708 47.3857 215.942 48.0632 215.942 48.9214C215.942 49.7705 215.69 50.4479 215.196 50.9538C214.692 51.4596 214.026 51.7126 213.19 51.7126ZM213.244 47.1147C212.776 47.1147 212.407 47.2773 212.138 47.6025C211.868 47.9277 211.733 48.3794 211.733 48.9575C211.733 49.5175 211.868 49.9511 212.147 50.2673C212.425 50.5834 212.785 50.746 213.253 50.746C213.721 50.746 214.089 50.5925 214.341 50.2763C214.593 49.9602 214.719 49.5175 214.719 48.9394C214.719 48.3523 214.593 47.9006 214.341 47.5845C214.08 47.2773 213.712 47.1147 213.244 47.1147Z" fill="#2A3039"/>
<path d="M221.806 51.5861H220.61V48.5962C220.61 47.6025 220.259 47.1057 219.567 47.1057C219.198 47.1057 218.901 47.2412 218.667 47.5212C218.433 47.7922 218.308 48.1445 218.308 48.56V51.5861H217.102V46.2837H218.308V47.1599H218.326C218.721 46.4915 219.288 46.1572 220.034 46.1572C220.61 46.1572 221.051 46.3469 221.348 46.7173C221.653 47.0967 221.797 47.6296 221.797 48.3432V51.5861H221.806Z" fill="#2A3039"/>
<path d="M230.225 51.5861H229.064V50.7551H229.046C228.678 51.3874 228.147 51.7035 227.446 51.7035C226.924 51.7035 226.519 51.559 226.222 51.279C225.926 50.999 225.782 50.6196 225.782 50.1589C225.782 49.1562 226.357 48.5781 227.509 48.4065L229.073 48.1806C229.073 47.4219 228.714 47.0425 228.003 47.0425C227.374 47.0425 226.807 47.2593 226.303 47.6928V46.645C226.861 46.3108 227.5 46.1482 228.228 46.1482C229.559 46.1482 230.234 46.8076 230.234 48.1264V51.5861H230.225ZM229.064 48.9755L227.958 49.1291C227.616 49.1743 227.356 49.2556 227.185 49.382C227.014 49.5085 226.924 49.7163 226.924 50.0234C226.924 50.2492 227.005 50.4299 227.167 50.5744C227.329 50.7189 227.544 50.7912 227.805 50.7912C228.174 50.7912 228.471 50.6647 228.714 50.4028C228.957 50.1498 229.073 49.8247 229.073 49.4272V48.9755H229.064Z" fill="#2A3039"/>
<path d="M236.323 51.5861H235.127V48.5962C235.127 47.6025 234.776 47.1057 234.083 47.1057C233.714 47.1057 233.418 47.2412 233.184 47.5212C232.95 47.7922 232.824 48.1445 232.824 48.56V51.5861H231.619V46.2837H232.824V47.1599H232.842C233.238 46.4915 233.804 46.1572 234.551 46.1572C235.127 46.1572 235.567 46.3469 235.864 46.7173C236.17 47.0967 236.314 47.6296 236.314 48.3432V51.5861H236.323Z" fill="#2A3039"/>
<path d="M242.565 51.5861H241.368V50.6828H241.35C240.964 51.3693 240.37 51.7125 239.57 51.7125C238.922 51.7125 238.4 51.4777 238.014 50.9989C237.627 50.5202 237.429 49.8788 237.429 49.0568C237.429 48.1806 237.645 47.476 238.077 46.9521C238.508 46.4282 239.084 46.1572 239.803 46.1572C240.514 46.1572 241.036 46.4463 241.359 47.0153H241.377V43.7273H242.574L242.565 51.5861ZM241.386 49.1652V48.4697C241.386 48.0903 241.26 47.7741 241.018 47.5122C240.775 47.2502 240.46 47.1147 240.082 47.1147C239.633 47.1147 239.282 47.2863 239.03 47.6206C238.778 47.9548 238.643 48.4245 238.643 49.0117C238.643 49.5536 238.769 49.9782 239.012 50.2853C239.255 50.6015 239.588 50.755 240.001 50.755C240.406 50.755 240.739 50.6015 241 50.3034C241.26 50.0053 241.386 49.6169 241.386 49.1652Z" fill="#2A3039"/>
<path d="M252.323 51.279C251.766 51.568 251.073 51.7125 250.246 51.7125C249.175 51.7125 248.312 51.3693 247.664 50.6918C247.017 50.0143 246.693 49.12 246.693 48.018C246.693 46.8256 247.053 45.8681 247.781 45.1365C248.51 44.4048 249.427 44.0344 250.542 44.0344C251.253 44.0344 251.847 44.1338 252.323 44.3415V45.561C251.829 45.2629 251.271 45.1184 250.677 45.1184C249.877 45.1184 249.229 45.3713 248.726 45.8862C248.231 46.4011 247.979 47.0876 247.979 47.9458C247.979 48.7678 248.213 49.4181 248.672 49.9059C249.139 50.3937 249.742 50.6376 250.506 50.6376C251.208 50.6376 251.811 50.475 252.323 50.1408V51.279Z" fill="#2A3039"/>
<path d="M255.813 51.7126C254.994 51.7126 254.347 51.4687 253.861 50.9719C253.376 50.475 253.133 49.8156 253.133 49.0026C253.133 48.1084 253.385 47.4128 253.897 46.916C254.401 46.4192 255.084 46.1663 255.948 46.1663C256.775 46.1663 257.414 46.4102 257.873 46.8979C258.331 47.3857 258.565 48.0632 258.565 48.9214C258.565 49.7705 258.313 50.4479 257.819 50.9538C257.324 51.4596 256.658 51.7126 255.813 51.7126ZM255.876 47.1147C255.408 47.1147 255.039 47.2773 254.77 47.6025C254.5 47.9277 254.365 48.3794 254.365 48.9575C254.365 49.5175 254.5 49.9511 254.779 50.2673C255.057 50.5834 255.417 50.746 255.885 50.746C256.353 50.746 256.721 50.5925 256.973 50.2763C257.225 49.9602 257.351 49.5175 257.351 48.9394C257.351 48.3523 257.225 47.9006 256.973 47.5845C256.703 47.2773 256.344 47.1147 255.876 47.1147Z" fill="#2A3039"/>
<path d="M264.429 51.5861H263.233V48.5962C263.233 47.6025 262.882 47.1057 262.19 47.1057C261.821 47.1057 261.524 47.2412 261.29 47.5212C261.057 47.7922 260.931 48.1445 260.931 48.56V51.5861H259.725V46.2837H260.931V47.1599H260.949C261.344 46.4915 261.911 46.1572 262.657 46.1572C263.233 46.1572 263.674 46.3469 263.971 46.7173C264.276 47.0967 264.42 47.6296 264.42 48.3432V51.5861H264.429Z" fill="#2A3039"/>
<path d="M268.585 51.5319C268.351 51.6493 268.045 51.7035 267.658 51.7035C266.633 51.7035 266.12 51.2067 266.12 50.2221V47.2231H265.239V46.2837H266.12V45.0552L267.316 44.7119V46.2837H268.576V47.2231H267.316V49.8788C267.316 50.195 267.37 50.4208 267.487 50.5563C267.604 50.6918 267.793 50.755 268.054 50.755C268.261 50.755 268.432 50.6918 268.576 50.5744V51.5319H268.585Z" fill="#2A3039"/>
<path d="M274.017 49.2556H270.419C270.437 49.7434 270.581 50.1227 270.869 50.3937C271.157 50.6557 271.553 50.7912 272.056 50.7912C272.623 50.7912 273.136 50.6196 273.612 50.2853V51.2519C273.127 51.559 272.497 51.7035 271.706 51.7035C270.932 51.7035 270.32 51.4596 269.88 50.9809C269.439 50.5021 269.214 49.8247 269.214 48.9484C269.214 48.1264 269.457 47.449 269.943 46.9341C270.428 46.4102 271.031 46.1572 271.76 46.1572C272.479 46.1572 273.037 46.3921 273.432 46.8528C273.828 47.3225 274.026 47.9638 274.026 48.7949V49.2556H274.017ZM272.857 48.4065C272.857 47.9729 272.749 47.6387 272.551 47.3948C272.353 47.1509 272.074 47.0334 271.724 47.0334C271.382 47.0334 271.085 47.1599 270.851 47.4128C270.608 47.6658 270.464 47.9909 270.41 48.4065H272.857Z" fill="#2A3039"/>
<path d="M279.845 51.5861H278.649V48.5962C278.649 47.6025 278.298 47.1057 277.606 47.1057C277.237 47.1057 276.94 47.2412 276.706 47.5212C276.472 47.7922 276.346 48.1445 276.346 48.56V51.5861H275.141V46.2837H276.346V47.1599H276.364C276.76 46.4915 277.327 46.1572 278.073 46.1572C278.649 46.1572 279.09 46.3469 279.386 46.7173C279.692 47.0967 279.836 47.6296 279.836 48.3432V51.5861H279.845Z" fill="#2A3039"/>
<path d="M283.991 51.5319C283.758 51.6493 283.452 51.7035 283.065 51.7035C282.04 51.7035 281.527 51.2067 281.527 50.2221V47.2231H280.646V46.2837H281.527V45.0552L282.723 44.7119V46.2837H283.982V47.2231H282.723V49.8788C282.723 50.195 282.777 50.4208 282.894 50.5563C283.011 50.6918 283.2 50.755 283.461 50.755C283.668 50.755 283.839 50.6918 283.991 50.5744V51.5319Z" fill="#2A3039"/>
</svg>
