<svg width="87" height="23" viewBox="0 0 87 23" fill="none" xmlns="http://www.w3.org/2000/svg">
<g clip-path="url(#clip0_157_247)">
<mask id="mask0_157_247" style="mask-type:luminance" maskUnits="userSpaceOnUse" x="-1" y="0" width="88" height="23">
<path d="M86.9376 22.9999H-0.000244141V0.0664845H86.9376V22.9999Z" fill="white"/>
</mask>
<g mask="url(#mask0_157_247)">
<path fill-rule="evenodd" clip-rule="evenodd" d="M75.9174 0.416595C69.8347 0.416595 64.8959 5.40075 64.8959 11.5389C64.8959 17.6775 69.8347 22.6616 75.9174 22.6616C82.0018 22.6616 86.9413 17.6775 86.9413 11.5389C86.9413 5.40075 82.0018 0.416595 75.9174 0.416595Z" fill="#B9E1F8"/>
<path fill-rule="evenodd" clip-rule="evenodd" d="M54.2884 0.416595C48.2052 0.416595 43.2657 5.40075 43.2657 11.5389C43.2657 17.6775 48.2052 22.6616 54.2884 22.6616C60.3719 22.6616 65.311 17.6775 65.311 11.5389C65.311 5.40075 60.3719 0.416595 54.2884 0.416595Z" fill="#70C7F0"/>
<path fill-rule="evenodd" clip-rule="evenodd" d="M32.7103 0.416595C26.6275 0.416595 21.6876 5.40075 21.6876 11.5389C21.6876 17.6775 26.6275 22.6616 32.7103 22.6616C38.7942 22.6616 43.7337 17.6775 43.7337 11.5389C43.7337 5.40075 38.7942 0.416595 32.7103 0.416595Z" fill="#00A2E5"/>
<path fill-rule="evenodd" clip-rule="evenodd" d="M11.0808 0.416595C4.99689 0.416595 0.0585327 5.40075 0.0585327 11.5389C0.0585327 17.6775 4.99689 22.6616 11.0808 22.6616C17.1644 22.6616 22.1035 17.6775 22.1035 11.5389C22.1035 5.40075 17.1644 0.416595 11.0808 0.416595Z" fill="#005984"/>
<path fill-rule="evenodd" clip-rule="evenodd" d="M67.8592 11.4866H62.7114C62.1912 10.6469 61.3076 10.1228 60.2679 10.1228C58.6562 10.1228 57.356 11.3817 57.356 13.008C57.356 14.5824 58.6562 15.8936 60.2679 15.8936C61.3076 15.8936 62.1912 15.3167 62.7114 14.4771H67.8592V11.4866Z" fill="#B9E1F8"/>
<path fill-rule="evenodd" clip-rule="evenodd" d="M62.6596 11.592H67.7549C68.2743 12.4313 69.2108 12.9554 70.2513 12.9554C71.8105 12.9554 73.1103 11.6969 73.1103 10.0702C73.1103 8.44357 71.8105 7.18466 70.2513 7.18466C69.2108 7.18466 68.2743 7.7096 67.7549 8.54848H62.6596V11.592Z" fill="#70C7F0"/>
<path fill-rule="evenodd" clip-rule="evenodd" d="M46.1254 11.4866H40.9776C40.5099 10.6469 39.5742 10.1228 38.5341 10.1228C36.9216 10.1228 35.6744 11.3817 35.6744 13.008C35.6744 14.5824 36.9216 15.8936 38.5341 15.8936C39.5742 15.8936 40.5099 15.3167 40.9776 14.4771H46.1254V11.4866Z" fill="#70C7F0"/>
<path fill-rule="evenodd" clip-rule="evenodd" d="M40.9261 11.592H46.0732C46.5409 12.4313 47.4766 12.9554 48.5171 12.9554C50.1284 12.9554 51.3768 11.6969 51.3768 10.0702C51.3768 8.44357 50.1284 7.18466 48.5171 7.18466C47.4766 7.18466 46.5409 7.7096 46.0732 8.54848H40.9261V11.592Z" fill="#00A2E5"/>
<path fill-rule="evenodd" clip-rule="evenodd" d="M24.184 11.4866H19.088C18.5678 10.6469 17.6317 10.1228 16.5923 10.1228C15.0324 10.1228 13.7326 11.3817 13.7326 13.008C13.7326 14.5824 15.0324 15.8936 16.5923 15.8936C17.6317 15.8936 18.5678 15.3167 19.088 14.4771H24.184V11.4866Z" fill="#00A2E5"/>
<path fill-rule="evenodd" clip-rule="evenodd" d="M18.9836 11.592H24.1311C24.6517 12.4313 25.5352 12.9554 26.5753 12.9554C28.1867 12.9554 29.4865 11.6969 29.4865 10.0702C29.4865 8.44357 28.1867 7.18466 26.5753 7.18466C25.5352 7.18466 24.6517 7.7096 24.1311 8.54848H18.9836V11.592Z" fill="#005984"/>
</g>
</g>
<defs>
<clipPath id="clip0_157_247">
<rect width="87" height="23" fill="white" transform="matrix(1 0 0 -1 0 23)"/>
</clipPath>
</defs>
</svg>
