<?xml version="1.0" encoding="UTF-8" standalone="no"?>
<!DOCTYPE svg PUBLIC "-//W3C//DTD SVG 1.1//EN" "http://www.w3.org/Graphics/SVG/1.1/DTD/svg11.dtd">
<svg width="100%" height="100%" viewBox="0 0 501 299" version="1.1" xmlns="http://www.w3.org/2000/svg" xmlns:xlink="http://www.w3.org/1999/xlink" xml:space="preserve" xmlns:serif="http://www.serif.com/" style="fill-rule:evenodd;clip-rule:evenodd;stroke-linejoin:round;stroke-miterlimit:2;">
    <g id="Artboard1" transform="matrix(1,0,0,1,-0.083332,1.0619)">
        <rect x="0.083" y="-1.062" width="500.115" height="298.547" style="fill:none;"/>
        <clipPath id="_clip1">
            <rect x="0.083" y="-1.062" width="500.115" height="298.547"/>
        </clipPath>
        <g clip-path="url(#_clip1)">
            <g transform="matrix(0.120965,0,0,0.12016,-77.7905,-509.699)">
                <g transform="matrix(1,0,0,1,3.9871,-4.2674)">
                    <path d="M1778.12,4909.86L1615.23,4909.86L1614.3,4478.65L1778.12,4909.86ZM2122.73,4909.86L1965.81,4909.86L2122.51,4474.38L2122.73,4909.86ZM1873.22,4596.88L1747.78,4257.73L1998.32,4257.73L1873.22,4596.88Z" style="fill:white;"/>
                </g>
                <g transform="matrix(1,0,0,1,3.9871,-1200.6)">
                    <path d="M2365.19,5803.22L2429.36,5803.22C2439.36,5827.45 2463.22,5844.52 2491.04,5844.52C2527.85,5844.52 2557.73,5814.63 2557.73,5777.82C2557.73,5741.02 2527.85,5711.13 2491.04,5711.13C2462.9,5711.13 2438.81,5728.6 2429.02,5753.26L2365.2,5753.26L2365.27,5453.74L2914.57,5453.74C2914.57,5453.74 3027.88,5450.33 3081.34,5528.88C3124.13,5591.76 3120.21,5641.13 3120.38,5650.38C3120.72,5668.47 3117.97,5745.21 3069.52,5792.95C3026.95,5834.89 2968.43,5848.83 2968.43,5848.83L3135.35,6106.12L2852.62,6106.12L2715.56,5870.66L2604.17,5870.66L2603.52,6106.12L2365.12,6106.11L2365.19,5803.22ZM2604.03,5604.29L2604.03,5732.39L2761.41,5732.39C2761.41,5732.39 2866.04,5739.19 2866.04,5667.71C2866.04,5619.13 2821.6,5604.29 2766.61,5604.29L2604.03,5604.29Z" style="fill:white;"/>
                </g>
                <g transform="matrix(1,0,0,1,3.9871,-1200.6)">
                    <path d="M1404.21,5803.22L1404.21,6106.09L1116.84,6106.12L866.761,5738.56L868.918,6106.12L630.234,6106.12L630.234,5453.77L934.64,5453.77L1163.75,5798.17L1163.39,5453.77L1404.2,5453.77L1404.21,5753.26L1440.09,5753.26C1449.87,5728.6 1473.96,5711.13 1502.1,5711.13C1538.91,5711.13 1568.79,5741.02 1568.79,5777.82C1568.79,5814.63 1538.91,5844.52 1502.1,5844.52C1474.28,5844.52 1450.42,5827.45 1440.42,5803.22L1404.21,5803.22Z" style="fill:white;"/>
                </g>
                <g transform="matrix(1,0,0,1,3.9871,457.073)">
                    <path d="M3552.66,4297.28L3544.64,4297.28C3520.05,4384.47 3439.86,4448.45 3344.85,4448.45C3230.3,4448.45 3137.29,4355.45 3137.29,4240.89C3137.29,4126.34 3230.3,4033.33 3344.85,4033.33C3440.87,4033.33 3521.75,4098.67 3545.41,4187.28L3496.74,4187.28C3487.1,4171.76 3469.91,4161.42 3450.31,4161.42C3420.17,4161.42 3395.7,4185.9 3395.7,4216.04C3395.7,4246.18 3420.17,4270.66 3450.31,4270.66C3470.96,4270.66 3488.95,4259.17 3498.23,4242.25L3574.07,4242.25L3574.07,4242.3L3589.86,4242.3L3589.89,4242.25L3590.15,4242.25L3590.15,4241.78C3599.52,4225.14 3617.35,4213.9 3637.78,4213.9C3667.93,4213.9 3692.4,4238.37 3692.4,4268.51C3692.4,4298.66 3667.93,4323.13 3637.78,4323.13C3618.19,4323.13 3600.99,4312.79 3591.35,4297.28L3583.18,4297.28C3606.8,4368.14 3673.7,4419.28 3752.46,4419.28C3831.22,4419.28 3898.12,4368.14 3921.74,4297.28L3952.25,4297.28C3927.66,4384.47 3847.47,4448.45 3752.46,4448.45C3657.45,4448.45 3577.27,4384.48 3552.66,4297.28ZM3930.85,4242.25L3909.87,4242.25L3909.85,4242.3L3909.59,4242.3L3909.59,4242.77C3900.22,4259.41 3882.39,4270.66 3861.96,4270.66C3831.81,4270.66 3807.34,4246.18 3807.34,4216.04C3807.34,4185.9 3831.81,4161.42 3861.96,4161.42C3881.55,4161.42 3898.75,4171.76 3908.38,4187.28L3922.64,4187.28C3899.86,4114.98 3832.24,4062.5 3752.46,4062.5C3672.68,4062.5 3605.06,4114.98 3582.28,4187.28L3551.9,4187.28C3575.56,4098.67 3656.44,4033.33 3752.46,4033.33C3848.48,4033.33 3929.36,4098.67 3953.01,4187.28L3959.51,4187.28C3983.17,4098.67 4064.05,4033.33 4160.07,4033.33C4256.09,4033.33 4336.97,4098.67 4360.62,4187.28L4317.04,4187.28C4307.41,4171.76 4290.21,4161.42 4270.62,4161.42C4240.47,4161.42 4216,4185.9 4216,4216.04C4216,4246.18 4240.47,4270.66 4270.62,4270.66C4291.26,4270.66 4309.25,4259.17 4318.53,4242.25L4389.29,4242.25L4389.29,4242.3L4410.17,4242.3L4410.19,4242.25L4410.46,4242.25L4410.46,4241.78C4419.82,4225.14 4437.65,4213.9 4458.09,4213.9C4488.23,4213.9 4512.7,4238.37 4512.7,4268.51C4512.7,4298.66 4488.23,4323.13 4458.09,4323.13C4438.49,4323.13 4421.29,4312.79 4411.66,4297.28L4398.39,4297.28C4422.01,4368.14 4488.92,4419.28 4567.68,4419.28C4666.13,4419.28 4746.07,4339.35 4746.07,4240.89C4746.07,4142.43 4666.13,4062.5 4567.68,4062.5C4487.9,4062.5 4420.28,4114.98 4397.49,4187.28L4367.12,4187.28C4390.78,4098.67 4471.66,4033.33 4567.68,4033.33C4682.23,4033.33 4775.23,4126.34 4775.23,4240.89C4775.23,4355.45 4682.23,4448.45 4567.68,4448.45C4472.67,4448.45 4392.48,4384.48 4367.88,4297.28L4359.86,4297.28C4335.27,4384.47 4255.08,4448.45 4160.07,4448.45C4065.06,4448.45 3984.87,4384.48 3960.27,4297.28L4003,4297.28C4012.63,4312.79 4029.83,4323.13 4049.43,4323.13C4079.57,4323.13 4104.04,4298.66 4104.04,4268.51C4104.04,4238.37 4079.57,4213.9 4049.43,4213.9C4028.78,4213.9 4010.79,4225.38 4001.51,4242.3L3930.85,4242.3L3930.85,4242.25Z" style="fill:white;"/>
                </g>
                <g transform="matrix(11.4759,0,0,11.4168,-62084.7,-17445.8)">
                    <path d="M5489.13,1999.82C5488.13,2000.58 5486.87,2001.12 5485.33,2001.41C5483.8,2001.72 5482.17,2001.87 5480.43,2001.87C5478.33,2001.87 5476.37,2001.51 5474.53,2000.79C5472.7,2000.07 5471.1,1998.98 5469.73,1997.52C5468.37,1996.05 5467.28,1994.17 5466.48,1991.89C5465.68,1989.61 5465.28,1986.9 5465.28,1983.77C5465.28,1980.5 5465.72,1977.72 5466.61,1975.44C5467.49,1973.16 5468.66,1971.29 5470.11,1969.84C5471.56,1968.39 5473.18,1967.33 5474.98,1966.66C5476.78,1966 5478.62,1965.66 5480.48,1965.66C5482.48,1965.66 5484.12,1965.77 5485.38,1965.99C5486.65,1966.21 5487.73,1966.5 5488.63,1966.87L5487.63,1970.52C5486.03,1969.75 5483.75,1969.37 5480.78,1969.37C5479.42,1969.37 5478.07,1969.62 5476.73,1970.12C5475.4,1970.62 5474.21,1971.43 5473.16,1972.57C5472.11,1973.7 5471.27,1975.18 5470.63,1977.02C5470,1978.85 5469.68,1981.1 5469.68,1983.77C5469.68,1986.16 5469.98,1988.27 5470.58,1990.07C5471.18,1991.87 5472.01,1993.37 5473.06,1994.57C5474.11,1995.77 5475.34,1996.66 5476.76,1997.27C5478.17,1997.87 5479.72,1998.16 5481.38,1998.16C5482.88,1998.16 5484.19,1998.02 5485.31,1997.72C5486.42,1997.41 5487.37,1997.03 5488.13,1996.57L5489.13,1999.82Z" style="fill:white;fill-rule:nonzero;"/>
                    <path d="M5503.13,1983.77C5503.13,1977.93 5504.37,1973.46 5506.83,1970.34C5509.3,1967.22 5512.82,1965.66 5517.38,1965.66C5519.85,1965.66 5521.98,1966.1 5523.78,1966.97C5525.58,1967.83 5527.07,1969.06 5528.26,1970.64C5529.44,1972.22 5530.32,1974.12 5530.88,1976.34C5531.45,1978.56 5531.73,1981.03 5531.73,1983.77C5531.73,1989.6 5530.49,1994.07 5528.01,1997.19C5525.52,2000.31 5521.98,2001.87 5517.38,2001.87C5514.95,2001.87 5512.84,2001.43 5511.06,2000.57C5509.27,1999.7 5507.79,1998.47 5506.61,1996.89C5505.42,1995.31 5504.55,1993.41 5503.98,1991.19C5503.42,1988.97 5503.13,1986.5 5503.13,1983.77ZM5507.53,1983.77C5507.53,1985.7 5507.72,1987.53 5508.11,1989.27C5508.49,1991 5509.08,1992.52 5509.88,1993.84C5510.68,1995.16 5511.71,1996.21 5512.96,1996.99C5514.21,1997.77 5515.68,1998.16 5517.38,1998.16C5520.48,1998.16 5522.92,1996.99 5524.68,1994.64C5526.45,1992.29 5527.33,1988.66 5527.33,1983.77C5527.33,1981.87 5527.14,1980.04 5526.76,1978.29C5526.37,1976.54 5525.77,1975.01 5524.96,1973.69C5524.14,1972.37 5523.11,1971.32 5521.86,1970.54C5520.61,1969.76 5519.12,1969.37 5517.38,1969.37C5514.32,1969.37 5511.91,1970.54 5510.16,1972.89C5508.41,1975.24 5507.53,1978.87 5507.53,1983.77Z" style="fill:white;fill-rule:nonzero;"/>
                    <path d="M5554.18,1978.37L5551.48,1973.32L5551.28,1973.32L5551.78,1978.37L5551.78,2001.27L5547.88,2001.27L5547.88,1965.72L5550.08,1965.72L5566.83,1989.07L5569.43,1993.87L5569.68,1993.87L5569.13,1989.07L5569.13,1966.27L5573.03,1966.27L5573.03,2001.82L5570.83,2001.82L5554.18,1978.37Z" style="fill:white;fill-rule:nonzero;"/>
                    <path d="M5604.93,1992.37C5604.93,1990.97 5604.52,1989.82 5603.68,1988.94C5602.85,1988.06 5601.81,1987.27 5600.56,1986.59C5599.31,1985.91 5597.95,1985.27 5596.48,1984.66C5595.02,1984.07 5593.66,1983.34 5592.41,1982.49C5591.16,1981.64 5590.12,1980.59 5589.28,1979.34C5588.45,1978.09 5588.03,1976.5 5588.03,1974.57C5588.03,1971.83 5588.98,1969.66 5590.88,1968.07C5592.78,1966.47 5595.48,1965.66 5598.98,1965.66C5601.02,1965.66 5602.87,1965.82 5604.53,1966.12C5606.2,1966.41 5607.5,1966.8 5608.43,1967.27L5607.18,1970.91C5606.42,1970.55 5605.29,1970.2 5603.81,1969.87C5602.32,1969.53 5600.65,1969.37 5598.78,1969.37C5596.58,1969.37 5594.93,1969.86 5593.83,1970.84C5592.73,1971.82 5592.18,1972.98 5592.18,1974.32C5592.18,1975.62 5592.6,1976.7 5593.43,1977.57C5594.27,1978.43 5595.31,1979.21 5596.56,1979.89C5597.81,1980.57 5599.17,1981.25 5600.63,1981.91C5602.1,1982.58 5603.46,1983.36 5604.71,1984.24C5605.96,1985.12 5607,1986.18 5607.83,1987.41C5608.67,1988.65 5609.08,1990.18 5609.08,1992.02C5609.08,1993.52 5608.82,1994.87 5608.28,1996.07C5607.75,1997.27 5606.97,1998.3 5605.93,1999.16C5604.9,2000.03 5603.65,2000.7 5602.18,2001.16C5600.72,2001.63 5599.05,2001.87 5597.18,2001.87C5594.68,2001.87 5592.62,2001.67 5590.98,2001.29C5589.35,2000.91 5588.08,2000.48 5587.18,2000.02L5588.58,1996.27C5589.35,1996.7 5590.48,1997.12 5591.98,1997.54C5593.48,1997.96 5595.17,1998.16 5597.03,1998.16C5598.13,1998.16 5599.17,1998.06 5600.13,1997.84C5601.1,1997.62 5601.93,1997.27 5602.63,1996.79C5603.33,1996.31 5603.89,1995.7 5604.31,1994.97C5604.72,1994.23 5604.93,1993.37 5604.93,1992.37Z" style="fill:white;fill-rule:nonzero;"/>
                    <path d="M5644.38,1966.27L5648.38,1966.27L5648.38,1989.62C5648.38,1991.72 5648.11,1993.53 5647.56,1995.07C5647.01,1996.6 5646.22,1997.86 5645.21,1998.84C5644.19,1999.82 5642.97,2000.55 5641.53,2001.02C5640.1,2001.48 5638.52,2001.72 5636.78,2001.72C5632.65,2001.72 5629.53,2000.78 5627.43,1998.91C5625.33,1997.05 5624.28,1994.22 5624.28,1990.41L5624.28,1966.27L5628.43,1966.27L5628.43,1988.47C5628.43,1990.23 5628.61,1991.72 5628.96,1992.94C5629.31,1994.16 5629.83,1995.14 5630.53,1995.89C5631.23,1996.64 5632.11,1997.18 5633.16,1997.52C5634.21,1997.85 5635.43,1998.02 5636.83,1998.02C5639.53,1998.02 5641.47,1997.27 5642.63,1995.79C5643.8,1994.31 5644.38,1991.87 5644.38,1988.47L5644.38,1966.27Z" style="fill:white;fill-rule:nonzero;"/>
                    <path d="M5686.68,2001.27L5665.98,2001.27L5665.98,1966.27L5670.13,1966.27L5670.13,1997.57L5686.68,1997.57L5686.68,2001.27Z" style="fill:white;fill-rule:nonzero;"/>
                    <path d="M5718.93,1969.97L5708.03,1969.97L5708.03,2001.27L5703.88,2001.27L5703.88,1969.97L5692.98,1969.97L5692.98,1966.27L5718.93,1966.27L5718.93,1969.97Z" style="fill:white;fill-rule:nonzero;"/>
                    <rect x="5736.13" y="1966.27" width="4.15" height="35" style="fill:white;fill-rule:nonzero;"/>
                    <path d="M5763.63,1978.37L5760.93,1973.32L5760.73,1973.32L5761.23,1978.37L5761.23,2001.27L5757.33,2001.27L5757.33,1965.72L5759.53,1965.72L5776.28,1989.07L5778.88,1993.87L5779.13,1993.87L5778.58,1989.07L5778.58,1966.27L5782.48,1966.27L5782.48,2001.82L5780.28,2001.82L5763.63,1978.37Z" style="fill:white;fill-rule:nonzero;"/>
                    <path d="M5810.38,1983.82L5822.13,1983.82L5822.13,1999.22C5821.6,1999.62 5820.96,1999.98 5820.21,2000.32C5819.46,2000.65 5818.66,2000.93 5817.81,2001.16C5816.96,2001.4 5816.07,2001.57 5815.16,2001.69C5814.24,2001.81 5813.35,2001.87 5812.48,2001.87C5810.25,2001.87 5808.2,2001.51 5806.33,2000.79C5804.47,2000.07 5802.85,1998.97 5801.48,1997.49C5800.12,1996.01 5799.05,1994.12 5798.28,1991.84C5797.52,1989.56 5797.13,1986.87 5797.13,1983.77C5797.13,1980.53 5797.6,1977.77 5798.53,1975.47C5799.47,1973.16 5800.68,1971.29 5802.18,1969.84C5803.68,1968.39 5805.37,1967.33 5807.23,1966.66C5809.1,1966 5810.97,1965.66 5812.83,1965.66C5814.83,1965.66 5816.48,1965.77 5817.78,1965.99C5819.08,1966.21 5820.18,1966.5 5821.08,1966.87L5820.03,1970.52C5818.43,1969.75 5816.15,1969.37 5813.18,1969.37C5811.78,1969.37 5810.39,1969.61 5809.01,1970.09C5807.62,1970.57 5806.38,1971.38 5805.28,1972.52C5804.18,1973.65 5803.28,1975.13 5802.58,1976.97C5801.88,1978.8 5801.53,1981.07 5801.53,1983.77C5801.53,1986.23 5801.82,1988.37 5802.38,1990.16C5802.95,1991.97 5803.74,1993.46 5804.76,1994.64C5805.77,1995.82 5807,1996.71 5808.43,1997.29C5809.87,1997.87 5811.43,1998.16 5813.13,1998.16C5815.27,1998.16 5817.08,1997.75 5818.58,1996.91L5818.58,1987.16L5810.38,1986.16L5810.38,1983.82Z" style="fill:white;fill-rule:nonzero;"/>
                </g>
            </g>
            <g transform="matrix(0.870425,0,0,0.870425,-1.07202,155.451)">
                <path d="M325.14,54.949C338.557,51.561 346.283,41.938 346.283,27.844C346.283,9.548 333.138,0.197 316.059,0.197L292.886,0.197L292.886,20.932C300.34,20.796 311.181,21.474 311.181,29.606C311.181,38.279 301.966,38.686 295.327,38.686L292.886,38.686L292.886,62.945L308.878,90.457L348.452,90.457L325.14,54.949ZM292.886,0.197L241.386,0.197L241.386,90.457L274.591,90.457L274.591,57.931L289.904,57.931L292.886,62.945L292.886,38.686L274.591,38.686L274.591,20.932L292.886,20.932L292.886,0.197Z" style="fill:rgb(0,162,229);"/>
                <path d="M241.386,0.197L190.971,0.197L173.489,47.495L156.006,0.197L104.37,0.197L104.37,90.457L137.574,90.457L137.574,30.284L160.478,90.457L186.092,90.457L208.047,30.284L208.047,90.457L241.386,90.457L241.386,0.197Z" style="fill:rgb(0,89,132);"/>
                <path d="M108.164,0.197L74.826,0.197L74.826,47.495L43.248,0.197L1.1,0.197L1.1,90.457L34.032,90.457L34.032,39.635L68.32,90.321L68.592,90.457L108.164,90.457L108.164,0.197Z" style="fill:rgb(0,162,229);"/>
                <path d="M122.179,35.84C118.385,35.84 115.133,38.145 113.777,41.396L108.057,41.396L108.057,48.444L113.777,48.444C115.133,51.696 118.385,54.001 122.179,54.001C127.194,54.001 131.26,49.934 131.26,44.92C131.26,39.906 127.194,35.84 122.179,35.84Z" style="fill:rgb(0,162,229);"/>
                <path d="M255.438,35.84C251.644,35.84 248.392,38.145 247.036,41.396L241.315,41.396L241.315,48.444L247.036,48.444C248.392,51.696 251.644,54.001 255.438,54.001C260.453,54.001 264.519,49.934 264.519,44.92C264.519,39.906 260.453,35.84 255.438,35.84Z" style="fill:rgb(0,89,132);"/>
                <g>
                    <path d="M547.266,90.457C531.411,90.457 518.538,77.582 518.538,61.726C518.538,45.869 531.411,32.994 547.266,32.994C563.125,32.994 576,45.869 576,61.726C576,77.582 563.125,90.457 547.266,90.457Z" style="fill:rgb(185,225,248);"/>
                    <path d="M490.889,90.457C475.033,90.457 462.158,77.582 462.158,61.726C462.158,45.869 475.033,32.994 490.889,32.994C506.746,32.994 519.62,45.869 519.62,61.726C519.62,77.582 506.746,90.457 490.889,90.457Z" style="fill:rgb(112,199,240);"/>
                    <path d="M434.645,90.457C418.79,90.457 405.914,77.582 405.914,61.726C405.914,45.869 418.79,32.994 434.645,32.994C450.503,32.994 463.378,45.869 463.378,61.726C463.378,77.582 450.503,90.457 434.645,90.457Z" style="fill:rgb(0,162,229);"/>
                    <path d="M378.267,90.457C362.409,90.457 349.537,77.582 349.537,61.726C349.537,45.869 362.409,32.994 378.267,32.994C394.124,32.994 406.998,45.869 406.998,61.726C406.998,77.582 394.124,90.457 378.267,90.457Z" style="fill:rgb(0,89,132);"/>
                    <path d="M526.262,61.861L512.844,61.861C511.488,64.03 509.185,65.384 506.475,65.384C502.274,65.384 498.885,62.132 498.885,57.931C498.885,53.864 502.274,50.477 506.475,50.477C509.185,50.477 511.488,51.967 512.844,54.136L526.262,54.136L526.262,61.861Z" style="fill:rgb(185,225,248);"/>
                    <path d="M512.709,61.589L525.99,61.589C527.344,59.421 529.785,58.067 532.497,58.067C536.561,58.067 539.949,61.318 539.949,65.52C539.949,69.722 536.561,72.974 532.497,72.974C529.785,72.974 527.344,71.618 525.99,69.451L512.709,69.451L512.709,61.589Z" style="fill:rgb(112,199,240);"/>
                    <path d="M469.612,61.861L456.194,61.861C454.975,64.03 452.536,65.384 449.825,65.384C445.622,65.384 442.371,62.132 442.371,57.931C442.371,53.864 445.622,50.477 449.825,50.477C452.536,50.477 454.975,51.967 456.194,54.136L469.612,54.136L469.612,61.861Z" style="fill:rgb(112,199,240);"/>
                    <path d="M456.06,61.589L469.476,61.589C470.695,59.421 473.134,58.067 475.846,58.067C480.046,58.067 483.3,61.318 483.3,65.52C483.3,69.722 480.046,72.974 475.846,72.974C473.134,72.974 470.695,71.618 469.476,69.451L456.06,69.451L456.06,61.589Z" style="fill:rgb(0,162,229);"/>
                    <path d="M412.421,61.861L399.138,61.861C397.782,64.03 395.342,65.384 392.633,65.384C388.567,65.384 385.179,62.132 385.179,57.931C385.179,53.864 388.567,50.477 392.633,50.477C395.342,50.477 397.782,51.967 399.138,54.136L412.421,54.136L412.421,61.861Z" style="fill:rgb(0,162,229);"/>
                    <path d="M398.866,61.589L412.283,61.589C413.64,59.421 415.943,58.067 418.654,58.067C422.854,58.067 426.242,61.318 426.242,65.52C426.242,69.722 422.854,72.974 418.654,72.974C415.943,72.974 413.64,71.618 412.283,69.451L398.866,69.451L398.866,61.589Z" style="fill:rgb(0,89,132);"/>
                </g>
                <path d="M42.023,157.166C39.469,158.486 34.114,159.804 27.356,159.804C11.701,159.804 0,149.914 0,131.623C0,114.155 11.783,102.454 29.004,102.454C35.843,102.454 40.293,103.938 42.188,104.926L40.376,110.776C37.739,109.458 33.866,108.469 29.252,108.469C16.233,108.469 7.581,116.792 7.581,131.374C7.581,145.052 15.408,153.705 28.84,153.705C33.289,153.705 37.739,152.8 40.623,151.4L42.023,157.166Z" style="fill:rgb(0,89,132);"/>
                <path d="M85.052,159.804C70.303,159.804 60.085,148.431 60.085,131.623C60.085,113.989 70.962,102.454 85.794,102.454C101.038,102.454 110.843,114.072 110.843,130.551C110.843,149.586 99.225,159.804 85.135,159.804L85.052,159.804ZM85.382,153.953C96.753,153.953 103.18,143.488 103.18,130.88C103.18,119.84 97.412,108.304 85.464,108.304C73.517,108.304 67.584,119.429 67.584,131.46C67.584,143.157 74.012,153.953 85.3,153.953L85.382,153.953Z" style="fill:rgb(0,89,132);"/>
                <path d="M132.043,158.896L132.043,103.36L139.953,103.36L157.669,131.46C161.707,137.968 165.003,143.736 167.557,149.505L167.804,149.42C167.145,142.005 166.981,135.248 166.981,126.68L166.981,103.36L173.737,103.36L173.737,158.896L166.486,158.896L148.852,130.717C144.98,124.536 141.271,118.191 138.553,112.177L138.306,112.26C138.718,119.263 138.8,125.938 138.8,135.165L138.8,158.896L132.043,158.896Z" style="fill:rgb(0,89,132);"/>
                <path d="M198.868,150.163C202.082,152.223 206.696,153.787 211.64,153.787C218.973,153.787 223.258,149.999 223.258,144.314C223.258,139.203 220.292,136.156 212.794,133.352C203.731,130.057 198.126,125.279 198.126,117.533C198.126,108.88 205.295,102.454 216.089,102.454C221.693,102.454 225.895,103.773 228.285,105.173L226.307,111.022C224.577,109.952 220.869,108.386 215.842,108.386C208.261,108.386 205.378,112.919 205.378,116.708C205.378,121.899 208.756,124.454 216.419,127.422C225.813,131.129 230.51,135.577 230.51,143.736C230.51,152.306 224.247,159.804 211.145,159.804C205.79,159.804 199.94,158.155 196.973,156.177L198.868,150.163Z" style="fill:rgb(0,89,132);"/>
                <path d="M261.079,103.36L261.079,136.32C261.079,148.679 266.6,153.953 274.016,153.953C282.174,153.953 287.529,148.514 287.529,136.32L287.529,103.36L294.781,103.36L294.781,135.825C294.781,152.882 285.8,159.804 273.769,159.804C262.398,159.804 253.828,153.376 253.828,136.071L253.828,103.36L261.079,103.36Z" style="fill:rgb(0,89,132);"/>
                <path d="M321.059,103.36L328.311,103.36L328.311,152.882L352.04,152.882L352.04,158.896L321.059,158.896L321.059,103.36Z" style="fill:rgb(0,89,132);"/>
                <path d="M382.063,109.458L365.17,109.458L365.17,103.36L406.289,103.36L406.289,109.458L389.315,109.458L389.315,158.896L382.063,158.896L382.063,109.458Z" style="fill:rgb(0,89,132);"/>
                <rect x="431.992" y="103.36" width="7.252" height="55.536" style="fill:rgb(0,89,132);"/>
                <path d="M466.094,158.896L466.094,103.36L474.006,103.36L491.72,131.46C495.757,137.968 499.054,143.736 501.608,149.505L501.856,149.42C501.196,142.005 501.032,135.248 501.032,126.68L501.032,103.36L507.788,103.36L507.788,158.896L500.538,158.896L482.905,130.717C479.031,124.536 475.324,118.191 472.603,112.177L472.357,112.26C472.768,119.263 472.852,125.938 472.852,135.165L472.852,158.896L466.094,158.896Z" style="fill:rgb(0,89,132);"/>
                <path d="M574.555,156.423C571.339,157.661 564.913,159.475 557.415,159.475C549.009,159.475 542.088,157.332 536.651,152.141C531.871,147.525 528.905,140.109 528.905,131.46C528.905,114.896 540.358,102.784 558.979,102.784C565.408,102.784 570.516,104.185 572.906,105.339L571.093,111.188C568.128,109.787 564.419,108.798 558.816,108.798C545.303,108.798 536.486,117.202 536.486,131.129C536.486,145.22 544.89,153.542 557.909,153.542C562.606,153.542 565.82,152.882 567.468,152.058L567.468,135.496L556.262,135.496L556.262,129.728L574.555,129.728L574.555,156.423Z" style="fill:rgb(0,89,132);"/>
            </g>
        </g>
    </g>
</svg>
