<?xml version="1.0" encoding="UTF-8"?>
<svg id="Layer_1" data-name="Layer 1" xmlns="http://www.w3.org/2000/svg" viewBox="0 0 399.36 113.55">
  <defs>
    <style>
      .cls-1 {
        fill: none;
      }

      .cls-2, .cls-3 {
        fill: #fff;
      }

      .cls-3 {
        fill-rule: evenodd;
      }
    </style>
  </defs>
  <g id="Artboard1">
    <rect class="cls-1" width="399.36" height="113.55"/>
    <g>
      <path class="cls-3" d="m122.41,34.77L110.47,2.46h23.88l-11.94,32.31Z"/>
      <path class="cls-3" d="m113.47,64.17l-15.63-41.16v41.16"/>
      <path class="cls-3" d="m131.03,64.19l15.01-41.15v41.15"/>
      <path class="cls-3" d="m205.74,28.74c4.54,0,10.84-.28,10.84-6.21,0-5.52-7.3-6.02-12.39-5.93h-.12s-12.51,0-12.51,0v12.14h14.18Zm-3.71,13.16l2.04,3.43,10.94,18.82h27.07l-15.94-24.29c9.18-2.32,14.46-8.9,14.46-18.54,0-12.51-8.99-18.91-20.67-18.91h-51.07v28.18h3.86c.93-2.22,3.15-3.8,5.75-3.8,3.43,0,6.21,2.78,6.21,6.21s-2.78,6.21-6.21,6.21c-2.6,0-4.82-1.58-5.75-3.8h-3.86v28.73h22.71v-22.25h10.47Z"/>
      <path class="cls-3" d="m357.94,37.74c2.82-8.4,10.76-14.45,20.1-14.45,11.7,0,21.21,9.5,21.21,21.21s-9.5,21.21-21.21,21.21c-9.34,0-17.28-6.05-20.1-14.45-2.76,7.52-9.98,12.89-18.46,12.89s-15.61-5.31-18.41-12.76c-2.86,8.33-10.77,14.32-20.06,14.32s-17.28-6.05-20.1-14.45c-2.76,7.52-9.98,12.89-18.45,12.89-10.85,0-19.65-8.81-19.65-19.65s8.8-19.65,19.65-19.65c8.47,0,15.7,5.37,18.45,12.89,2.82-8.39,10.76-14.45,20.1-14.45s17.2,5.99,20.06,14.32c2.79-7.45,9.99-12.76,18.41-12.76s15.7,5.37,18.46,12.89Zm5.74,6.39v.46h-9.18c-.93,1.48-2.5,2.41-4.36,2.41-2.87,0-5.19-2.22-5.19-5.1s2.32-5.1,5.19-5.1c1.85,0,3.43,1.02,4.36,2.5h6.21c2.23-7.46,9.15-12.9,17.34-12.9,9.99,0,18.1,8.11,18.1,18.1s-8.11,18.1-18.1,18.1c-8.15,0-15.05-5.4-17.31-12.81h2.76c.93,1.48,2.6,2.41,4.45,2.41,2.78,0,5.1-2.22,5.1-5.1s-2.32-5.1-5.1-5.1c-1.74,0-3.31.81-4.26,2.13Zm-45.35,5.65c-2.26,7.41-9.16,12.81-17.31,12.81s-15.05-5.4-17.31-12.81h2.02c.93,1.48,2.5,2.41,4.36,2.41,2.87,0,5.19-2.22,5.19-5.1s-2.32-5.1-5.19-5.1c-1.79,0-3.33.87-4.26,2.26v.33h-9.09c-.93,1.48-2.6,2.41-4.45,2.41-2.78,0-5.1-2.22-5.1-5.1s2.32-5.1,5.1-5.1c1.85,0,3.52,1.02,4.45,2.5h6.95c2.23-7.46,9.16-12.9,17.34-12.9s15.11,5.44,17.34,12.9h-2.6c-.83-1.48-2.5-2.5-4.36-2.5-2.87,0-5.1,2.32-5.1,5.1s2.22,5.1,5.1,5.1c1.79,0,3.4-.86,4.26-2.25v-.34h9.18c.83-1.48,2.5-2.41,4.36-2.41,2.87,0,5.1,2.22,5.1,5.1s-2.23,5.1-5.1,5.1c-1.85,0-3.52-.93-4.36-2.41h-6.51Z"/>
      <path class="cls-3" d="m77.73,35.41h3.84c.93,2.22,3.15,3.8,5.75,3.8,3.43,0,6.21-2.78,6.21-6.21s-2.78-6.21-6.21-6.21c-2.59,0-4.82,1.58-5.75,3.8h-3.84V2.42h-22.8v32.35L33.33,2.42H4.5v61.73h22.52V29.39l23.45,34.67.19.09h27.06v-28.73Z"/>
      <g>
        <path class="cls-3" d="m223.33,72.97h4.96v33.87h16.23v4.11h-21.19v-37.98Z"/>
        <path class="cls-3" d="m32.49,109.77c-1.75.9-5.41,1.8-10.03,1.8-10.71,0-18.71-6.76-18.71-19.27s8.06-19.95,19.84-19.95c4.68,0,7.72,1.01,9.02,1.69l-1.24,4c-1.8-.9-4.45-1.58-7.61-1.58-8.9,0-14.82,5.69-14.82,15.67,0,9.35,5.35,15.27,14.54,15.27,3.04,0,6.09-.62,8.06-1.58l.96,3.94Z"/>
        <path class="cls-3" d="m61.92,111.58c-10.09,0-17.08-7.78-17.08-19.27,0-12.06,7.44-19.95,17.58-19.95s17.13,7.95,17.13,19.22c0,13.02-7.95,20.01-17.58,20.01h-.06Zm.23-4c7.78,0,12.17-7.16,12.17-15.78,0-7.55-3.94-15.44-12.12-15.44s-12.23,7.61-12.23,15.84,4.4,15.38,12.12,15.38h.06Z"/>
        <path class="cls-3" d="m94.06,110.96v-37.98h5.41l12.12,19.22c2.76,4.45,5.02,8.4,6.76,12.34l.17-.06c-.45-5.07-.56-9.69-.56-15.55v-15.95h4.62v37.98h-4.96l-12.06-19.27c-2.65-4.23-5.18-8.57-7.04-12.68l-.17.06c.28,4.79.34,9.35.34,15.67v16.23h-4.62Z"/>
        <path class="cls-3" d="m139.76,104.98c2.2,1.41,5.35,2.48,8.74,2.48,5.02,0,7.95-2.59,7.95-6.48,0-3.5-2.03-5.58-7.16-7.5-6.2-2.25-10.03-5.52-10.03-10.82,0-5.92,4.9-10.31,12.29-10.31,3.83,0,6.71.9,8.34,1.86l-1.35,4c-1.18-.73-3.72-1.8-7.16-1.8-5.18,0-7.16,3.1-7.16,5.69,0,3.55,2.31,5.3,7.55,7.33,6.42,2.54,9.64,5.58,9.64,11.16,0,5.86-4.28,10.99-13.24,10.99-3.66,0-7.66-1.13-9.69-2.48l1.3-4.11Z"/>
        <path class="cls-3" d="m182.31,72.97v22.54c0,8.45,3.78,12.06,8.85,12.06,5.58,0,9.24-3.72,9.24-12.06v-22.54h4.96v22.2c0,11.67-6.14,16.4-14.37,16.4-7.78,0-13.64-4.4-13.64-16.23v-22.37h4.96Z"/>
        <path class="cls-3" d="m265.06,77.14h-11.55v-4.17h28.12v4.17h-11.61v33.81h-4.96v-33.81Z"/>
        <rect class="cls-2" x="299.2" y="72.97" width="4.96" height="37.98"/>
        <path class="cls-3" d="m322.53,110.96v-37.98h5.41l12.12,19.22c2.76,4.45,5.02,8.4,6.76,12.34l.17-.06c-.45-5.07-.56-9.69-.56-15.55v-15.95h4.62v37.98h-4.96l-12.06-19.27c-2.65-4.23-5.18-8.57-7.05-12.68l-.17.06c.28,4.79.34,9.35.34,15.67v16.23h-4.62Z"/>
        <path class="cls-3" d="m396.71,109.26c-2.2.85-6.59,2.09-11.72,2.09-5.75,0-10.48-1.47-14.2-5.02-3.27-3.16-5.3-8.23-5.3-14.14,0-11.33,7.83-19.61,20.57-19.61,4.4,0,7.89.96,9.53,1.75l-1.24,4c-2.03-.96-4.56-1.63-8.4-1.63-9.24,0-15.27,5.75-15.27,15.27s5.75,15.33,14.65,15.33c3.21,0,5.41-.45,6.54-1.01v-11.33h-7.66v-3.94h12.51v18.26Z"/>
      </g>
    </g>
  </g>
</svg>