<?xml version="1.0" encoding="UTF-8" standalone="no"?>
<!DOCTYPE svg PUBLIC "-//W3C//DTD SVG 1.1//EN" "http://www.w3.org/Graphics/SVG/1.1/DTD/svg11.dtd">
<svg width="100%" height="100%" viewBox="0 0 502 143" version="1.1" xmlns="http://www.w3.org/2000/svg" xmlns:xlink="http://www.w3.org/1999/xlink" xml:space="preserve" xmlns:serif="http://www.serif.com/" style="fill-rule:evenodd;clip-rule:evenodd;stroke-linejoin:round;stroke-miterlimit:2;">
    <g id="Artboard1" transform="matrix(1,0,0,0.939222,2.0651,-91.2758)">
        <rect x="-2.065" y="97.182" width="501.193" height="151.721" style="fill:none;"/>
        <g transform="matrix(0.117087,0,0,0.124664,-65.1714,-428.096)">
            <g transform="matrix(1,0,0,1,3.9871,-4.2674)">
                <path d="M1847,4590.45L1719.01,4244.18L1974.99,4244.18L1847,4590.45Z" style="fill:rgb(42,48,57);"/>
            </g>
            <g transform="matrix(1,0,0,1,4.00288,-4.1029)">
                <path d="M1751.2,4905.47L1583.72,4464.28L1583.72,4905.47" style="fill:rgb(42,48,57);"/>
            </g>
            <g transform="matrix(-1,0,0,1,3688.72,-2.02194)">
                <path d="M1745.32,4903.6L1584.41,4462.55L1584.42,4903.6" style="fill:rgb(42,48,57);"/>
            </g>
            <g transform="matrix(1,0,0,1,3.9871,-4.2674)">
                <path d="M2740.16,4525.87C2788.83,4525.87 2856.38,4522.89 2856.38,4459.31C2856.38,4400.16 2778.15,4394.81 2723.55,4395.7L2722.27,4395.72L2588.15,4395.72L2588.15,4525.87L2740.16,4525.87ZM2700.41,4666.95L2722.27,4703.71L2839.5,4905.39L3129.61,4905.39L2958.71,4645.09C3057.07,4620.26 3113.71,4549.71 3113.71,4446.39C3113.71,4312.27 3017.34,4243.72 2892.14,4243.72L2344.74,4243.72L2344.74,4545.74L2386.15,4545.74C2396.1,4521.91 2419.93,4505.01 2447.75,4505.01C2484.51,4505.01 2514.32,4534.82 2514.32,4571.57C2514.32,4608.33 2484.51,4638.14 2447.75,4638.14C2419.93,4638.14 2396.1,4621.25 2386.15,4597.41L2344.74,4597.41L2344.74,4905.39L2588.15,4905.39L2588.15,4666.95L2700.41,4666.95Z" style="fill:rgb(42,48,57);"/>
            </g>
            <g transform="matrix(1,0,0,1,3.9871,-4.2674)">
                <path d="M4371.59,4622.36C4401.86,4532.37 4486.94,4467.48 4587.06,4467.48C4712.51,4467.48 4814.36,4569.33 4814.36,4694.77C4814.36,4820.21 4712.52,4922.06 4587.06,4922.06C4486.94,4922.06 4401.86,4857.17 4371.59,4767.18C4342.04,4847.8 4264.58,4905.39 4173.77,4905.39C4083.5,4905.39 4006.41,4848.47 3976.48,4768.61C3945.8,4857.85 3861.07,4922.06 3761.46,4922.06C3661.35,4922.06 3576.25,4857.17 3545.98,4767.2C3516.42,4847.81 3438.97,4905.39 3348.17,4905.39C3231.92,4905.39 3137.56,4811.01 3137.56,4694.77C3137.56,4578.53 3231.92,4484.15 3348.17,4484.15C3438.97,4484.15 3516.43,4541.74 3545.98,4622.34C3576.25,4532.37 3661.35,4467.48 3761.46,4467.48C3861.07,4467.48 3945.8,4531.69 3976.48,4620.94C4006.42,4541.07 4083.51,4484.15 4173.77,4484.15C4264.57,4484.15 4342.03,4541.74 4371.59,4622.36ZM4433.08,4690.8L4433.08,4695.76L4334.72,4695.76C4324.78,4711.66 4307.9,4721.59 4288.03,4721.59C4257.23,4721.59 4232.39,4697.75 4232.39,4666.95C4232.39,4637.14 4257.23,4612.31 4288.03,4612.31C4307.9,4612.31 4324.78,4623.23 4334.72,4639.13L4401.24,4639.13C4425.18,4559.16 4499.36,4500.81 4587.06,4500.81C4694.12,4500.81 4781.03,4587.73 4781.03,4694.77C4781.03,4801.81 4694.12,4888.73 4587.06,4888.73C4499.72,4888.73 4425.79,4830.85 4401.54,4751.4L4431.09,4751.4C4441.02,4767.29 4458.91,4777.23 4478.79,4777.23C4508.58,4777.23 4533.42,4753.39 4533.42,4722.59C4533.42,4691.78 4508.58,4667.95 4478.79,4667.95C4460.18,4667.95 4443.31,4676.65 4433.08,4690.8ZM3947.02,4751.4C3922.76,4830.86 3848.81,4888.73 3761.46,4888.73C3674.13,4888.73 3600.18,4830.85 3575.93,4751.4L3597.53,4751.4C3607.48,4767.29 3624.37,4777.23 3644.24,4777.23C3675.03,4777.23 3699.86,4753.39 3699.86,4722.59C3699.86,4691.78 3675.03,4667.95 3644.24,4667.95C3625.02,4667.95 3608.6,4677.23 3598.55,4692.21L3598.55,4695.76L3501.17,4695.76C3491.23,4711.66 3473.35,4721.59 3453.49,4721.59C3423.68,4721.59 3398.84,4697.75 3398.84,4666.95C3398.84,4637.14 3423.68,4612.31 3453.49,4612.31C3473.35,4612.31 3491.23,4623.23 3501.17,4639.13L3575.62,4639.13C3599.57,4559.16 3673.77,4500.81 3761.46,4500.81C3849.18,4500.81 3923.38,4559.17 3947.32,4639.13L3919.43,4639.13C3910.5,4623.23 3892.62,4612.31 3872.74,4612.31C3841.93,4612.31 3818.1,4637.14 3818.1,4666.95C3818.1,4697.75 3841.93,4721.59 3872.74,4721.59C3891.91,4721.59 3909.23,4712.35 3918.45,4697.43L3918.45,4693.77L4016.8,4693.77C4025.74,4677.88 4043.62,4667.95 4063.5,4667.95C4094.29,4667.95 4118.14,4691.78 4118.14,4722.59C4118.14,4753.39 4094.29,4777.23 4063.5,4777.23C4043.62,4777.23 4025.74,4767.29 4016.8,4751.4L3947.02,4751.4Z" style="fill:rgb(42,48,57);"/>
            </g>
            <g transform="matrix(1,0,0,1,3.9871,-4.2674)">
                <path d="M1368.12,4597.41L1409.27,4597.41C1419.21,4621.25 1443.05,4638.14 1470.86,4638.14C1507.63,4638.14 1537.43,4608.33 1537.43,4571.57C1537.43,4534.82 1507.63,4505.01 1470.86,4505.01C1443.05,4505.01 1419.21,4521.91 1409.27,4545.74L1368.12,4545.74L1368.12,4243.72L1123.73,4243.72L1123.73,4590.45L892.241,4243.72L583.265,4243.72L583.265,4905.39L824.681,4905.39L824.681,4532.83L1076.04,4904.4L1078.03,4905.39L1368.12,4905.39L1368.12,4597.41Z" style="fill:rgb(42,48,57);"/>
            </g>
            <g>
                <g transform="matrix(7.33072,0,0,7.33072,579.189,4238.01)">
                    <path d="M321.059,103.36L328.311,103.36L328.311,152.882L352.04,152.882L352.04,158.896L321.059,158.896L321.059,103.36Z" style="fill:rgb(42,48,57);"/>
                </g>
                <g transform="matrix(7.33072,0,0,7.33072,579.189,4238.01)">
                    <path d="M42.023,157.166C39.469,158.486 34.114,159.804 27.356,159.804C11.701,159.804 0,149.914 0,131.623C0,114.155 11.783,102.454 29.004,102.454C35.843,102.454 40.293,103.938 42.188,104.926L40.376,110.776C37.739,109.458 33.866,108.469 29.252,108.469C16.233,108.469 7.581,116.792 7.581,131.374C7.581,145.052 15.408,153.705 28.84,153.705C33.289,153.705 37.739,152.8 40.623,151.4L42.023,157.166Z" style="fill:rgb(42,48,57);"/>
                </g>
                <g transform="matrix(7.33072,0,0,7.33072,579.189,4238.01)">
                    <path d="M85.052,159.804C70.303,159.804 60.085,148.431 60.085,131.623C60.085,113.989 70.962,102.454 85.794,102.454C101.038,102.454 110.843,114.072 110.843,130.551C110.843,149.586 99.225,159.804 85.135,159.804L85.052,159.804ZM85.382,153.953C96.753,153.953 103.18,143.488 103.18,130.88C103.18,119.84 97.412,108.304 85.464,108.304C73.517,108.304 67.584,119.429 67.584,131.46C67.584,143.157 74.012,153.953 85.3,153.953L85.382,153.953Z" style="fill:rgb(42,48,57);"/>
                </g>
                <g transform="matrix(7.33072,0,0,7.33072,579.189,4238.01)">
                    <path d="M132.043,158.896L132.043,103.36L139.953,103.36L157.669,131.46C161.707,137.968 165.003,143.736 167.557,149.505L167.804,149.42C167.145,142.005 166.981,135.248 166.981,126.68L166.981,103.36L173.737,103.36L173.737,158.896L166.486,158.896L148.852,130.717C144.98,124.536 141.271,118.191 138.553,112.177L138.306,112.26C138.718,119.263 138.8,125.938 138.8,135.165L138.8,158.896L132.043,158.896Z" style="fill:rgb(42,48,57);"/>
                </g>
                <g transform="matrix(7.33072,0,0,7.33072,579.189,4238.01)">
                    <path d="M198.868,150.163C202.082,152.223 206.696,153.787 211.64,153.787C218.973,153.787 223.258,149.999 223.258,144.314C223.258,139.203 220.292,136.156 212.794,133.352C203.731,130.057 198.126,125.279 198.126,117.533C198.126,108.88 205.295,102.454 216.089,102.454C221.693,102.454 225.895,103.773 228.285,105.173L226.307,111.022C224.577,109.952 220.869,108.386 215.842,108.386C208.261,108.386 205.378,112.919 205.378,116.708C205.378,121.899 208.756,124.454 216.419,127.422C225.813,131.129 230.51,135.577 230.51,143.736C230.51,152.306 224.247,159.804 211.145,159.804C205.79,159.804 199.94,158.155 196.973,156.177L198.868,150.163Z" style="fill:rgb(42,48,57);"/>
                </g>
                <g transform="matrix(7.33072,0,0,7.33072,579.189,4238.01)">
                    <path d="M261.079,103.36L261.079,136.32C261.079,148.679 266.6,153.953 274.016,153.953C282.174,153.953 287.529,148.514 287.529,136.32L287.529,103.36L294.781,103.36L294.781,135.825C294.781,152.882 285.8,159.804 273.769,159.804C262.398,159.804 253.828,153.376 253.828,136.071L253.828,103.36L261.079,103.36Z" style="fill:rgb(42,48,57);"/>
                </g>
                <g transform="matrix(7.33072,0,0,7.33072,579.189,4238.01)">
                    <path d="M382.063,109.458L365.17,109.458L365.17,103.36L406.289,103.36L406.289,109.458L389.315,109.458L389.315,158.896L382.063,158.896L382.063,109.458Z" style="fill:rgb(42,48,57);"/>
                </g>
                <g transform="matrix(7.33072,0,0,7.33072,579.189,4238.01)">
                    <rect x="431.992" y="103.36" width="7.252" height="55.536" style="fill:rgb(42,48,57);"/>
                </g>
                <g transform="matrix(7.33072,0,0,7.33072,579.189,4238.01)">
                    <path d="M466.094,158.896L466.094,103.36L474.006,103.36L491.72,131.46C495.757,137.968 499.054,143.736 501.608,149.505L501.856,149.42C501.196,142.005 501.032,135.248 501.032,126.68L501.032,103.36L507.788,103.36L507.788,158.896L500.538,158.896L482.905,130.717C479.031,124.536 475.324,118.191 472.603,112.177L472.357,112.26C472.768,119.263 472.852,125.938 472.852,135.165L472.852,158.896L466.094,158.896Z" style="fill:rgb(42,48,57);"/>
                </g>
                <g transform="matrix(7.33072,0,0,7.33072,579.189,4238.01)">
                    <path d="M574.555,156.423C571.339,157.661 564.913,159.475 557.415,159.475C549.009,159.475 542.088,157.332 536.651,152.141C531.871,147.525 528.905,140.109 528.905,131.46C528.905,114.896 540.358,102.784 558.979,102.784C565.408,102.784 570.516,104.185 572.906,105.339L571.093,111.188C568.128,109.787 564.419,108.798 558.816,108.798C545.303,108.798 536.486,117.202 536.486,131.129C536.486,145.22 544.89,153.542 557.909,153.542C562.606,153.542 565.82,152.882 567.468,152.058L567.468,135.496L556.262,135.496L556.262,129.728L574.555,129.728L574.555,156.423Z" style="fill:rgb(42,48,57);"/>
                </g>
            </g>
        </g>
    </g>
</svg>
