<?xml version="1.0" encoding="UTF-8" standalone="no"?>
<!DOCTYPE svg PUBLIC "-//W3C//DTD SVG 1.1//EN" "http://www.w3.org/Graphics/SVG/1.1/DTD/svg11.dtd">
<svg width="100%" height="100%" viewBox="0 0 2400 667" version="1.1" xmlns="http://www.w3.org/2000/svg" xmlns:xlink="http://www.w3.org/1999/xlink" xml:space="preserve" xmlns:serif="http://www.serif.com/" style="fill-rule:evenodd;clip-rule:evenodd;stroke-linejoin:round;stroke-miterlimit:2;">
    <g transform="matrix(4.16667,0,0,4.16667,0,0)">
        <path d="M325.14,54.949C338.557,51.561 346.283,41.938 346.283,27.844C346.283,9.548 333.138,0.197 316.059,0.197L292.886,0.197L292.886,20.932C300.34,20.796 311.181,21.474 311.181,29.606C311.181,38.279 301.966,38.686 295.327,38.686L292.886,38.686L292.886,62.945L308.878,90.457L348.452,90.457L325.14,54.949ZM292.886,0.197L241.386,0.197L241.386,90.457L274.591,90.457L274.591,57.931L289.904,57.931L292.886,62.945L292.886,38.686L274.591,38.686L274.591,20.932L292.886,20.932L292.886,0.197Z" style="fill:rgb(0,162,229);"/>
        <path d="M241.386,0.197L190.971,0.197L173.489,47.495L156.006,0.197L104.37,0.197L104.37,90.457L137.574,90.457L137.574,30.284L160.478,90.457L186.092,90.457L208.047,30.284L208.047,90.457L241.386,90.457L241.386,0.197Z" style="fill:rgb(0,89,132);"/>
        <path d="M108.164,0.197L74.826,0.197L74.826,47.495L43.248,0.197L1.1,0.197L1.1,90.457L34.032,90.457L34.032,39.635L68.32,90.321L68.592,90.457L108.164,90.457L108.164,0.197Z" style="fill:rgb(0,162,229);"/>
        <path d="M122.179,35.84C118.385,35.84 115.133,38.145 113.777,41.396L108.057,41.396L108.057,48.444L113.777,48.444C115.133,51.696 118.385,54.001 122.179,54.001C127.194,54.001 131.26,49.934 131.26,44.92C131.26,39.906 127.194,35.84 122.179,35.84Z" style="fill:rgb(0,162,229);"/>
        <path d="M255.438,35.84C251.644,35.84 248.392,38.145 247.036,41.396L241.315,41.396L241.315,48.444L247.036,48.444C248.392,51.696 251.644,54.001 255.438,54.001C260.453,54.001 264.519,49.934 264.519,44.92C264.519,39.906 260.453,35.84 255.438,35.84Z" style="fill:rgb(0,89,132);"/>
        <path d="M547.266,90.457C531.411,90.457 518.538,77.582 518.538,61.726C518.538,45.869 531.411,32.994 547.266,32.994C563.125,32.994 576,45.869 576,61.726C576,77.582 563.125,90.457 547.266,90.457Z" style="fill:rgb(185,225,248);"/>
        <path d="M490.889,90.457C475.033,90.457 462.158,77.582 462.158,61.726C462.158,45.869 475.033,32.994 490.889,32.994C506.746,32.994 519.62,45.869 519.62,61.726C519.62,77.582 506.746,90.457 490.889,90.457Z" style="fill:rgb(112,199,240);"/>
        <path d="M434.645,90.457C418.79,90.457 405.914,77.582 405.914,61.726C405.914,45.869 418.79,32.994 434.645,32.994C450.503,32.994 463.378,45.869 463.378,61.726C463.378,77.582 450.503,90.457 434.645,90.457Z" style="fill:rgb(0,162,229);"/>
        <path d="M378.267,90.457C362.409,90.457 349.537,77.582 349.537,61.726C349.537,45.869 362.409,32.994 378.267,32.994C394.124,32.994 406.998,45.869 406.998,61.726C406.998,77.582 394.124,90.457 378.267,90.457Z" style="fill:rgb(0,89,132);"/>
        <path d="M526.262,61.861L512.844,61.861C511.488,64.03 509.185,65.384 506.475,65.384C502.274,65.384 498.885,62.132 498.885,57.931C498.885,53.864 502.274,50.477 506.475,50.477C509.185,50.477 511.488,51.967 512.844,54.136L526.262,54.136L526.262,61.861Z" style="fill:rgb(185,225,248);"/>
        <path d="M512.709,61.589L525.99,61.589C527.344,59.421 529.785,58.067 532.497,58.067C536.561,58.067 539.949,61.318 539.949,65.52C539.949,69.722 536.561,72.974 532.497,72.974C529.785,72.974 527.344,71.618 525.99,69.451L512.709,69.451L512.709,61.589Z" style="fill:rgb(112,199,240);"/>
        <path d="M469.612,61.861L456.194,61.861C454.975,64.03 452.536,65.384 449.825,65.384C445.622,65.384 442.371,62.132 442.371,57.931C442.371,53.864 445.622,50.477 449.825,50.477C452.536,50.477 454.975,51.967 456.194,54.136L469.612,54.136L469.612,61.861Z" style="fill:rgb(112,199,240);"/>
        <path d="M456.06,61.589L469.476,61.589C470.695,59.421 473.134,58.067 475.846,58.067C480.046,58.067 483.3,61.318 483.3,65.52C483.3,69.722 480.046,72.974 475.846,72.974C473.134,72.974 470.695,71.618 469.476,69.451L456.06,69.451L456.06,61.589Z" style="fill:rgb(0,162,229);"/>
        <path d="M412.421,61.861L399.138,61.861C397.782,64.03 395.342,65.384 392.633,65.384C388.567,65.384 385.179,62.132 385.179,57.931C385.179,53.864 388.567,50.477 392.633,50.477C395.342,50.477 397.782,51.967 399.138,54.136L412.421,54.136L412.421,61.861Z" style="fill:rgb(0,162,229);"/>
        <path d="M398.866,61.589L412.283,61.589C413.64,59.421 415.943,58.067 418.654,58.067C422.854,58.067 426.242,61.318 426.242,65.52C426.242,69.722 422.854,72.974 418.654,72.974C415.943,72.974 413.64,71.618 412.283,69.451L398.866,69.451L398.866,61.589Z" style="fill:rgb(0,89,132);"/>
        <path d="M42.023,157.166C39.469,158.486 34.114,159.804 27.356,159.804C11.701,159.804 0,149.914 0,131.623C0,114.155 11.783,102.454 29.004,102.454C35.843,102.454 40.293,103.938 42.188,104.926L40.376,110.776C37.739,109.458 33.866,108.469 29.252,108.469C16.233,108.469 7.581,116.792 7.581,131.374C7.581,145.052 15.408,153.705 28.84,153.705C33.289,153.705 37.739,152.8 40.623,151.4L42.023,157.166Z" style="fill:rgb(0,89,132);"/>
        <path d="M85.052,159.804C70.303,159.804 60.085,148.431 60.085,131.623C60.085,113.989 70.962,102.454 85.794,102.454C101.038,102.454 110.843,114.072 110.843,130.551C110.843,149.586 99.225,159.804 85.135,159.804L85.052,159.804ZM85.382,153.953C96.753,153.953 103.18,143.488 103.18,130.88C103.18,119.84 97.412,108.304 85.464,108.304C73.517,108.304 67.584,119.429 67.584,131.46C67.584,143.157 74.012,153.953 85.3,153.953L85.382,153.953Z" style="fill:rgb(0,89,132);"/>
        <path d="M132.043,158.896L132.043,103.36L139.953,103.36L157.669,131.46C161.707,137.968 165.003,143.736 167.557,149.505L167.804,149.42C167.145,142.005 166.981,135.248 166.981,126.68L166.981,103.36L173.737,103.36L173.737,158.896L166.486,158.896L148.852,130.717C144.98,124.536 141.271,118.191 138.553,112.177L138.306,112.26C138.718,119.263 138.8,125.938 138.8,135.165L138.8,158.896L132.043,158.896Z" style="fill:rgb(0,89,132);"/>
        <path d="M198.868,150.163C202.082,152.223 206.696,153.787 211.64,153.787C218.973,153.787 223.258,149.999 223.258,144.314C223.258,139.203 220.292,136.156 212.794,133.352C203.731,130.057 198.126,125.279 198.126,117.533C198.126,108.88 205.295,102.454 216.089,102.454C221.693,102.454 225.895,103.773 228.285,105.173L226.307,111.022C224.577,109.952 220.869,108.386 215.842,108.386C208.261,108.386 205.378,112.919 205.378,116.708C205.378,121.899 208.756,124.454 216.419,127.422C225.813,131.129 230.51,135.577 230.51,143.736C230.51,152.306 224.247,159.804 211.145,159.804C205.79,159.804 199.94,158.155 196.973,156.177L198.868,150.163Z" style="fill:rgb(0,89,132);"/>
        <path d="M261.079,103.36L261.079,136.32C261.079,148.679 266.6,153.953 274.016,153.953C282.174,153.953 287.529,148.514 287.529,136.32L287.529,103.36L294.781,103.36L294.781,135.825C294.781,152.882 285.8,159.804 273.769,159.804C262.398,159.804 253.828,153.376 253.828,136.071L253.828,103.36L261.079,103.36Z" style="fill:rgb(0,89,132);"/>
        <path d="M321.059,103.36L328.311,103.36L328.311,152.882L352.04,152.882L352.04,158.896L321.059,158.896L321.059,103.36Z" style="fill:rgb(0,89,132);"/>
        <path d="M382.063,109.458L365.17,109.458L365.17,103.36L406.289,103.36L406.289,109.458L389.315,109.458L389.315,158.896L382.063,158.896L382.063,109.458Z" style="fill:rgb(0,89,132);"/>
        <rect x="431.992" y="103.36" width="7.252" height="55.536" style="fill:rgb(0,89,132);"/>
        <path d="M466.094,158.896L466.094,103.36L474.006,103.36L491.72,131.46C495.757,137.968 499.054,143.736 501.608,149.505L501.856,149.42C501.196,142.005 501.032,135.248 501.032,126.68L501.032,103.36L507.788,103.36L507.788,158.896L500.538,158.896L482.905,130.717C479.031,124.536 475.324,118.191 472.603,112.177L472.357,112.26C472.768,119.263 472.852,125.938 472.852,135.165L472.852,158.896L466.094,158.896Z" style="fill:rgb(0,89,132);"/>
        <path d="M574.555,156.423C571.339,157.661 564.913,159.475 557.415,159.475C549.009,159.475 542.088,157.332 536.651,152.141C531.871,147.525 528.905,140.109 528.905,131.46C528.905,114.896 540.358,102.784 558.979,102.784C565.408,102.784 570.516,104.185 572.906,105.339L571.093,111.188C568.128,109.787 564.419,108.798 558.816,108.798C545.303,108.798 536.486,117.202 536.486,131.129C536.486,145.22 544.89,153.542 557.909,153.542C562.606,153.542 565.82,152.882 567.468,152.058L567.468,135.496L556.262,135.496L556.262,129.728L574.555,129.728L574.555,156.423Z" style="fill:rgb(0,89,132);"/>
    </g>
</svg>
