<svg width="85" height="85" viewBox="0 0 85 85" fill="none" xmlns="http://www.w3.org/2000/svg">
<path fill-rule="evenodd" clip-rule="evenodd" d="M76.0919 60.9408V0.442017H8.95044V60.9408V84.5028H72.0183L76.0941 80.5418V60.9408H76.0919ZM28.3389 82.3246C27.9224 82.3246 27.5399 82.2248 27.1872 82.0271C26.8344 81.8274 26.5497 81.5256 26.3351 81.124C26.1204 80.7203 26.0121 80.2166 26.0121 79.611C26.0121 79.1626 26.0758 78.7674 26.2033 78.421C26.3308 78.0746 26.5051 77.7814 26.7282 77.5413C26.9513 77.3011 27.2042 77.1205 27.4847 76.9973C27.7673 76.874 28.0606 76.8145 28.3666 76.8145C28.6917 76.8145 28.9828 76.8825 29.2399 77.0228C29.4971 77.163 29.7117 77.3266 29.8817 77.5179L29.2059 78.4189C29.0869 78.3041 28.9616 78.2106 28.8341 78.1363C28.7066 78.0619 28.5599 78.0258 28.3942 78.0258C28.2051 78.0258 28.0287 78.0874 27.8651 78.2106C27.7014 78.3339 27.5718 78.5103 27.4741 78.7376C27.3763 78.9671 27.3274 79.2413 27.3274 79.5643C27.3274 80.0615 27.4231 80.444 27.6164 80.7139C27.8098 80.9838 28.0627 81.1176 28.3772 81.1176C28.5663 81.1176 28.7363 81.0709 28.8829 80.9774C29.0296 80.8839 29.1571 80.7776 29.2612 80.6586L29.9369 81.5426C29.7329 81.804 29.4907 82.0016 29.2166 82.1313C28.9424 82.263 28.6471 82.3268 28.3326 82.3268L28.3389 82.3246ZM56.6779 82.2269V76.908H58.1187C58.6138 76.908 59.0516 76.9973 59.4277 77.1736C59.8059 77.35 60.0992 77.6326 60.3096 78.0194C60.5199 78.4061 60.6241 78.914 60.6241 79.5409C60.6241 80.1678 60.5199 80.6799 60.3096 81.0751C60.0992 81.4704 59.8123 81.7615 59.4468 81.9464C59.0813 82.1313 58.6648 82.2248 58.1952 82.2248H56.6801L56.6779 82.2269ZM50.1372 82.2269V76.908H51.4271V82.2269H50.1372ZM43.7473 82.2269V76.908H45.0372V82.2269H43.7473ZM34.7904 82.2269V76.908H36.6349C36.9856 76.908 37.3086 76.959 37.6018 77.0589C37.8972 77.1609 38.1331 77.3351 38.3137 77.5859C38.4943 77.8366 38.5836 78.183 38.5836 78.625C38.5836 79.0075 38.5113 79.3241 38.3668 79.5749C38.2223 79.8256 38.0311 80.0211 37.7973 80.1635L38.8556 82.2248H37.4148L36.5733 80.4419H36.0782V82.2248H34.7883L34.7904 82.2269ZM46.1167 82.2269V76.908H49.2978V78.0874H47.4066V79.101H49.0258V80.2783H47.4066V82.2248H46.1167V82.2269ZM40.4451 82.2269V78.0874H39.1552V76.908H43.0248V78.0874H41.7349V82.2269H40.4451ZM52.5066 82.2269V76.908H55.6558V78.0874H53.7964V78.9225H55.3859V80.0998H53.7964V81.0475H55.7323V82.2269H52.5066ZM30.6191 82.2269V76.908H33.7704V78.0874H31.9089V78.9225H33.4984V80.0998H31.9089V81.0475H33.8448V82.2269H30.6191ZM57.9678 81.0985H58.0422C58.2781 81.0985 58.4906 81.0539 58.6797 80.9668C58.8688 80.8796 59.0218 80.7245 59.1323 80.4993C59.2449 80.2761 59.3002 79.9574 59.3002 79.543C59.3002 79.1286 59.2449 78.8141 59.1323 78.5974C59.0197 78.3828 58.8688 78.234 58.6797 78.1554C58.4884 78.0768 58.2781 78.0364 58.0422 78.0364H57.9678V81.0964V81.0985ZM36.0803 79.3326H36.5457C37.0663 79.3326 37.3256 79.0989 37.3256 78.6293C37.3256 78.3998 37.2597 78.2425 37.1258 78.1554C36.9941 78.0683 36.7986 78.0236 36.5457 78.0236H36.0803V79.3326ZM49.0492 75.4821C48.5987 75.4821 48.2034 75.3716 47.8634 75.1506C47.5234 74.9296 47.2578 74.613 47.0687 74.1986C46.8774 73.7843 46.7839 73.2849 46.7839 72.7005C46.7839 72.1161 46.8796 71.621 47.0687 71.2151C47.2578 70.8093 47.5234 70.499 47.8634 70.2865C48.2034 70.074 48.5987 69.9678 49.0492 69.9678C49.4997 69.9678 49.8949 70.074 50.2349 70.2865C50.5749 70.499 50.8406 70.8093 51.0297 71.2151C51.2188 71.621 51.3144 72.1161 51.3144 72.7005C51.3144 73.2849 51.2188 73.7843 51.0297 74.1986C50.8384 74.613 50.5749 74.9318 50.2349 75.1506C49.8949 75.3716 49.4997 75.4821 49.0492 75.4821ZM18.4067 75.3844V70.0655H21.5581V71.2449H19.6966V72.08H21.2861V73.2573H19.6966V74.2071H21.6324V75.3844H18.4067ZM15.0386 75.3844L13.5978 70.0655H14.9642L15.4742 72.3903C15.5443 72.6729 15.6059 72.9534 15.6591 73.2275C15.7122 73.5038 15.7696 73.7864 15.8354 74.0733H15.8652C15.9353 73.7843 15.9969 73.5016 16.0479 73.2275C16.1011 72.9534 16.1606 72.6729 16.2243 72.3903L16.7194 70.0655H18.0391L16.5983 75.3844H15.0386ZM52.4747 75.3844L51.6183 70.0655H52.9379L53.2078 72.3903C53.2333 72.6686 53.2609 72.947 53.2907 73.2254C53.3204 73.5038 53.3481 73.7821 53.3736 74.0605H53.4033C53.4479 73.7821 53.4947 73.5038 53.5393 73.2233C53.5839 72.9428 53.6286 72.6644 53.6732 72.3924L54.1386 70.0676H55.2181L55.6834 72.3924C55.7281 72.6601 55.7727 72.9343 55.8173 73.2148C55.8619 73.4953 55.9087 73.7779 55.9533 74.0605H55.9831C56.0086 73.7779 56.0362 73.4953 56.0659 73.2148C56.0957 72.9343 56.1233 72.6601 56.1488 72.3924L56.4187 70.0676H57.6491L56.8394 75.3865H55.2053L54.8313 73.2764C54.7952 73.0703 54.7633 72.8599 54.7336 72.6474C54.7038 72.4349 54.6762 72.2309 54.6507 72.0333H54.6209C54.5954 72.2288 54.5699 72.4328 54.5423 72.6474C54.5147 72.8599 54.4807 73.0703 54.4403 73.2764L54.0812 75.3865H52.4768L52.4747 75.3844ZM63.1103 75.3844V70.0655H66.2596V71.2449H64.4002V72.08H65.9897V73.2573H64.4002V74.2071H66.3361V75.3844H63.1103ZM23.4089 75.3844V71.2449H22.1191V70.0655H25.9887V71.2449H24.6988V75.3844H23.4089ZM26.6113 75.3844V70.0655H29.7606V71.2449H27.9012V72.08H29.4907V73.2573H27.9012V74.2071H29.8371V75.3844H26.6113ZM36.0166 75.3844H33.3072L32.4678 73.6015H31.9727V75.3844H30.6828V70.0655H32.5273C32.8779 70.0655 33.2009 70.1165 33.4942 70.2164C33.7896 70.3184 34.0254 70.4926 34.2061 70.7434C34.3867 70.9941 34.4759 71.3405 34.4759 71.7825C34.4759 72.165 34.4037 72.4816 34.2571 72.7324C34.1126 72.9831 33.9213 73.1786 33.6876 73.321L34.7118 75.3164L36.1781 70.0655H37.7378L39.2232 75.3844H37.8568L37.6167 74.256H36.2503L36.0102 75.3844H36.0166ZM58.1654 75.3844V70.0655H59.4851L60.5646 72.4391L61.0299 73.6334H61.0597C61.0299 73.3444 60.9938 73.015 60.9556 72.6474C60.9152 72.2798 60.8961 71.9313 60.8961 71.604V70.0655H62.1264V75.3844H60.8068L59.7273 73.0044L59.2619 71.8186H59.2322C59.2619 72.1183 59.2981 72.4498 59.3363 72.8131C59.3767 73.1765 59.3958 73.5208 59.3958 73.848V75.3865H58.1654V75.3844ZM39.5929 75.3844V70.0655H40.9126L41.9921 72.4391L42.4574 73.6334H42.4872C42.4574 73.3444 42.4213 73.015 42.3831 72.6474C42.3427 72.2798 42.3236 71.9313 42.3236 71.604V70.0655H43.5539V75.3844H42.2343L41.1548 73.0044L40.6894 71.8186H40.6597C40.6894 72.1183 40.7256 72.4498 40.7638 72.8131C40.8042 73.1765 40.8233 73.5208 40.8233 73.848V75.3865H39.5929V75.3844ZM67.1818 75.3844V70.0655H68.6226C69.1177 70.0655 69.5533 70.1548 69.9316 70.3311C70.3098 70.5075 70.6031 70.7901 70.8134 71.1769C71.0238 71.5636 71.1279 72.0715 71.1279 72.6984C71.1279 73.3253 71.0238 73.8374 70.8134 74.2326C70.6031 74.6279 70.3162 74.919 69.9507 75.1039C69.5852 75.2888 69.1687 75.3823 68.6991 75.3823H67.1839L67.1818 75.3844ZM49.0449 74.2709C49.3403 74.2709 49.5719 74.1285 49.7398 73.8459C49.9077 73.5633 49.9906 73.1808 49.9906 72.7005C49.9906 72.2203 49.9077 71.8399 49.7398 71.5764C49.5719 71.3129 49.3403 71.179 49.0449 71.179C48.7496 71.179 48.5243 71.3108 48.3543 71.5764C48.1843 71.8399 48.0993 72.216 48.0993 72.7005C48.0993 73.185 48.1843 73.5633 48.3543 73.8459C48.5243 74.1285 48.7538 74.2709 49.0449 74.2709ZM68.4717 74.2539H68.5461C68.7819 74.2539 68.9944 74.2093 69.1836 74.1221C69.3727 74.035 69.5257 73.8799 69.6362 73.6546C69.7488 73.4315 69.8062 73.1128 69.8062 72.6984C69.8062 72.284 69.7488 71.9695 69.6362 71.7528C69.5236 71.5381 69.3727 71.3894 69.1836 71.3108C68.9923 71.2321 68.7819 71.1918 68.5461 71.1918H68.4717V74.2518V74.2539ZM44.3274 73.7949V72.8131H46.2187V73.7949H44.3274ZM36.5712 72.7961L36.4883 73.1638H37.3893L37.3064 72.7961C37.2469 72.5411 37.1853 72.2606 37.1258 71.961C37.0663 71.6614 37.0047 71.3766 36.9452 71.1089H36.9154C36.8644 71.3766 36.8113 71.6593 36.7497 71.961C36.6902 72.2606 36.6286 72.539 36.5691 72.7961H36.5712ZM31.9727 72.4859H32.4381C32.9587 72.4859 33.2179 72.2521 33.2179 71.7825C33.2179 71.553 33.1521 71.3958 33.0182 71.3086C32.8864 71.2215 32.6909 71.1769 32.4381 71.1769H31.9727V72.4859ZM32.6187 68.6354C32.2043 68.6354 31.8197 68.5355 31.4669 68.3358C31.1142 68.136 30.8316 67.8364 30.6148 67.4326C30.4002 67.0289 30.2918 66.5253 30.2918 65.9196C30.2918 65.4713 30.3556 65.076 30.4831 64.7296C30.6106 64.3833 30.7848 64.09 31.0079 63.8499C31.2311 63.6098 31.4839 63.4291 31.7644 63.3059C32.0471 63.1826 32.3403 63.1231 32.6463 63.1231C32.9714 63.1231 33.2626 63.1933 33.5197 63.3314C33.7768 63.4716 33.9914 63.6353 34.1614 63.8265L33.4857 64.7275C33.3646 64.6128 33.2413 64.5193 33.1138 64.4449C32.9863 64.3705 32.8397 64.3344 32.6739 64.3344C32.4848 64.3344 32.3084 64.396 32.1448 64.5193C31.9833 64.6425 31.8516 64.8189 31.7559 65.0463C31.6582 65.2758 31.6093 65.5499 31.6093 65.8729C31.6093 66.368 31.7049 66.7526 31.8983 67.0225C32.0917 67.2924 32.3446 67.4263 32.6612 67.4263C32.8503 67.4263 33.0203 67.3795 33.1669 67.286C33.3136 67.1925 33.4411 67.0863 33.5452 66.9673L34.2209 67.8513C34.0148 68.1126 33.7747 68.3103 33.5006 68.4399C33.2264 68.5716 32.9311 68.6354 32.6144 68.6354H32.6187ZM12.7861 68.6354C12.4822 68.6354 12.1634 68.5716 11.8341 68.4463C11.5047 68.3209 11.2072 68.1296 10.9416 67.8746L11.6768 66.9099C11.8511 67.0629 12.0402 67.1861 12.2442 67.2818C12.4461 67.3774 12.6373 67.4241 12.8179 67.4241C13.0134 67.4241 13.1537 67.3923 13.2408 67.3264C13.3279 67.2605 13.3726 67.167 13.3726 67.048C13.3726 66.9226 13.3152 66.827 13.1962 66.7611C13.0793 66.6953 12.9178 66.6188 12.7138 66.5316L12.1061 66.2533C11.8447 66.1385 11.6173 65.96 11.4197 65.7135C11.2221 65.467 11.1243 65.1546 11.1243 64.7721C11.1243 64.4661 11.2008 64.1899 11.3559 63.9413C11.5111 63.6926 11.7257 63.495 11.9977 63.3441C12.2697 63.1933 12.5842 63.1189 12.9391 63.1189C13.2196 63.1189 13.5022 63.1763 13.7912 63.2953C14.0802 63.4143 14.3352 63.5906 14.5604 63.8308L13.9144 64.7148C13.7508 64.5894 13.5914 64.4938 13.4384 64.4279C13.2854 64.362 13.1197 64.3301 12.9391 64.3301C12.7839 64.3301 12.6607 64.3599 12.5672 64.4194C12.4737 64.4789 12.4291 64.5703 12.4291 64.6893C12.4291 64.8146 12.4949 64.9124 12.6246 64.9804C12.7542 65.0484 12.9306 65.1291 13.1494 65.2205L13.7423 65.4734C14.0462 65.6051 14.2821 65.7879 14.4478 66.0216C14.6136 66.2554 14.6964 66.5593 14.6964 66.929C14.6964 67.2286 14.6221 67.5091 14.4754 67.7663C14.3288 68.0255 14.1121 68.2338 13.8273 68.3931C13.5426 68.5525 13.1983 68.6311 12.7924 68.6311L12.7861 68.6354ZM50.3518 68.6354C50.0458 68.6354 49.7292 68.5716 49.3998 68.4463C49.0704 68.3209 48.7729 68.1296 48.5073 67.8746L49.2426 66.9099C49.4168 67.0629 49.6059 67.1861 49.8099 67.2818C50.0118 67.3774 50.2031 67.4241 50.3837 67.4241C50.5792 67.4241 50.7194 67.3923 50.8066 67.3264C50.8937 67.2605 50.9383 67.167 50.9383 67.048C50.9383 66.9226 50.8788 66.827 50.7619 66.7611C50.6451 66.6953 50.4836 66.6188 50.2774 66.5316L49.6697 66.2533C49.4104 66.1385 49.1809 65.96 48.9833 65.7135C48.7857 65.467 48.6879 65.1546 48.6879 64.7721C48.6879 64.4661 48.7644 64.1899 48.9196 63.9413C49.0747 63.6926 49.2893 63.495 49.5613 63.3441C49.8333 63.1933 50.1478 63.1189 50.5027 63.1189C50.7832 63.1189 51.0658 63.1763 51.3548 63.2953C51.6417 63.4121 51.8988 63.5906 52.1241 63.8308L51.4802 64.7148C51.3144 64.5894 51.1572 64.4938 51.0042 64.4279C50.8512 64.362 50.6854 64.3301 50.5048 64.3301C50.3497 64.3301 50.2264 64.3599 50.1329 64.4194C50.0416 64.4789 49.9948 64.5703 49.9948 64.6893C49.9948 64.8146 50.0607 64.9124 50.1903 64.9804C50.3199 65.0484 50.4942 65.1291 50.7152 65.2205L51.3081 65.4734C51.6141 65.6051 51.8478 65.7879 52.0136 66.0216C52.1793 66.2554 52.2622 66.5593 52.2622 66.929C52.2622 67.2286 52.1878 67.5091 52.0412 67.7663C51.8946 68.0255 51.6778 68.2338 51.3931 68.3931C51.1083 68.5525 50.7641 68.6311 50.3582 68.6311L50.3518 68.6354ZM19.1186 68.5376V63.2209H20.9631C21.3137 63.2209 21.6367 63.2719 21.9299 63.3718C22.2253 63.4738 22.4612 63.648 22.6418 63.8988C22.8224 64.1495 22.9117 64.4959 22.9117 64.9379C22.9117 65.3204 22.8394 65.637 22.6928 65.8878C22.5483 66.1385 22.3592 66.334 22.1233 66.4764L23.1816 68.5376H21.7408L20.8993 66.7548H20.4042V68.5376H19.1143H19.1186ZM28.1349 68.5376V63.2209H29.4248V68.5376H28.1349ZM70.1547 68.5376V63.2209H71.5954C72.0906 63.2209 72.5262 63.308 72.9044 63.4865C73.2827 63.6629 73.5759 63.9455 73.7863 64.3323C73.9967 64.719 74.1008 65.2269 74.1008 65.8538C74.1008 66.4806 73.9967 66.9928 73.7863 67.388C73.5759 67.7833 73.2891 68.0744 72.9236 68.2593C72.5581 68.4441 72.1416 68.5376 71.6719 68.5376H70.1568H70.1547ZM46.4376 68.5376V63.2209H47.7274V68.5376H46.4376ZM41.6223 68.5376V63.2209H43.0631C43.5582 63.2209 43.9938 63.308 44.3721 63.4865C44.7503 63.6629 45.0436 63.9455 45.2539 64.3323C45.4643 64.719 45.5684 65.2269 45.5684 65.8538C45.5684 66.4806 45.4622 66.9928 45.2539 67.388C45.0436 67.7833 44.7567 68.0744 44.3912 68.2593C44.0257 68.4441 43.6092 68.5376 43.1396 68.5376H41.6244H41.6223ZM62.0096 68.5376V63.2209H63.2994V67.3604H65.1439V68.5376H62.0096ZM15.1746 68.5376V63.2209H18.3238V64.3981H16.4644V65.2333H18.0539V66.4105H16.4644V67.3604H18.4003V68.5376H15.1746ZM34.9009 68.5376V63.2209H38.0502V64.3981H36.1908V65.2333H37.7803V66.4105H36.1908V67.3604H38.1267V68.5376H34.9009ZM52.4237 68.5376L53.9091 63.2209H55.4688L56.9542 68.5376H55.5878L55.3477 67.4093H53.9813L53.7412 68.5376H52.4216H52.4237ZM24.6712 68.5376L23.2304 63.2209H24.5968L25.1068 65.5435C25.1769 65.8261 25.2386 66.1066 25.2917 66.3808C25.3448 66.657 25.4022 66.9375 25.4681 67.2265H25.4978C25.5679 66.9375 25.6296 66.6549 25.6806 66.3808C25.7337 66.1066 25.7911 65.8261 25.8569 65.5435L26.3521 63.2209H27.6717L26.2309 68.5376H24.6712ZM65.9854 68.5376V63.2209H69.1347V64.3981H67.2753V65.2333H68.8648V66.4105H67.2753V67.3604H69.2112V68.5376H65.9854ZM57.4196 68.5376V63.2209H59.1748C59.5148 63.2209 59.8251 63.2591 60.1056 63.3356C60.3861 63.4121 60.6071 63.546 60.7728 63.7373C60.9386 63.9285 61.0214 64.1984 61.0214 64.5469C61.0214 64.7764 60.9662 65.0038 60.8557 65.2311C60.7452 65.4585 60.5964 65.6115 60.4052 65.6923V65.7241C60.6411 65.7964 60.8387 65.9303 61.0023 66.1343C61.1638 66.3361 61.2467 66.6145 61.2467 66.9694C61.2467 67.3243 61.1596 67.6345 60.9832 67.8661C60.8089 68.0978 60.5752 68.2678 60.2862 68.3761C59.9951 68.4866 59.6763 68.5398 59.3257 68.5398H57.4196V68.5376ZM58.7094 67.4581H59.2343C59.7337 67.4581 59.9844 67.2626 59.9844 66.8695C59.9844 66.674 59.9228 66.5338 59.8017 66.453C59.6784 66.3701 59.4914 66.3298 59.2343 66.3298H58.7094V67.4581ZM42.9122 67.4093H42.9866C43.2203 67.4093 43.4349 67.3646 43.6241 67.2775C43.8153 67.1904 43.9662 67.0353 44.0788 66.81C44.1914 66.5869 44.2467 66.2681 44.2467 65.8538C44.2467 65.4394 44.1914 65.1249 44.0788 64.9081C43.9662 64.6935 43.8153 64.5448 43.6241 64.4661C43.4349 64.3875 43.2224 64.3471 42.9866 64.3471H42.9122V67.4071V67.4093ZM71.4446 67.4093H71.5189C71.7527 67.4093 71.9673 67.3646 72.1564 67.2775C72.3477 67.1904 72.4986 67.0353 72.6112 66.81C72.7238 66.5869 72.7791 66.2681 72.7791 65.8538C72.7791 65.4394 72.7238 65.1249 72.6112 64.9081C72.4986 64.6935 72.3477 64.5448 72.1564 64.4661C71.9673 64.3875 71.7548 64.3471 71.5189 64.3471H71.4446V67.4071V67.4093ZM38.8598 66.9503V65.9685H40.7511V66.9503H38.8598ZM54.2958 65.9515L54.2129 66.3191H55.1139L55.0311 65.9515C54.9716 65.6965 54.9121 65.416 54.8504 65.1164C54.7909 64.8168 54.7293 64.532 54.6698 64.2664H54.6401C54.5891 64.5341 54.5359 64.8168 54.4743 65.1164C54.4148 65.416 54.3532 65.6944 54.2937 65.9515H54.2958ZM20.4063 65.6413H20.8717C21.3923 65.6413 21.6516 65.4075 21.6516 64.9379C21.6516 64.7084 21.5857 64.5511 21.4518 64.464C21.3201 64.3769 21.1246 64.3323 20.8717 64.3323H20.4063V65.6413ZM58.7052 65.297H59.1408C59.3512 65.297 59.5063 65.2481 59.6062 65.1504C59.7061 65.0526 59.7571 64.9209 59.7571 64.7573C59.7571 64.5936 59.7061 64.4768 59.6062 64.4045C59.5063 64.3344 59.3512 64.2983 59.1408 64.2983H58.7052V65.297ZM75.6393 60.9408V0.890392H9.40094V60.9408H75.6436H75.6393Z" fill="#2A3039"/>
<path d="M55.2416 37.6593H29.0085V33.8088H26.7029V39.965H55.2416V37.6593Z" fill="#2A3039"/>
<path d="M26.7476 14.4819H29.0426V10.6208H56.1002V14.4819H58.3952V8.32581H26.7476V14.4819Z" fill="#2A3039"/>
<path d="M24.8987 26.9791C24.9199 27.7845 25.3003 29.306 27.8248 29.306C29.1954 29.306 30.7169 28.9681 30.7169 27.4466C30.7169 26.3267 29.6736 26.0228 28.2158 25.6637L26.7262 25.3046C24.4864 24.7606 22.3317 24.2378 22.3317 21.0737C22.3317 19.4757 23.1583 16.6473 27.6506 16.6473C31.8921 16.6473 33.0332 19.5288 33.0459 21.2926H30.2728C30.1963 20.6508 29.9689 19.1272 27.4338 19.1272C26.3352 19.1272 25.0198 19.5522 25.0198 20.8463C25.0198 21.9662 25.9123 22.2063 26.4882 22.3466L29.8606 23.2051C31.7539 23.6832 33.4816 24.4886 33.4816 27.0662C33.4816 31.3948 29.2401 31.7752 28.0224 31.7752C22.9756 31.7752 22.1064 28.7513 22.1064 26.9685H24.9008V26.9791H24.8987Z" fill="#2A3039"/>
<path d="M37.1558 17.0277H44.1491C47.6724 17.0277 48.5755 19.2356 48.5755 20.7146C48.5755 22.7801 47.411 23.3581 46.8139 23.662C48.5755 24.325 49.0324 25.7275 49.0324 27.1427C49.0324 28.2838 48.5543 29.3612 47.7935 30.1007C46.9669 30.9061 46.1955 31.4055 43.2481 31.4055H37.1579V17.0277H37.1558ZM40.0266 22.6505H43.5605C44.7463 22.6505 45.6813 22.1936 45.6813 21.0525C45.6813 19.9113 44.844 19.5076 43.4734 19.5076H40.0266V22.6505ZM40.0373 28.9256H43.7241C45.1819 28.9256 46.0298 28.2838 46.0298 26.8261C46.0298 25.5638 44.9524 25.0857 43.8665 25.0857H40.0373V28.9256Z" fill="#2A3039"/>
<path d="M58.3738 17.0277H56.1L51.5312 31.4055H54.4127L57.2071 21.9641L60.0567 31.4055H62.9382L58.3695 17.0277H58.3738Z" fill="#2A3039"/>
<path d="M58.3632 37.6486L56.0789 39.9649V31.4479H58.3632V37.6465V37.6486Z" fill="#2A3039"/>
<path d="M26.6922 45.8065H27.0195V47.2961C27.0195 47.4491 27.0301 47.5788 27.062 47.6765C27.0939 47.7743 27.1385 47.8614 27.1916 47.9273C27.2447 47.9931 27.3106 48.0356 27.3765 48.0569C27.453 48.0781 27.5295 48.0994 27.6039 48.0994C27.691 48.0994 27.7675 48.0888 27.844 48.0569C27.9205 48.025 27.9736 47.9804 28.0289 47.9273C28.0841 47.8614 28.1266 47.7849 28.1585 47.6765C28.1904 47.5788 28.201 47.4491 28.201 47.2961V45.8065H28.5049V47.2855C28.5049 47.4916 28.4836 47.6553 28.439 47.7976C28.3965 47.94 28.3306 48.0484 28.2435 48.1355C28.167 48.2226 28.0692 48.2885 27.9609 48.3204C27.8525 48.3523 27.7335 48.3756 27.6017 48.3756C27.47 48.3756 27.351 48.3544 27.2426 48.3204C27.1342 48.2864 27.0365 48.2226 26.9494 48.1355C26.8729 48.0484 26.807 47.94 26.7539 47.7976C26.7114 47.6553 26.688 47.4938 26.688 47.2855V45.8065H26.6922Z" fill="#2A3039"/>
<path d="M28.7598 48.1334C28.7598 48.0569 28.781 48.0038 28.8256 47.9592C28.8681 47.9167 28.9234 47.8933 28.9893 47.8933C29.0551 47.8933 29.1083 47.9146 29.1529 47.9592C29.1954 48.0017 29.2188 48.0676 29.2188 48.1334C29.2188 48.1993 29.1975 48.2631 29.1529 48.3077C29.1083 48.3523 29.0551 48.3736 28.9893 48.3736C28.9234 48.3736 28.8703 48.3523 28.8256 48.3077C28.781 48.2631 28.7598 48.1993 28.7598 48.1334Z" fill="#2A3039"/>
<path d="M29.7606 47.7743C29.8478 47.872 29.9561 47.9485 30.0751 48.0016C30.1941 48.0548 30.3259 48.0888 30.4555 48.0888C30.6191 48.0888 30.7488 48.0569 30.8465 47.9804C30.9443 47.9039 30.9889 47.8061 30.9889 47.6871C30.9889 47.6213 30.9783 47.5681 30.957 47.5235C30.9358 47.4789 30.9018 47.4364 30.8699 47.4045C30.838 47.3726 30.7934 47.3386 30.7403 47.3174C30.685 47.2961 30.6319 47.2621 30.5766 47.2409L30.2175 47.0773C30.1623 47.056 30.0985 47.022 30.0326 46.9795C29.9668 46.9476 29.9136 46.903 29.869 46.8499C29.8265 46.7946 29.7819 46.7415 29.75 46.665C29.7181 46.5991 29.7075 46.512 29.7075 46.4249C29.7075 46.3271 29.7288 46.24 29.7628 46.1635C29.8053 46.0764 29.8605 46.0105 29.9264 45.9468C29.9923 45.8809 30.0794 45.8384 30.1771 45.8044C30.2749 45.7725 30.3833 45.7491 30.4916 45.7491C30.6446 45.7491 30.7849 45.781 30.9166 45.8363C31.0484 45.8915 31.1568 45.9659 31.2439 46.0636L31.0696 46.2698C30.9931 46.1933 30.906 46.1401 30.8083 46.0955C30.7105 46.053 30.6128 46.0296 30.4938 46.0296C30.3514 46.0296 30.243 46.0615 30.1559 46.1274C30.0688 46.1933 30.0263 46.2804 30.0263 46.3994C30.0263 46.4653 30.0369 46.5078 30.0581 46.5524C30.0794 46.5949 30.1134 46.6289 30.1559 46.6608C30.1984 46.6926 30.243 46.7266 30.2855 46.7479C30.328 46.7691 30.3833 46.7904 30.4385 46.8138L30.7976 46.9668C30.8741 46.9986 30.94 47.0326 31.0038 47.0751C31.0675 47.1176 31.1228 47.1623 31.1674 47.2175C31.212 47.2728 31.2545 47.3365 31.2758 47.4024C31.297 47.4683 31.3183 47.5554 31.3183 47.6425C31.3183 47.7403 31.297 47.838 31.263 47.9251C31.2205 48.0123 31.1653 48.0888 31.0888 48.1525C31.0123 48.2163 30.9251 48.2715 30.8168 48.3055C30.7084 48.3374 30.5894 48.3608 30.4576 48.3608C30.2834 48.3608 30.1198 48.3289 29.9689 48.263C29.818 48.1971 29.6863 48.0994 29.5779 47.991L29.7628 47.7743H29.7606Z" fill="#2A3039"/>
<path d="M31.6521 48.1334C31.6521 48.0569 31.6733 48.0038 31.718 47.9592C31.7605 47.9167 31.8157 47.8933 31.8816 47.8933C31.9475 47.8933 32.0006 47.9146 32.0452 47.9592C32.0877 48.0017 32.1111 48.0676 32.1111 48.1334C32.1111 48.1993 32.0899 48.2631 32.0452 48.3077C32.0027 48.3502 31.9475 48.3736 31.8816 48.3736C31.8157 48.3736 31.7626 48.3523 31.718 48.3077C31.6755 48.2652 31.6521 48.1993 31.6521 48.1334Z" fill="#2A3039"/>
<path d="M33.609 47.7743C33.6961 47.872 33.8045 47.9485 33.9235 48.0016C34.0425 48.0569 34.1743 48.0888 34.3039 48.0888C34.4675 48.0888 34.5971 48.0569 34.6949 47.9804C34.7926 47.9039 34.8373 47.8061 34.8373 47.6871C34.8373 47.6213 34.8266 47.5681 34.8054 47.5235C34.7841 47.481 34.7501 47.4364 34.7183 47.4045C34.6864 47.3726 34.6418 47.3386 34.5886 47.3174C34.5334 47.2961 34.4803 47.2621 34.425 47.2409L34.0659 47.0773C34.0106 47.056 33.9469 47.022 33.881 46.9795C33.8151 46.9476 33.762 46.903 33.7174 46.8499C33.6728 46.7968 33.6303 46.7415 33.5984 46.665C33.5665 46.5991 33.5559 46.512 33.5559 46.4249C33.5559 46.3271 33.5771 46.24 33.6111 46.1635C33.6536 46.0764 33.7089 46.0105 33.7748 45.9468C33.8406 45.8809 33.9278 45.8384 34.0255 45.8044C34.1233 45.7725 34.2316 45.7491 34.34 45.7491C34.493 45.7491 34.6333 45.781 34.765 45.8363C34.8946 45.8915 35.0051 45.9659 35.0923 46.0636L34.918 46.2698C34.8415 46.1933 34.7544 46.1401 34.6566 46.0955C34.5589 46.053 34.4611 46.0296 34.3421 46.0296C34.1998 46.0296 34.0914 46.0615 34.0043 46.1274C33.9171 46.1933 33.8746 46.2804 33.8746 46.3994C33.8746 46.4653 33.8853 46.5078 33.9065 46.5524C33.9278 46.5949 33.9618 46.6289 34.0043 46.6608C34.0468 46.6926 34.0914 46.7266 34.1339 46.7479C34.1764 46.7691 34.2316 46.7904 34.2869 46.8138L34.646 46.9668C34.7225 46.9986 34.7884 47.0326 34.8521 47.0751C34.918 47.1176 34.9711 47.1623 35.0158 47.2175C35.0583 47.2728 35.1029 47.3365 35.1241 47.4024C35.1454 47.4683 35.1666 47.5554 35.1666 47.6425C35.1666 47.7403 35.1454 47.838 35.1114 47.9251C35.0689 48.0123 35.0136 48.0888 34.9371 48.1525C34.8606 48.2163 34.7735 48.2715 34.6651 48.3055C34.5568 48.3374 34.4378 48.3608 34.306 48.3608C34.1318 48.3608 33.9681 48.3289 33.8173 48.263C33.6643 48.1971 33.5346 48.0994 33.4263 47.991L33.6111 47.7743H33.609Z" fill="#2A3039"/>
<path d="M35.7192 46.4589H35.9806L36.0019 46.7309H36.0125C36.0996 46.6438 36.1867 46.5673 36.2845 46.5035C36.3822 46.4376 36.48 46.4164 36.599 46.4164C36.7414 46.4164 36.8604 46.4483 36.9369 46.5141C37.0134 46.58 37.0792 46.6671 37.1111 46.7755C37.2089 46.6671 37.3066 46.58 37.4044 46.5141C37.5021 46.4483 37.6105 46.4164 37.7316 46.4164C37.9271 46.4164 38.0695 46.4823 38.1566 46.6013C38.2544 46.7203 38.299 46.9051 38.299 47.1453V48.331H37.9845V47.1899C37.9845 47.0156 37.9526 46.886 37.8974 46.8095C37.8421 46.733 37.755 46.6905 37.636 46.6905C37.4936 46.6905 37.3427 46.7883 37.1685 46.9838V48.3438H36.854V47.2026C36.854 47.0284 36.8221 46.8988 36.7669 46.8223C36.7116 46.7458 36.6245 46.7033 36.5055 46.7033C36.3631 46.7033 36.2122 46.801 36.038 46.9965V48.3565H35.7235V46.4631L35.7192 46.4589Z" fill="#2A3039"/>
<path d="M38.8408 47.8402C38.8408 47.6341 38.9279 47.4811 39.1128 47.3727C39.2977 47.2643 39.5909 47.1878 39.9947 47.1453C39.9947 47.0901 39.9841 47.0263 39.9734 46.9711C39.9628 46.9158 39.9416 46.8627 39.9076 46.8181C39.8757 46.7756 39.8417 46.7416 39.7886 46.7097C39.7461 46.6885 39.6802 46.6672 39.6037 46.6672C39.4953 46.6672 39.3869 46.6885 39.2998 46.7331C39.2021 46.7756 39.1256 46.8202 39.0491 46.8755L38.9194 46.6587C39.0066 46.6035 39.1149 46.5503 39.2339 46.4951C39.3636 46.4398 39.4953 46.4186 39.6462 46.4186C39.8736 46.4186 40.0372 46.4845 40.1456 46.6247C40.2433 46.7671 40.2986 46.952 40.2986 47.1793V48.3205H40.0372L40.0159 48.0931H40.0053C39.9182 48.1696 39.8204 48.2355 39.7121 48.2886C39.6037 48.3417 39.4953 48.3651 39.3848 48.3651C39.2212 48.3651 39.0916 48.3226 38.9938 48.2227C38.8854 48.1462 38.8408 48.0166 38.8408 47.8423V47.8402ZM39.1447 47.819C39.1447 47.9273 39.1766 48.0038 39.2424 48.0463C39.3083 48.0888 39.3848 48.1122 39.4698 48.1122C39.5548 48.1122 39.6441 48.091 39.7312 48.0463C39.8077 48.0038 39.8948 47.938 39.9926 47.8615V47.3387C39.8396 47.36 39.6993 47.3812 39.6016 47.4152C39.4932 47.4471 39.4061 47.4811 39.3402 47.513C39.2743 47.5555 39.2318 47.6001 39.1978 47.6426C39.1659 47.7085 39.1426 47.7616 39.1426 47.8168L39.1447 47.819Z" fill="#2A3039"/>
<path d="M40.9935 45.5876H41.308V47.9698C41.308 48.025 41.3186 48.0569 41.3293 48.0781C41.3505 48.0994 41.3718 48.11 41.3951 48.11H41.427C41.4376 48.11 41.4483 48.11 41.4695 48.0994L41.512 48.3395C41.4908 48.3501 41.4695 48.3608 41.4355 48.3608C41.4015 48.3608 41.3696 48.3714 41.3271 48.3714C41.2081 48.3714 41.121 48.3395 41.0658 48.263C41.0105 48.1865 40.9893 48.0888 40.9893 47.9485V45.5876H40.9935Z" fill="#2A3039"/>
<path d="M42.0709 45.5876H42.3854V47.9698C42.3854 48.025 42.396 48.0569 42.4066 48.0781C42.4279 48.0994 42.4491 48.11 42.4725 48.11H42.5044C42.515 48.11 42.5256 48.11 42.5469 48.0994L42.5894 48.3395C42.5681 48.3501 42.5469 48.3608 42.5129 48.3608C42.4789 48.3608 42.447 48.3714 42.4045 48.3714C42.2855 48.3714 42.1984 48.3395 42.1432 48.263C42.0879 48.1865 42.0667 48.0888 42.0667 47.9485V45.5876H42.0709Z" fill="#2A3039"/>
<path d="M44.0513 45.8066H44.8014C44.931 45.8066 45.0521 45.8172 45.1499 45.8384C45.2583 45.8597 45.3454 45.8937 45.4219 45.9468C45.4984 46.0021 45.5515 46.0552 45.5961 46.1423C45.6386 46.2188 45.662 46.3166 45.662 46.4249C45.662 46.5546 45.6301 46.6651 45.5536 46.7628C45.4771 46.8606 45.3688 46.9371 45.2264 46.9689V46.9796C45.4113 47.0114 45.5536 47.0773 45.662 47.1751C45.7598 47.2728 45.815 47.4152 45.815 47.5873C45.815 47.7063 45.7938 47.8147 45.7491 47.9146C45.7066 48.0123 45.6408 48.0888 45.5536 48.1419C45.4665 48.2078 45.3688 48.2503 45.2498 48.2843C45.1308 48.3162 44.999 48.3268 44.8588 48.3268H44.0534V45.8044L44.0513 45.8066ZM44.7483 46.8839C44.965 46.8839 45.118 46.8521 45.2158 46.7756C45.3135 46.6991 45.3581 46.5907 45.3581 46.4483C45.3581 46.3059 45.3029 46.2082 45.2051 46.1551C45.1074 46.0892 44.9544 46.0679 44.7589 46.0679H44.3785V46.8946H44.7483V46.8839ZM44.8141 48.0697C45.0309 48.0697 45.2051 48.0272 45.3263 47.9507C45.4453 47.8742 45.5111 47.7446 45.5111 47.5703C45.5111 47.4173 45.4559 47.2983 45.3369 47.2218C45.2179 47.1453 45.0436 47.1134 44.8248 47.1134H44.3891V48.0697H44.8141Z" fill="#2A3039"/>
<path d="M46.2804 46.4589H46.5949V47.6C46.5949 47.7743 46.6268 47.9039 46.6821 47.9804C46.7373 48.0569 46.8244 48.0994 46.9541 48.0994C47.0518 48.0994 47.1389 48.0782 47.2154 48.0229C47.2919 47.9677 47.3684 47.8933 47.4662 47.7828V46.4568H47.7807V48.3268H47.5193L47.4981 48.0335H47.4874C47.4003 48.1313 47.3132 48.2184 47.2154 48.2843C47.1177 48.3502 47.0093 48.382 46.8776 48.382C46.6821 48.382 46.5291 48.3162 46.4419 48.1972C46.3548 48.0782 46.2996 47.8933 46.2996 47.6532V46.4568H46.2783L46.2804 46.4589Z" fill="#2A3039"/>
<path d="M48.4438 47.9039C48.531 47.9698 48.6075 48.0229 48.6946 48.0675C48.7817 48.11 48.8795 48.1334 48.9878 48.1334C49.1068 48.1334 49.2046 48.1015 49.2598 48.0463C49.3257 47.991 49.3576 47.9166 49.3576 47.8401C49.3576 47.7976 49.347 47.753 49.3151 47.7105C49.2938 47.6786 49.2598 47.6446 49.2173 47.6128C49.1748 47.5915 49.1302 47.5575 49.075 47.5363C49.0197 47.515 48.9772 47.4938 48.922 47.4704C48.8561 47.4491 48.7923 47.4151 48.7265 47.3939C48.6606 47.362 48.5968 47.328 48.5522 47.2855C48.497 47.243 48.4545 47.1984 48.4226 47.1325C48.3907 47.0773 48.3673 47.0135 48.3673 46.9264C48.3673 46.8499 48.378 46.784 48.4098 46.7203C48.4417 46.6544 48.4863 46.6013 48.5395 46.546C48.5947 46.5035 48.6585 46.4589 48.7456 46.4376C48.8327 46.4164 48.9198 46.3951 49.0176 46.3951C49.1366 46.3951 49.245 46.4164 49.3448 46.461C49.4426 46.5035 49.5297 46.5481 49.6062 46.614L49.4532 46.8095C49.3873 46.767 49.3236 46.7224 49.2577 46.6905C49.1918 46.6586 49.1153 46.648 49.0303 46.648C48.9113 46.648 48.8242 46.6693 48.769 46.7245C48.7137 46.7798 48.6818 46.8435 48.6818 46.9094C48.6818 46.9519 48.6925 46.9859 48.7137 47.0178C48.735 47.0496 48.769 47.0836 48.8115 47.1049C48.854 47.1261 48.8986 47.1474 48.9411 47.1708C48.9963 47.192 49.0388 47.2133 49.0941 47.226C49.16 47.2473 49.2237 47.2813 49.3002 47.3025C49.3661 47.3344 49.4298 47.3684 49.4851 47.4109C49.5403 47.4534 49.5828 47.5086 49.6147 47.5639C49.6466 47.6298 49.67 47.7063 49.67 47.7913C49.67 47.8678 49.6593 47.9443 49.6275 48.008C49.5956 48.0739 49.551 48.1376 49.4978 48.1823C49.4426 48.2375 49.3682 48.2694 49.2811 48.3013C49.194 48.3331 49.0962 48.3438 48.9878 48.3438C48.8582 48.3438 48.7265 48.3225 48.6075 48.2673C48.4885 48.2248 48.3801 48.1589 48.293 48.0824L48.446 47.9081L48.4438 47.9039Z" fill="#2A3039"/>
<path d="M50.369 46.0658C50.3031 46.0658 50.2606 46.0445 50.216 46.0105C50.1735 45.968 50.1501 45.9234 50.1501 45.8682C50.1501 45.8023 50.1714 45.7598 50.216 45.7152C50.2585 45.6833 50.3138 45.6599 50.369 45.6599C50.4349 45.6599 50.4774 45.6812 50.522 45.7152C50.5645 45.747 50.5879 45.8023 50.5879 45.8682C50.5879 45.9234 50.5666 45.9765 50.522 46.0105C50.4795 46.053 50.4243 46.0658 50.369 46.0658ZM50.2054 46.4568H50.5199V48.3268H50.2054V46.4568Z" fill="#2A3039"/>
<path d="M51.2509 46.4589H51.5122L51.5335 46.7309H51.5441C51.6312 46.6438 51.729 46.5673 51.8267 46.5035C51.9245 46.4376 52.0435 46.4164 52.1752 46.4164C52.3707 46.4164 52.5131 46.4823 52.6109 46.6013C52.698 46.7203 52.7532 46.9051 52.7532 47.1453V48.331H52.426V47.1899C52.426 47.0156 52.3941 46.886 52.3389 46.8095C52.2836 46.733 52.1965 46.6905 52.0669 46.6905C51.9691 46.6905 51.882 46.7118 51.8055 46.767C51.729 46.8095 51.6419 46.886 51.5547 46.9838V48.3438H51.2402L51.2509 46.4631V46.4589Z" fill="#2A3039"/>
<path d="M53.3057 47.3939C53.3057 47.2409 53.3269 47.1006 53.3822 46.9816C53.4374 46.8626 53.4905 46.7543 53.567 46.6778C53.6435 46.5906 53.7307 46.5248 53.839 46.4823C53.9368 46.4398 54.0452 46.4164 54.1535 46.4164C54.2725 46.4164 54.3809 46.4376 54.468 46.4823C54.5552 46.5248 54.6423 46.58 54.7082 46.6565C54.774 46.733 54.8165 46.8308 54.8505 46.9285C54.8824 47.0369 54.9058 47.1559 54.9058 47.2876C54.9058 47.3535 54.9058 47.4173 54.8952 47.4619H53.6223C53.6329 47.668 53.6988 47.821 53.8072 47.94C53.9155 48.059 54.0685 48.1143 54.2428 48.1143C54.3299 48.1143 54.417 48.1036 54.4935 48.0718C54.57 48.0399 54.6465 48.0059 54.7103 47.9634L54.8187 48.1695C54.7315 48.2248 54.6444 48.2673 54.5467 48.2991C54.4489 48.3416 54.3299 48.3544 54.2088 48.3544C54.0792 48.3544 53.9687 48.3331 53.8603 48.2885C53.7519 48.246 53.6542 48.1801 53.5777 48.093C53.5012 48.0059 53.4353 47.9081 53.3822 47.7891C53.3397 47.6914 53.3057 47.549 53.3057 47.3981V47.3939ZM54.621 47.2515C54.621 47.056 54.5785 46.9136 54.502 46.8053C54.4255 46.7075 54.3065 46.6523 54.1642 46.6523C54.0983 46.6523 54.0345 46.6629 53.9687 46.6948C53.9028 46.716 53.8497 46.7606 53.805 46.8138C53.7625 46.869 53.7179 46.9221 53.686 46.9986C53.6542 47.0751 53.6308 47.1516 53.6202 47.2494H54.621V47.2515Z" fill="#2A3039"/>
<path d="M55.4053 47.9039C55.4924 47.9698 55.5689 48.0229 55.656 48.0675C55.7431 48.11 55.8409 48.1334 55.9493 48.1334C56.0683 48.1334 56.166 48.1015 56.2213 48.0463C56.2871 47.991 56.319 47.9166 56.319 47.8401C56.319 47.7976 56.3084 47.753 56.2765 47.7105C56.2553 47.6786 56.2213 47.6446 56.1788 47.6128C56.1363 47.5915 56.0916 47.5575 56.0364 47.5363C55.9811 47.515 55.9386 47.4938 55.8834 47.4704C55.8175 47.4491 55.7538 47.4151 55.6879 47.3939C55.622 47.362 55.5583 47.328 55.5136 47.2855C55.4584 47.243 55.4159 47.1984 55.384 47.1325C55.3521 47.0773 55.3288 47.0135 55.3288 46.9264C55.3288 46.8499 55.3394 46.784 55.3713 46.7203C55.4031 46.6544 55.4478 46.6013 55.5009 46.546C55.5561 46.5035 55.6199 46.4589 55.707 46.4376C55.7941 46.4164 55.8813 46.3951 55.979 46.3951C56.098 46.3951 56.2064 46.4164 56.3063 46.461C56.404 46.5035 56.4911 46.5481 56.5676 46.614L56.4146 46.8095C56.3488 46.767 56.285 46.7224 56.2191 46.6905C56.1533 46.6586 56.0768 46.648 55.9918 46.648C55.8728 46.648 55.7856 46.6693 55.7304 46.7245C55.6751 46.7798 55.6433 46.8435 55.6433 46.9094C55.6433 46.9519 55.6539 46.9859 55.6751 47.0178C55.6964 47.0496 55.7304 47.0836 55.7729 47.1049C55.8154 47.1261 55.86 47.1474 55.9025 47.1708C55.9578 47.192 56.0003 47.2133 56.0555 47.226C56.1214 47.2473 56.1851 47.2813 56.2616 47.3025C56.3275 47.3344 56.3913 47.3684 56.4465 47.4109C56.5018 47.4534 56.5443 47.5086 56.5761 47.5639C56.608 47.6298 56.6314 47.7063 56.6314 47.7913C56.6314 47.8678 56.6208 47.9443 56.5889 48.008C56.557 48.0739 56.5124 48.1376 56.4593 48.1823C56.404 48.2375 56.3296 48.2694 56.2425 48.3013C56.1554 48.3331 56.0576 48.3438 55.9493 48.3438C55.8196 48.3438 55.6879 48.3225 55.5689 48.2673C55.4499 48.2248 55.3415 48.1589 55.2544 48.0824L55.4074 47.9081L55.4053 47.9039Z" fill="#2A3039"/>
<path d="M57.1116 47.9039C57.1987 47.9698 57.2752 48.0229 57.3623 48.0675C57.4494 48.11 57.5472 48.1334 57.6556 48.1334C57.7746 48.1334 57.8723 48.1015 57.9276 48.0463C57.9934 47.991 58.0253 47.9166 58.0253 47.8401C58.0253 47.7976 58.0147 47.753 57.9828 47.7105C57.9616 47.6786 57.9276 47.6446 57.8851 47.6128C57.8426 47.5915 57.7979 47.5575 57.7427 47.5363C57.6874 47.515 57.6449 47.4938 57.5897 47.4704C57.5238 47.4491 57.4601 47.4151 57.3942 47.3939C57.3283 47.362 57.2646 47.328 57.2199 47.2855C57.1647 47.243 57.1222 47.1984 57.0903 47.1325C57.0584 47.0773 57.0351 47.0135 57.0351 46.9264C57.0351 46.8499 57.0457 46.784 57.0776 46.7203C57.1094 46.6544 57.1541 46.6013 57.2072 46.546C57.2624 46.5035 57.3262 46.4589 57.4133 46.4376C57.4898 46.4164 57.5876 46.3951 57.6853 46.3951C57.8043 46.3951 57.9127 46.4164 58.0126 46.461C58.1124 46.5056 58.1974 46.5481 58.2739 46.614L58.1209 46.8095C58.0551 46.767 57.9913 46.7224 57.9254 46.6905C57.8596 46.6586 57.7831 46.648 57.6981 46.648C57.5791 46.648 57.4919 46.6693 57.4367 46.7245C57.3814 46.7798 57.3496 46.8435 57.3496 46.9094C57.3496 46.9519 57.3602 46.9859 57.3814 47.0178C57.4027 47.0496 57.4367 47.0836 57.4792 47.1049C57.5217 47.1261 57.5663 47.1474 57.6088 47.1708C57.6641 47.192 57.7066 47.2133 57.7618 47.226C57.8277 47.2473 57.8914 47.2813 57.9679 47.3025C58.0338 47.3344 58.0976 47.3684 58.1528 47.4109C58.2081 47.4534 58.2506 47.5086 58.2824 47.5639C58.3143 47.6298 58.3377 47.7063 58.3377 47.7913C58.3377 47.8678 58.3271 47.9443 58.2952 48.008C58.2633 48.0718 58.2187 48.1376 58.1656 48.1823C58.1103 48.2375 58.0359 48.2694 57.9488 48.3013C57.8617 48.3331 57.7639 48.3438 57.6556 48.3438C57.5259 48.3438 57.3942 48.3225 57.2752 48.2673C57.1562 48.2248 57.0478 48.1589 56.9607 48.0824L57.1137 47.9081L57.1116 47.9039Z" fill="#2A3039"/>
<path d="M31.6307 51.8861H30.7063L30.4662 52.6575H30.1389L30.9974 50.1351H31.3565L32.215 52.6575H31.8772L31.6264 51.8861H31.6307ZM31.5435 51.6248L31.4245 51.2444C31.382 51.102 31.3374 50.9618 31.2949 50.8194C31.2524 50.677 31.2078 50.5368 31.1759 50.3944H31.1653C31.1228 50.5368 31.0888 50.6876 31.0463 50.8194C31.0038 50.9618 30.9592 51.102 30.9167 51.2444L30.7977 51.6248H31.5478H31.5435Z" fill="#2A3039"/>
<path d="M32.4893 51.7225C32.4893 51.5695 32.5105 51.4399 32.5551 51.3103C32.5976 51.1807 32.6635 51.0829 32.7294 51.0064C32.8059 50.9193 32.893 50.8534 32.9908 50.8109C33.0885 50.7684 33.1863 50.745 33.2946 50.745C33.403 50.745 33.5008 50.7663 33.5773 50.8003C33.6538 50.8428 33.7409 50.8874 33.8174 50.9639L33.8068 50.6494V49.9312H34.1213V52.6724H33.8599L33.8386 52.4557H33.828C33.7515 52.5322 33.6644 52.5853 33.5666 52.6405C33.4689 52.6958 33.3711 52.717 33.2628 52.717C33.0226 52.717 32.8378 52.6299 32.6975 52.4663C32.5679 52.2814 32.4914 52.0413 32.4914 51.7268L32.4893 51.7225ZM32.8271 51.7225C32.8271 51.9499 32.8696 52.1242 32.9568 52.2453C33.0439 52.3749 33.1735 52.4302 33.3371 52.4302C33.4243 52.4302 33.5114 52.4089 33.5879 52.3643C33.6644 52.3218 33.7409 52.2559 33.8153 52.1688V51.1892C33.7388 51.1127 33.6623 51.0702 33.5879 51.0362C33.5135 51.0022 33.4349 50.9937 33.3605 50.9937C33.2861 50.9937 33.2181 51.0149 33.1544 51.0489C33.0885 51.0808 33.0354 51.136 32.9801 51.1913C32.9376 51.2572 32.893 51.3337 32.8611 51.4187C32.8399 51.5164 32.8293 51.6142 32.8293 51.7225H32.8271Z" fill="#2A3039"/>
<path d="M34.7842 50.7875H35.0456L35.0668 51.0595H35.0774C35.1646 50.9724 35.2517 50.8959 35.3494 50.8321C35.4472 50.7684 35.5449 50.745 35.6639 50.745C35.8063 50.745 35.9253 50.7769 36.0018 50.8427C36.0783 50.9086 36.1442 50.9957 36.1761 51.1041C36.2738 50.9957 36.3716 50.9086 36.4693 50.8427C36.5671 50.7769 36.6754 50.745 36.7966 50.745C36.9921 50.745 37.1344 50.8109 37.2216 50.9299C37.3193 51.0489 37.3639 51.2337 37.3639 51.4739V52.6596H37.0494V51.5185C37.0494 51.3442 37.0176 51.2146 36.9623 51.1381C36.9071 51.0616 36.8199 51.0191 36.7009 51.0191C36.5586 51.0191 36.4077 51.1169 36.2334 51.3124V52.6724H35.9189V51.5312C35.9189 51.357 35.8871 51.2274 35.8318 51.1509C35.7766 51.0744 35.6894 51.0319 35.5704 51.0319C35.4281 51.0319 35.2772 51.1296 35.1029 51.3251V52.6851H34.7884V50.7917L34.7842 50.7875Z" fill="#2A3039"/>
<path d="M38.2308 50.3965C38.165 50.3965 38.1225 50.3752 38.0778 50.3412C38.0353 50.2987 38.012 50.2541 38.012 50.1988C38.012 50.133 38.0332 50.0905 38.0778 50.0458C38.1203 50.014 38.1756 49.9906 38.2308 49.9906C38.2967 49.9906 38.3392 50.0118 38.3838 50.0458C38.4263 50.0777 38.4497 50.133 38.4497 50.1988C38.4497 50.2541 38.4285 50.3072 38.3838 50.3412C38.352 50.3837 38.2967 50.3965 38.2308 50.3965ZM38.0672 50.7875H38.3817V52.6575H38.0672V50.7875Z" fill="#2A3039"/>
<path d="M39.1128 50.7875H39.3742L39.3954 51.0595H39.406C39.4932 50.9724 39.5909 50.8959 39.6887 50.8321C39.7864 50.7684 39.9054 50.745 40.0372 50.745C40.2327 50.745 40.375 50.8109 40.4728 50.9299C40.5599 51.0489 40.6152 51.2337 40.6152 51.4739V52.6596H40.3007V51.5185C40.3007 51.3442 40.2688 51.2146 40.2135 51.1381C40.1583 51.0616 40.0712 51.0191 39.9415 51.0191C39.8438 51.0191 39.7567 51.0404 39.6802 51.0956C39.6037 51.1381 39.5165 51.2146 39.4294 51.3124V52.6724H39.1149V50.7917L39.1128 50.7875Z" fill="#2A3039"/>
<path d="M41.4738 50.3965C41.4079 50.3965 41.3654 50.3752 41.3208 50.3412C41.2783 50.2987 41.2549 50.2541 41.2549 50.1988C41.2549 50.133 41.2761 50.0905 41.3208 50.0458C41.3633 50.014 41.4185 49.9906 41.4738 49.9906C41.5396 49.9906 41.5821 50.0118 41.6268 50.0458C41.6693 50.0777 41.6926 50.133 41.6926 50.1988C41.6926 50.2541 41.6714 50.3072 41.6268 50.3412C41.5949 50.3837 41.5396 50.3965 41.4738 50.3965ZM41.3208 50.7875H41.6353V52.6575H41.3208V50.7875Z" fill="#2A3039"/>
<path d="M42.311 52.2347C42.3982 52.3006 42.4747 52.3537 42.5618 52.3983C42.6489 52.4408 42.7467 52.4642 42.855 52.4642C42.974 52.4642 43.0718 52.4323 43.127 52.3771C43.1929 52.3218 43.2248 52.2474 43.2248 52.1709C43.2248 52.1284 43.2142 52.0838 43.1823 52.0413C43.161 52.0094 43.127 51.9755 43.0845 51.9436C43.042 51.9223 42.9974 51.8883 42.9422 51.8671C42.8869 51.8458 42.8444 51.8246 42.7892 51.8012C42.7233 51.78 42.6595 51.746 42.5937 51.7247C42.5278 51.6928 42.464 51.6588 42.4194 51.6163C42.3642 51.5738 42.3217 51.5292 42.2898 51.4633C42.2579 51.4081 42.2345 51.3443 42.2345 51.2572C42.2345 51.1807 42.2452 51.1148 42.277 51.0511C42.3089 50.9852 42.3535 50.9321 42.4067 50.8768C42.4619 50.8343 42.5257 50.7897 42.6128 50.7685C42.6893 50.7472 42.787 50.726 42.8848 50.726C43.0038 50.726 43.1122 50.7472 43.212 50.7918C43.3098 50.8343 43.3969 50.879 43.4734 50.9448L43.3204 51.1403C43.2545 51.0978 43.1908 51.0532 43.1249 51.0213C43.059 50.9895 42.9825 50.9788 42.8975 50.9788C42.7785 50.9788 42.6914 51.0001 42.6362 51.0553C42.5809 51.1106 42.549 51.1743 42.549 51.2402C42.549 51.2827 42.5597 51.3167 42.5809 51.3486C42.6022 51.3805 42.6362 51.4145 42.6787 51.4357C42.7212 51.457 42.7658 51.4782 42.8083 51.5016C42.8635 51.5228 42.906 51.5441 42.9613 51.5568C43.0272 51.5781 43.0909 51.6121 43.1674 51.6333C43.2333 51.6652 43.297 51.6992 43.3523 51.7417C43.4075 51.7842 43.45 51.8395 43.4819 51.8947C43.5138 51.9606 43.5372 52.0371 43.5372 52.1221C43.5372 52.1986 43.5265 52.2751 43.4947 52.3388C43.4628 52.4047 43.4182 52.4684 43.365 52.5131C43.3098 52.5683 43.2354 52.6002 43.1483 52.6321C43.0612 52.6639 42.9634 52.6746 42.855 52.6746C42.7254 52.6746 42.5937 52.6533 42.4747 52.5981C42.3557 52.5556 42.2473 52.4897 42.1602 52.4132L42.3132 52.239L42.311 52.2347Z" fill="#2A3039"/>
<path d="M44.1597 51.0489H43.8452V50.8088L44.1385 50.7875L44.181 50.2648H44.4423V50.7875H44.9417V51.0489H44.4423V52.0923C44.4423 52.2113 44.4636 52.2984 44.5082 52.3643C44.5507 52.4301 44.6272 52.462 44.7356 52.462C44.7675 52.462 44.8015 52.462 44.844 52.4514C44.8865 52.4408 44.9205 52.4301 44.9523 52.4195L45.0182 52.6596C44.963 52.6809 44.9098 52.6915 44.8546 52.7021C44.7887 52.7128 44.7356 52.7234 44.6803 52.7234C44.5826 52.7234 44.4955 52.7128 44.4296 52.6809C44.3637 52.649 44.3106 52.6044 44.266 52.5513C44.2213 52.4981 44.1895 52.4323 44.1788 52.3558C44.1576 52.2793 44.1576 52.1921 44.1576 52.105V51.051L44.1597 51.0489Z" fill="#2A3039"/>
<path d="M45.4645 50.7875H45.7259L45.7472 51.1254H45.7578C45.8237 51.0064 45.9002 50.9192 45.9852 50.8427C46.0723 50.7769 46.1807 50.7344 46.2784 50.7344C46.3549 50.7344 46.4208 50.745 46.4739 50.7769L46.408 51.0489C46.3762 51.0382 46.3528 51.0276 46.3209 51.0276C46.2997 51.0276 46.2657 51.017 46.2232 51.017C46.1467 51.017 46.0595 51.0489 45.9724 51.1147C45.8853 51.1806 45.8088 51.289 45.745 51.4526V52.649H45.4624V50.7896L45.4645 50.7875Z" fill="#2A3039"/>
<path d="M46.7034 52.1688C46.7034 51.9627 46.7905 51.8097 46.9754 51.7013C47.1602 51.5929 47.4535 51.5164 47.8572 51.4739C47.8572 51.4187 47.8466 51.3549 47.836 51.2997C47.8254 51.2444 47.8041 51.1913 47.7701 51.1467C47.7382 51.1042 47.7042 51.0702 47.6511 51.0383C47.6086 51.0171 47.5427 50.9958 47.4662 50.9958C47.3579 50.9958 47.2495 51.0171 47.1624 51.0617C47.0646 51.1042 46.9881 51.1488 46.9116 51.2041L46.782 50.9873C46.8691 50.9321 46.9775 50.8789 47.0965 50.8237C47.2261 50.7684 47.3579 50.7472 47.5087 50.7472C47.7361 50.7472 47.8997 50.8131 48.0081 50.9533C48.1059 51.0957 48.1611 51.2806 48.1611 51.5079V52.6491H47.8997L47.8785 52.4217H47.8679C47.7807 52.4982 47.683 52.5641 47.5746 52.6172C47.4662 52.6703 47.3579 52.6937 47.2474 52.6937C47.0837 52.6937 46.9541 52.6512 46.8564 52.5513C46.7586 52.4748 46.7034 52.3452 46.7034 52.1709V52.1688ZM47.0179 52.1476C47.0179 52.2559 47.0497 52.3324 47.1156 52.3749C47.1815 52.4174 47.258 52.4408 47.343 52.4408C47.428 52.4408 47.5172 52.4196 47.6044 52.3749C47.6809 52.3324 47.768 52.2666 47.8657 52.1901V51.6673C47.7127 51.6886 47.5725 51.7098 47.4747 51.7438C47.3664 51.7757 47.2792 51.8097 47.2134 51.8416C47.1475 51.8841 47.105 51.9287 47.071 51.9712C47.0285 52.0371 47.0157 52.0902 47.0157 52.1454L47.0179 52.1476Z" fill="#2A3039"/>
<path d="M48.9664 51.0489H48.6519V50.8088L48.9451 50.7875L48.9876 50.2648H49.249V50.7875H49.7484V51.0489H49.249V52.0923C49.249 52.2113 49.2702 52.2984 49.3149 52.3643C49.3574 52.4301 49.4339 52.462 49.5422 52.462C49.5741 52.462 49.6081 52.462 49.6506 52.4514C49.6931 52.4408 49.7271 52.4301 49.759 52.4195L49.8249 52.6596C49.7696 52.6809 49.7165 52.6915 49.6612 52.7021C49.5954 52.7128 49.5422 52.7234 49.487 52.7234C49.3892 52.7234 49.3021 52.7128 49.2362 52.6809C49.1704 52.649 49.1172 52.6044 49.0726 52.5513C49.0301 52.496 48.9961 52.4323 48.9855 52.3558C48.9642 52.2793 48.9642 52.1921 48.9642 52.105V51.051L48.9664 51.0489Z" fill="#2A3039"/>
<path d="M50.4242 50.3965C50.3583 50.3965 50.3158 50.3752 50.2712 50.3412C50.2287 50.2987 50.2053 50.2541 50.2053 50.1988C50.2053 50.133 50.2266 50.0905 50.2712 50.0458C50.3137 50.014 50.3689 49.9906 50.4242 49.9906C50.4901 49.9906 50.5326 50.0118 50.5772 50.0458C50.6197 50.0777 50.6431 50.133 50.6431 50.1988C50.6431 50.2541 50.6218 50.3072 50.5772 50.3412C50.5453 50.3837 50.4901 50.3965 50.4242 50.3965ZM50.2606 50.7875H50.5751V52.6575H50.2606V50.7875Z" fill="#2A3039"/>
<path d="M51.1636 51.7225C51.1636 51.5695 51.1848 51.4292 51.2401 51.3102C51.2826 51.1912 51.3484 51.0829 51.4356 51.0064C51.5121 50.9192 51.6098 50.8534 51.7076 50.8109C51.8159 50.7684 51.9243 50.745 52.0348 50.745C52.1538 50.745 52.2622 50.7662 52.3621 50.8109C52.4704 50.8534 52.5576 50.9192 52.6341 51.0064C52.7106 51.0935 52.7764 51.1912 52.8296 51.3102C52.8721 51.4292 52.9061 51.5716 52.9061 51.7225C52.9061 51.8734 52.8848 52.0157 52.8296 52.1347C52.7871 52.2537 52.7212 52.3621 52.6341 52.4386C52.5576 52.5257 52.4598 52.5916 52.3621 52.6341C52.2537 52.6766 52.1453 52.7 52.0348 52.7C51.9158 52.7 51.8074 52.6787 51.7076 52.6341C51.5992 52.5916 51.5121 52.5257 51.4356 52.4386C51.3591 52.3515 51.2932 52.2537 51.2401 52.1347C51.1976 52.0157 51.1636 51.8734 51.1636 51.7225ZM51.4908 51.7225C51.4908 51.8309 51.5014 51.9286 51.5333 52.0157C51.5546 52.1029 51.5992 52.1794 51.6417 52.2431C51.6842 52.309 51.7501 52.3515 51.8159 52.3855C51.8818 52.4174 51.9583 52.4407 52.0327 52.4407C52.1071 52.4407 52.1857 52.4195 52.2494 52.3855C52.3153 52.3536 52.3684 52.2984 52.4237 52.2431C52.4662 52.1772 52.5108 52.1007 52.5321 52.0157C52.5533 51.9307 52.5746 51.8309 52.5746 51.7225C52.5746 51.6141 52.5639 51.5164 52.5321 51.4292C52.5108 51.3421 52.4662 51.2656 52.4237 51.2019C52.3812 51.1381 52.3153 51.0935 52.2494 51.0489C52.1836 51.017 52.1071 50.9936 52.0327 50.9936C51.9583 50.9936 51.8797 51.0149 51.8159 51.0489C51.7501 51.0807 51.6969 51.136 51.6417 51.2019C51.5992 51.2677 51.5546 51.3442 51.5333 51.4292C51.5121 51.5164 51.4908 51.6141 51.4908 51.7225Z" fill="#2A3039"/>
<path d="M53.4141 50.7875H53.6754L53.6967 51.0595H53.7073C53.7944 50.9724 53.8922 50.8959 53.9899 50.8321C54.0877 50.7684 54.2067 50.745 54.3384 50.745C54.5339 50.745 54.6763 50.8109 54.7741 50.9299C54.8612 51.0489 54.9164 51.2337 54.9164 51.4739V52.6596H54.6019V51.5185C54.6019 51.3442 54.5701 51.2146 54.5148 51.1381C54.4596 51.0616 54.3724 51.0191 54.2428 51.0191C54.1451 51.0191 54.0579 51.0404 53.9814 51.0956C53.9049 51.1381 53.8178 51.2146 53.7307 51.3124V52.6724H53.4162V50.7917L53.4141 50.7875Z" fill="#2A3039"/>
</svg>
