<?xml version="1.0" encoding="UTF-8" standalone="no"?>
<!DOCTYPE svg PUBLIC "-//W3C//DTD SVG 1.1//EN" "http://www.w3.org/Graphics/SVG/1.1/DTD/svg11.dtd">
<svg width="100%" height="100%" viewBox="0 0 1000 884" version="1.1" xmlns="http://www.w3.org/2000/svg" xmlns:xlink="http://www.w3.org/1999/xlink" xml:space="preserve" xmlns:serif="http://www.serif.com/" style="fill-rule:evenodd;clip-rule:evenodd;stroke-linejoin:round;stroke-miterlimit:2;">
    <g id="Artboard1" transform="matrix(1,0,0,1,0.661672,1.38109)">
        <rect x="-0.662" y="-1.381" width="999.621" height="883.324" style="fill:none;"/>
        <clipPath id="_clip1">
            <rect x="-0.662" y="-1.381" width="999.621" height="883.324"/>
        </clipPath>
        <g clip-path="url(#_clip1)">
            <g id="Software" transform="matrix(13.7413,0,0,13.7413,-4270.95,-84825)">
                <path d="M342.164,6202.65L342.059,6202.5C340.975,6200.94 338.833,6200.56 337.277,6201.64C337.277,6201.64 334.922,6203.28 334.922,6203.28C333.366,6204.36 332.982,6206.51 334.066,6208.06L334.414,6208.56L333.839,6208.36C332.051,6207.73 330.088,6208.67 329.459,6210.46C329.459,6210.46 328.507,6213.17 328.507,6213.17C327.878,6214.96 328.819,6216.92 330.608,6217.55C330.608,6217.55 331.288,6217.79 331.288,6217.79C331.287,6217.85 331.287,6217.92 331.287,6217.99C331.287,6218.17 331.29,6218.35 331.296,6218.54C331.296,6218.53 330.608,6218.78 330.608,6218.78C328.819,6219.41 327.878,6221.37 328.507,6223.16C328.507,6223.16 329.459,6225.86 329.459,6225.86C330.088,6227.65 332.051,6228.6 333.839,6227.97L334.414,6227.76L334.066,6228.26C332.982,6229.82 333.366,6231.96 334.922,6233.05C334.922,6233.05 337.277,6234.69 337.277,6234.69C338.833,6235.77 340.975,6235.39 342.059,6233.83L342.164,6233.68L342.164,6233.86C342.164,6235.76 343.703,6237.3 345.599,6237.3L348.469,6237.3C350.365,6237.3 351.904,6235.76 351.904,6233.86L351.904,6233.68L352.01,6233.83C353.093,6235.39 355.236,6235.77 356.792,6234.69C356.792,6234.69 359.147,6233.05 359.147,6233.05C360.703,6231.96 361.086,6229.82 360.003,6228.26L359.655,6227.76L360.229,6227.97C362.018,6228.6 363.98,6227.65 364.609,6225.86C364.609,6225.86 365.562,6223.16 365.562,6223.16C366.191,6221.37 365.249,6219.41 363.461,6218.78C363.461,6218.78 362.378,6218.4 362.378,6218.4L362.383,6217.93C362.383,6217.93 363.461,6217.55 363.461,6217.55C365.249,6216.92 366.191,6214.96 365.562,6213.17C365.562,6213.17 364.609,6210.46 364.609,6210.46C363.98,6208.67 362.018,6207.73 360.229,6208.36L359.655,6208.56L360.003,6208.06C361.086,6206.51 360.703,6204.36 359.147,6203.28C359.147,6203.28 356.792,6201.64 356.792,6201.64C355.236,6200.56 353.093,6200.94 352.01,6202.5L351.904,6202.65L351.904,6202.46C351.904,6200.57 350.365,6199.03 348.469,6199.03L345.599,6199.03C343.703,6199.03 342.164,6200.57 342.164,6202.46L342.164,6202.65ZM344.164,6204.73L344.164,6202.46C344.164,6201.67 344.807,6201.03 345.599,6201.03L348.469,6201.03C349.261,6201.03 349.904,6201.67 349.904,6202.46L349.904,6204.82C350.728,6205.01 351.522,6205.27 352.281,6205.61L353.651,6203.64C354.104,6202.99 354.999,6202.83 355.649,6203.28L358.004,6204.92C358.654,6205.37 358.814,6206.27 358.362,6206.92L356.93,6208.98C357.515,6209.63 358.037,6210.34 358.488,6211.09L360.893,6210.25C361.64,6209.98 362.46,6210.38 362.723,6211.12L363.675,6213.83C363.938,6214.58 363.544,6215.4 362.797,6215.66L360.306,6216.54C360.357,6217.01 360.383,6217.5 360.383,6217.99C360.383,6218.59 360.343,6219.19 360.266,6219.77L362.797,6220.66C363.544,6220.93 363.938,6221.75 363.675,6222.49L362.723,6225.2C362.46,6225.95 361.64,6226.34 360.893,6226.08L358.312,6225.17C357.867,6225.88 357.357,6226.54 356.792,6227.15L358.362,6229.41C358.814,6230.06 358.654,6230.95 358.004,6231.4L355.649,6233.05C354.999,6233.5 354.104,6233.34 353.651,6232.69L352.094,6230.45C351.392,6230.75 350.66,6230.99 349.904,6231.16L349.904,6233.86C349.904,6234.65 349.261,6235.3 348.469,6235.3L345.599,6235.3C344.807,6235.3 344.164,6234.65 344.164,6233.86L344.164,6231.25C343.379,6231.09 342.618,6230.86 341.887,6230.58L340.418,6232.69C339.965,6233.34 339.07,6233.5 338.42,6233.05L336.065,6231.4C335.415,6230.95 335.255,6230.06 335.707,6229.41L337.108,6227.4C336.481,6226.75 335.919,6226.05 335.43,6225.29L333.176,6226.08C332.429,6226.34 331.609,6225.95 331.346,6225.2L330.394,6222.49C330.131,6221.75 330.524,6220.93 331.271,6220.66L333.422,6219.91C333.333,6219.28 333.287,6218.64 333.287,6217.99C333.287,6217.45 333.318,6216.92 333.379,6216.4L331.271,6215.66C330.524,6215.4 330.131,6214.58 330.394,6213.83L331.346,6211.12C331.609,6210.38 332.429,6209.98 333.176,6210.25L335.251,6210.98C335.744,6210.17 336.32,6209.41 336.967,6208.73L335.707,6206.92C335.255,6206.27 335.415,6205.37 336.065,6204.92L338.42,6203.28C339.07,6202.83 339.965,6202.99 340.418,6203.64L341.697,6205.48C342.485,6205.15 343.31,6204.9 344.164,6204.73ZM317.106,6183.02L377.163,6183.02L377.163,6227.04L366.923,6227.04L366.923,6229.04L379.163,6229.04L379.163,6172.98L315.106,6172.98L315.106,6229.04L326.951,6229.04L326.951,6227.04L317.106,6227.04L317.106,6183.02ZM347.034,6207.99C341.409,6207.99 336.841,6212.56 336.841,6218.18C336.841,6223.81 341.409,6228.37 347.034,6228.37C352.66,6228.37 357.228,6223.81 357.228,6218.18C357.228,6212.56 352.66,6207.99 347.034,6207.99ZM347.034,6209.99C351.556,6209.99 355.228,6213.66 355.228,6218.18C355.228,6222.7 351.556,6226.37 347.034,6226.37C342.512,6226.37 338.841,6222.7 338.841,6218.18C338.841,6213.66 342.512,6209.99 347.034,6209.99ZM326.951,6225.01L326.951,6223.01L321.072,6223.01L321.072,6187.06L372.944,6187.06L372.944,6223.01L366.923,6223.01L366.923,6225.01L374.944,6225.01L374.944,6185.06L319.072,6185.06L319.072,6225.01L326.951,6225.01ZM347.034,6212.12C343.69,6212.12 340.975,6214.84 340.975,6218.18C340.975,6221.53 343.69,6224.24 347.034,6224.24C350.379,6224.24 353.094,6221.53 353.094,6218.18C353.094,6214.84 350.379,6212.12 347.034,6212.12ZM347.034,6214.12C349.275,6214.12 351.094,6215.94 351.094,6218.18C351.094,6220.42 349.275,6222.24 347.034,6222.24C344.794,6222.24 342.975,6220.42 342.975,6218.18C342.975,6215.94 344.794,6214.12 347.034,6214.12ZM323.049,6201.04L323.049,6203.02L330.984,6203.02L330.984,6201.04L323.049,6201.04ZM323.049,6197.03L323.049,6199.01L340.953,6199.01L340.953,6197.03L323.049,6197.03ZM323.049,6192.98L323.049,6194.96L339.016,6194.96L339.016,6192.98L323.049,6192.98ZM341.002,6192.97L341.002,6194.95L346.98,6194.95L346.98,6192.97L341.002,6192.97ZM349.018,6192.97L349.018,6194.95L358.994,6194.95L358.994,6192.97L349.018,6192.97ZM337.047,6188.99L337.047,6190.97L344.984,6190.97L344.984,6188.99L337.047,6188.99ZM323.049,6188.99L323.049,6190.97L334.966,6190.97L334.966,6188.99L323.049,6188.99ZM317.106,6174.98L317.106,6181.04L330.943,6181.04L330.943,6174.98L317.106,6174.98ZM332.917,6174.98L332.917,6181.04L377.163,6181.04L377.163,6174.98L332.917,6174.98ZM374.938,6177.02L335.05,6177.02L335.05,6178.99L374.938,6178.99L374.938,6177.02ZM326.97,6177.01L326.97,6178.99L328.944,6178.99L328.944,6177.01L326.97,6177.01ZM323.024,6177.01L323.024,6178.99L324.998,6178.99L324.998,6177.01L323.024,6177.01ZM319.026,6177.01L319.026,6178.99L321,6178.99L321,6177.01L319.026,6177.01Z"/>
            </g>
        </g>
    </g>
</svg>
