<?xml version="1.0" encoding="UTF-8" standalone="no"?>
<!DOCTYPE svg PUBLIC "-//W3C//DTD SVG 1.1//EN" "http://www.w3.org/Graphics/SVG/1.1/DTD/svg11.dtd">
<svg width="100%" height="100%" viewBox="0 0 1000 884" version="1.1" xmlns="http://www.w3.org/2000/svg" xmlns:xlink="http://www.w3.org/1999/xlink" xml:space="preserve" xmlns:serif="http://www.serif.com/" style="fill-rule:evenodd;clip-rule:evenodd;stroke-linejoin:round;stroke-miterlimit:2;">
    <g id="Artboard1" transform="matrix(1,0,0,1,0.661672,1.38109)">
        <rect x="-0.662" y="-1.381" width="999.621" height="883.324" style="fill:none;"/>
        <g id="Training" transform="matrix(13.7464,0,0,13.7464,-2799.44,-24097.1)">
            <path d="M256.374,1806.21L251.14,1809.33L245.262,1805.32C245.836,1804.24 246.174,1802.96 246.174,1801.57C246.174,1797.49 243.287,1794.38 240.03,1794.38C236.774,1794.38 233.887,1797.49 233.887,1801.57C233.887,1803.2 234.35,1804.67 235.114,1805.86L229.194,1809.33L224.117,1805.87C224.886,1804.68 225.352,1803.2 225.352,1801.57C225.352,1797.49 222.465,1794.38 219.208,1794.38C215.952,1794.38 213.065,1797.49 213.065,1801.57C213.065,1803.53 213.734,1805.27 214.79,1806.54L209.43,1810.6C209.18,1810.78 209.033,1811.08 209.033,1811.39L209.033,1815.82C209.033,1816.37 209.481,1816.82 210.033,1816.82L270.664,1816.82C271.216,1816.82 271.664,1816.37 271.664,1815.82L271.664,1811.45C271.664,1811.1 271.479,1810.77 271.178,1810.59L265.106,1806.94C266.37,1805.64 267.194,1803.74 267.194,1801.57C267.194,1797.49 264.307,1794.38 261.05,1794.38C257.794,1794.38 254.907,1797.49 254.907,1801.57C254.907,1803.36 255.468,1804.97 256.374,1806.21ZM244.088,1806.94C242.985,1808.08 241.548,1808.75 240.03,1808.75C238.725,1808.75 237.479,1808.25 236.455,1807.39L230.126,1811.1L230.126,1813.67L228.136,1813.67L228.136,1811.03L222.789,1807.39C221.764,1808.25 220.516,1808.75 219.208,1808.75C218.182,1808.75 217.192,1808.44 216.318,1807.89L211.033,1811.89C211.033,1811.89 211.033,1814.82 211.033,1814.82C211.033,1814.82 269.664,1814.82 269.664,1814.82C269.664,1814.82 269.664,1812.02 269.664,1812.02L263.346,1808.22C262.628,1808.57 261.851,1808.75 261.05,1808.75C259.892,1808.75 258.781,1808.36 257.83,1807.67L252.128,1811.07L252.128,1813.67L250.138,1813.67L250.138,1811.06L244.088,1806.94ZM219.208,1796.38C221.495,1796.38 223.352,1798.7 223.352,1801.57C223.352,1804.43 221.495,1806.75 219.208,1806.75C216.922,1806.75 215.065,1804.43 215.065,1801.57C215.065,1798.7 216.922,1796.38 219.208,1796.38ZM240.03,1796.38C242.317,1796.38 244.174,1798.7 244.174,1801.57C244.174,1804.43 242.317,1806.75 240.03,1806.75C237.744,1806.75 235.887,1804.43 235.887,1801.57C235.887,1798.7 237.744,1796.38 240.03,1796.38ZM261.05,1796.38C263.337,1796.38 265.194,1798.7 265.194,1801.57C265.194,1804.43 263.337,1806.75 261.05,1806.75C258.764,1806.75 256.907,1804.43 256.907,1801.57C256.907,1798.7 258.764,1796.38 261.05,1796.38ZM227.992,1758.95L270.049,1758.95C270.049,1758.95 269.966,1788.89 269.966,1788.89C269.966,1788.89 228.109,1788.89 228.109,1788.89C228.109,1788.89 228.044,1774.89 228.044,1774.89C228.044,1774.89 243.992,1774.84 243.992,1774.84L243.992,1766.89L216.835,1766.89C214.445,1766.89 212.154,1767.85 210.47,1769.54C208.786,1771.24 207.848,1773.54 207.865,1775.92L207.967,1790.95L216.055,1790.95L216.055,1781.05L214.055,1781.05L214.055,1788.95C214.055,1788.95 209.954,1788.95 209.954,1788.95C209.954,1788.95 209.865,1775.91 209.865,1775.91C209.852,1774.05 210.581,1772.27 211.889,1770.95C213.198,1769.63 214.978,1768.89 216.835,1768.89L241.992,1768.89C241.992,1768.89 241.992,1772.85 241.992,1772.85C241.992,1772.85 226.035,1772.9 226.035,1772.9L226.119,1790.89L271.961,1790.89L272.055,1756.95L227.992,1756.95L227.992,1758.95ZM268.054,1785.03L230.043,1785.03L230.043,1786.97L268.054,1786.97L268.054,1785.03ZM229.994,1762.97L266.017,1762.99C266.017,1762.99 266.017,1780.95 266.017,1780.95L230.05,1780.95L230.05,1782.95L268.017,1782.95L268.017,1760.99L229.994,1760.97L229.994,1762.97ZM220.959,1775.05L219.008,1775.05L219.008,1777L220.959,1777L220.959,1775.05ZM220.959,1771.04L219.008,1771.04L219.008,1772.99L220.959,1772.99L220.959,1771.04ZM219.984,1752.99C216.675,1752.99 213.988,1755.67 213.988,1758.98C213.988,1762.29 216.675,1764.98 219.984,1764.98C223.292,1764.98 225.979,1762.29 225.979,1758.98C225.979,1755.67 223.292,1752.99 219.984,1752.99ZM219.984,1754.99C222.189,1754.99 223.979,1756.78 223.979,1758.98C223.979,1761.19 222.189,1762.98 219.984,1762.98C217.779,1762.98 215.988,1761.19 215.988,1758.98C215.988,1756.78 217.779,1754.99 219.984,1754.99Z"/>
        </g>
    </g>
</svg>
