<?xml version="1.0" encoding="UTF-8" standalone="no"?>
<!DOCTYPE svg PUBLIC "-//W3C//DTD SVG 1.1//EN" "http://www.w3.org/Graphics/SVG/1.1/DTD/svg11.dtd">
<svg width="100%" height="100%" viewBox="0 0 1000 884" version="1.1" xmlns="http://www.w3.org/2000/svg" xmlns:xlink="http://www.w3.org/1999/xlink" xml:space="preserve" xmlns:serif="http://www.serif.com/" style="fill-rule:evenodd;clip-rule:evenodd;stroke-linejoin:round;stroke-miterlimit:2;">
    <g id="Artboard1" transform="matrix(1,0,0,1,0.661672,1.38109)">
        <rect x="-0.662" y="-1.381" width="999.621" height="883.324" style="fill:none;"/>
        <g id="Unified-Communication" serif:id="Unified Communication" transform="matrix(13.6538,0,0,13.6538,-1344.54,-25378.9)">
            <path d="M151.276,1912.52L146.043,1915.63L140.164,1911.63C140.739,1910.55 141.076,1909.27 141.076,1907.87C141.076,1903.8 138.19,1900.68 134.933,1900.68C131.676,1900.68 128.79,1903.8 128.79,1907.87C128.79,1909.51 129.252,1910.98 130.016,1912.17L124.096,1915.64L119.02,1912.18C119.788,1910.99 120.254,1909.51 120.254,1907.87C120.254,1903.8 117.368,1900.68 114.111,1900.68C110.854,1900.68 107.968,1903.8 107.968,1907.87C107.968,1909.84 108.636,1911.57 109.693,1912.85L104.332,1916.9C104.082,1917.09 103.936,1917.39 103.936,1917.7L103.936,1922.12C103.936,1922.68 104.383,1923.12 104.936,1923.12L165.566,1923.12C166.118,1923.12 166.566,1922.68 166.566,1922.12L166.566,1917.76C166.566,1917.41 166.382,1917.08 166.081,1916.9L160.008,1913.25C161.272,1911.95 162.096,1910.05 162.096,1907.87C162.096,1903.8 159.21,1900.68 155.953,1900.68C152.696,1900.68 149.81,1903.8 149.81,1907.87C149.81,1909.67 150.37,1911.28 151.276,1912.52ZM138.99,1913.25C137.888,1914.39 136.451,1915.06 134.933,1915.06C133.628,1915.06 132.382,1914.56 131.358,1913.7L125.028,1917.41L125.028,1919.98L123.038,1919.98L123.038,1917.34L117.692,1913.7C116.666,1914.56 115.418,1915.06 114.111,1915.06C113.084,1915.06 112.095,1914.75 111.221,1914.2L105.936,1918.2C105.936,1918.2 105.936,1921.12 105.936,1921.12C105.936,1921.12 164.566,1921.12 164.566,1921.12C164.566,1921.12 164.566,1918.32 164.566,1918.32L158.249,1914.53C157.531,1914.87 156.753,1915.06 155.953,1915.06C154.795,1915.06 153.684,1914.67 152.732,1913.98L147.031,1917.37L147.031,1919.98L145.041,1919.98L145.041,1917.37L138.99,1913.25ZM114.111,1902.68C116.398,1902.68 118.254,1905.01 118.254,1907.87C118.254,1910.74 116.398,1913.06 114.111,1913.06C111.824,1913.06 109.968,1910.74 109.968,1907.87C109.968,1905.01 111.824,1902.68 114.111,1902.68ZM134.933,1902.68C137.22,1902.68 139.076,1905.01 139.076,1907.87C139.076,1910.74 137.22,1913.06 134.933,1913.06C132.646,1913.06 130.79,1910.74 130.79,1907.87C130.79,1905.01 132.646,1902.68 134.933,1902.68ZM155.953,1902.68C158.24,1902.68 160.096,1905.01 160.096,1907.87C160.096,1910.74 158.24,1913.06 155.953,1913.06C153.666,1913.06 151.81,1910.74 151.81,1907.87C151.81,1905.01 153.666,1902.68 155.953,1902.68ZM167.029,1892.95L167.029,1859.02L103.034,1859.02L103.034,1892.95L107.282,1892.95C107.282,1892.95 114.089,1899.2 114.089,1899.2L120.041,1892.95C120.041,1892.95 128.525,1892.95 128.525,1892.95C128.525,1892.95 134.851,1898.96 134.851,1898.96L141.176,1892.95C141.176,1892.95 150.074,1892.95 150.074,1892.95C150.074,1892.95 155.991,1899.44 155.991,1899.44L161.907,1892.95C161.907,1892.95 167.029,1892.95 167.029,1892.95ZM165.029,1861.02L105.034,1861.02L105.034,1890.95L108.06,1890.95L113.995,1896.4L119.185,1890.95L129.323,1890.95L134.851,1896.2L140.378,1890.95L150.957,1890.95L155.991,1896.48L161.024,1890.95L165.029,1890.95L165.029,1861.02ZM136.529,1873.54L139.87,1864.26L127.739,1877.35L133.568,1877.35C133.568,1877.35 130.188,1886.75 130.188,1886.75L142.278,1873.69L136.529,1873.54ZM134.777,1874.01L134.428,1874.98L138.947,1875.1C138.947,1875.1 134.069,1880.36 134.069,1880.36C134.069,1880.36 135.688,1875.86 135.688,1875.86L131.151,1875.86C131.151,1875.86 135.989,1870.64 135.989,1870.64C135.989,1870.64 134.777,1874.01 134.777,1874.01ZM112.948,1876.06L111.018,1876.06L111.018,1877.99L112.948,1877.99L112.948,1876.06ZM150.94,1876.06L149.01,1876.06L149.01,1877.99L150.94,1877.99L150.94,1876.06ZM154.969,1876.06L153.04,1876.06L153.04,1877.99L154.969,1877.99L154.969,1876.06ZM158.999,1876.06L157.069,1876.06L157.069,1877.99L158.999,1877.99L158.999,1876.06ZM116.989,1876.06L115.06,1876.06L115.06,1877.99L116.989,1877.99L116.989,1876.06ZM121.007,1876.06L119.078,1876.06L119.078,1877.99L121.007,1877.99L121.007,1876.06Z"/>
        </g>
    </g>
</svg>
